{"glyphs":{"0":{"ha":992,"x_min":31,"x_max":957,"o":"m 349 -1 q 169 57 240 -1 q 64 210 97 115 q 36 425 31 304 q 89 672 42 546 q 178 863 129 779 q 286 1002 226 946 q 416 1085 346 1058 q 569 1101 486 1111 q 701 1062 644 1093 q 801 985 758 1031 q 874 881 844 939 q 922 761 904 824 q 949 637 940 699 q 957 519 957 575 q 930 348 957 424 q 857 214 903 272 q 750 115 811 156 q 622 48 689 74 q 483 10 554 22 q 349 -1 413 -1 m 858 517 q 847 667 861 586 q 798 820 833 749 q 702 942 763 892 q 551 999 642 992 q 431 976 485 1003 q 332 899 376 950 q 250 778 288 849 q 179 624 213 707 q 135 440 142 531 q 151 276 129 349 q 221 156 172 204 q 342 100 269 108 q 517 114 428 90 q 681 191 607 138 q 805 326 756 244 q 858 517 854 408 z "},"1":{"ha":440,"x_min":33,"x_max":406,"o":"m 267 46 q 281 499 269 275 q 293 953 293 724 q 239 898 263 921 q 197 857 215 875 q 162 823 178 839 q 129 789 146 807 q 88 765 110 767 q 52 776 67 764 q 35 809 38 788 q 51 854 33 831 q 85 892 60 865 q 144 950 110 918 q 218 1014 179 982 q 292 1067 257 1046 q 345 1089 324 1086 q 381 1083 367 1092 q 400 1055 394 1074 q 404 1011 406 1036 q 386 533 394 769 q 367 46 378 297 q 349 15 365 28 q 315 1 333 3 q 281 9 296 -1 q 267 46 267 19 z "},"2":{"ha":818,"x_min":33,"x_max":783,"o":"m 508 549 q 593 674 563 606 q 624 804 624 742 q 592 915 625 867 q 489 983 560 964 q 385 991 432 999 q 298 956 338 983 q 224 887 258 929 q 157 792 189 844 q 126 772 146 774 q 92 779 107 769 q 71 809 76 789 q 79 854 65 829 q 151 956 111 908 q 242 1038 192 1004 q 355 1085 293 1071 q 492 1086 417 1099 q 617 1038 567 1074 q 694 952 667 1001 q 727 843 721 903 q 721 722 733 783 q 678 600 708 660 q 604 492 649 540 q 540 432 579 464 q 457 367 501 400 q 367 299 413 333 q 282 233 321 265 q 215 173 243 201 q 179 121 188 144 q 251 134 206 128 q 351 144 296 140 q 465 150 406 149 q 582 147 525 151 q 688 132 639 143 q 769 103 736 121 q 781 82 778 99 q 781 49 783 65 q 767 20 778 32 q 740 13 757 8 q 583 44 660 36 q 429 48 506 51 q 274 33 353 44 q 111 6 196 21 q 65 8 83 0 q 40 32 47 15 q 37 74 33 49 q 56 131 40 100 q 142 242 83 185 q 270 353 201 299 q 404 457 339 407 q 508 549 469 507 z "},"3":{"ha":692,"x_min":33,"x_max":657,"o":"m 53 64 q 35 90 38 71 q 40 128 33 110 q 62 158 47 147 q 94 158 76 169 q 187 117 136 135 q 288 91 238 99 q 388 88 339 83 q 473 114 436 93 q 531 174 510 135 q 551 274 553 213 q 528 369 550 332 q 473 426 507 406 q 395 454 439 447 q 306 459 351 461 q 216 450 260 457 q 138 435 172 443 q 101 442 114 429 q 86 474 89 456 q 89 510 83 493 q 107 531 94 528 q 187 558 142 538 q 280 609 232 579 q 374 676 328 639 q 456 753 419 714 q 515 830 493 792 q 538 901 538 868 q 511 971 538 950 q 442 995 485 992 q 349 988 400 999 q 250 963 299 978 q 161 933 201 949 q 101 911 121 918 q 60 911 76 903 q 38 935 43 919 q 43 972 33 951 q 82 1007 53 992 q 215 1063 147 1040 q 345 1093 282 1085 q 464 1095 408 1101 q 559 1064 519 1089 q 619 996 599 1039 q 635 888 640 953 q 597 769 629 824 q 524 674 564 715 q 448 604 485 632 q 399 564 411 576 q 522 521 472 549 q 601 455 571 493 q 644 370 631 417 q 657 271 657 324 q 607 107 657 174 q 474 11 557 40 q 281 -6 390 -18 q 53 64 172 6 z "},"4":{"ha":875,"x_min":32,"x_max":840,"o":"m 569 514 q 356 509 461 514 q 140 503 250 504 q 80 517 106 503 q 43 556 54 532 q 38 609 32 579 q 75 669 44 639 q 171 755 119 714 q 277 837 222 796 q 386 919 332 878 q 489 1004 440 960 q 578 1072 542 1053 q 635 1088 614 1090 q 666 1064 657 1085 q 675 1014 675 1043 q 675 959 675 990 q 675 883 675 928 q 675 776 675 838 q 674 631 675 714 q 739 631 719 631 q 765 631 758 631 q 772 631 771 631 q 781 632 772 632 q 824 618 810 633 q 839 583 838 603 q 828 547 840 564 q 794 528 817 531 q 729 523 758 525 q 675 521 700 521 q 672 394 674 460 q 671 265 671 328 q 672 144 671 201 q 675 43 674 88 q 659 6 676 17 q 621 -3 642 -4 q 582 10 600 -3 q 564 42 564 22 q 572 242 564 125 q 569 514 579 358 m 574 929 q 454 840 510 881 q 348 764 399 800 q 250 691 297 728 q 157 611 203 654 q 256 610 210 611 q 351 611 303 610 q 450 616 399 613 q 565 628 501 619 l 565 672 q 567 742 565 713 q 569 801 568 772 q 572 859 571 829 q 574 929 574 889 z "},"5":{"ha":943,"x_min":32,"x_max":907,"o":"m 78 36 q 45 63 53 43 q 42 100 38 82 q 62 130 46 118 q 101 133 78 142 q 235 103 171 110 q 357 101 299 96 q 522 133 442 110 q 665 192 603 157 q 767 271 728 226 q 807 365 806 315 q 783 463 808 414 q 718 551 758 513 q 627 614 678 590 q 526 636 576 638 q 331 589 419 633 q 160 479 243 544 q 123 463 143 467 q 84 470 103 460 q 52 507 65 481 q 36 579 39 533 q 40 776 32 675 q 51 976 47 878 q 63 1039 53 1015 q 90 1075 72 1063 q 131 1091 107 1088 q 186 1094 156 1094 l 806 1094 q 858 1079 842 1094 q 874 1045 875 1064 q 858 1010 874 1026 q 813 993 842 994 q 667 990 753 992 q 490 988 582 989 q 312 987 399 988 q 160 986 225 986 l 128 586 q 181 623 149 599 q 260 672 213 647 q 371 716 307 696 q 521 740 435 736 q 670 715 600 744 q 793 632 740 685 q 876 509 846 579 q 907 361 907 439 q 876 242 907 294 q 796 151 846 190 q 683 83 746 111 q 558 38 621 56 q 437 10 494 19 q 339 -1 379 1 q 78 36 222 -8 z "},"6":{"ha":999,"x_min":29,"x_max":968,"o":"m 40 543 q 97 776 53 676 q 206 944 142 876 q 351 1049 271 1013 q 514 1090 431 1085 q 612 1089 565 1093 q 699 1072 658 1085 q 776 1033 740 1058 q 842 965 813 1007 q 855 924 858 943 q 838 893 851 904 q 803 883 824 882 q 765 901 783 883 q 715 947 739 929 q 662 975 690 965 q 599 986 633 985 q 517 982 565 988 q 362 933 428 972 q 251 835 296 893 q 182 705 207 776 q 147 558 157 633 q 140 431 139 486 q 149 331 140 375 q 175 251 158 286 q 214 183 192 215 q 269 362 231 282 q 361 500 307 442 q 483 593 415 558 q 628 633 551 628 q 776 617 711 640 q 885 548 842 593 q 948 440 928 503 q 961 306 968 376 q 898 153 953 217 q 769 49 843 89 q 615 -10 694 8 q 479 -24 536 -28 q 247 33 338 -15 q 106 158 156 82 q 43 334 57 235 q 40 543 29 433 m 308 122 q 535 82 417 69 q 664 111 606 89 q 765 166 722 133 q 833 239 807 199 q 867 322 860 279 q 863 397 872 358 q 826 465 854 435 q 749 515 797 496 q 631 531 701 533 q 501 485 560 528 q 399 381 442 442 q 332 249 356 319 q 308 122 308 179 z "},"7":{"ha":911,"x_min":35,"x_max":878,"o":"m 238 79 q 310 220 264 138 q 410 396 356 303 q 522 583 465 489 q 626 756 579 676 q 701 894 672 836 q 731 972 731 951 q 604 989 678 983 q 450 994 531 994 q 290 990 369 994 q 146 975 211 986 q 139 899 139 928 q 136 857 139 869 q 110 814 128 825 q 76 807 93 803 q 47 826 60 811 q 36 860 35 842 q 44 961 42 921 q 56 1026 47 1001 q 86 1063 65 1051 q 150 1079 107 1075 q 467 1097 304 1094 q 790 1079 631 1099 q 836 1072 815 1076 q 867 1053 857 1067 q 874 1013 878 1040 q 843 939 869 986 q 717 715 783 825 q 585 492 651 604 q 453 263 518 379 q 329 22 388 147 q 295 -11 317 -3 q 256 -11 274 -19 q 229 20 238 -3 q 238 79 221 43 z "},"8":{"ha":968,"x_min":36,"x_max":933,"o":"m 424 -24 q 246 0 319 -24 q 125 63 172 24 q 57 155 78 103 q 36 265 36 207 q 53 365 36 315 q 102 461 71 415 q 176 548 133 507 q 272 622 219 589 q 217 660 243 636 q 172 713 192 683 q 139 776 151 743 q 125 842 126 808 q 141 932 124 888 q 201 1012 158 976 q 312 1072 243 1047 q 482 1103 381 1097 q 610 1095 549 1107 q 719 1054 672 1083 q 795 978 767 1025 q 822 865 824 931 q 806 783 821 819 q 765 718 790 747 q 708 667 740 689 q 643 628 676 644 q 751 583 699 610 q 844 521 803 557 q 909 436 885 485 q 933 322 933 388 q 884 149 932 217 q 763 43 836 82 q 599 -10 689 4 q 424 -24 510 -24 m 431 551 q 315 517 368 546 q 224 449 263 489 q 163 359 185 408 q 143 263 142 310 q 161 192 144 225 q 213 133 178 158 q 301 94 247 108 q 429 79 354 79 q 560 90 489 79 q 694 129 632 101 q 795 204 756 157 q 829 322 835 251 q 795 408 826 364 q 711 486 764 451 q 587 540 658 521 q 431 551 515 560 m 232 844 q 253 772 232 801 q 306 724 274 742 q 379 698 339 706 q 457 690 419 690 q 551 701 506 690 q 633 732 597 711 q 690 786 668 753 q 713 865 713 819 q 693 932 713 906 q 641 974 674 958 q 567 994 608 989 q 481 996 525 1000 q 394 984 438 993 q 314 958 350 975 q 255 913 278 940 q 232 844 232 885 z "},"9":{"ha":928,"x_min":35,"x_max":893,"o":"m 239 -4 q 197 10 210 -4 q 183 41 183 24 q 197 74 183 58 q 238 94 211 90 q 322 122 276 101 q 415 174 368 143 q 506 243 461 206 q 590 321 551 281 q 656 400 628 361 q 696 474 683 439 q 604 436 646 453 q 523 408 563 419 q 445 390 483 397 q 364 383 407 383 q 256 399 314 383 q 149 453 199 415 q 67 551 100 490 q 35 701 35 613 q 72 860 35 788 q 171 983 108 932 q 314 1062 233 1035 q 482 1086 394 1089 q 638 1067 564 1083 q 769 1013 713 1051 q 859 910 825 975 q 893 743 893 846 q 860 566 893 656 q 774 393 828 476 q 652 238 721 310 q 510 112 583 165 q 367 27 438 58 q 239 -4 296 -4 m 142 704 q 169 583 142 625 q 240 520 197 540 q 333 497 282 500 q 429 490 383 493 q 535 505 475 489 q 648 556 594 521 q 738 644 701 590 q 774 769 774 697 q 753 871 774 831 q 697 935 733 911 q 609 970 661 960 q 494 982 557 981 q 391 968 451 983 q 275 919 331 953 q 181 833 219 886 q 142 704 142 779 z "},"\u0000":{"ha":0,"x_min":0,"x_max":0,"o":""},"\r":{"ha":347,"x_min":0,"x_max":0,"o":""}," ":{"ha":486,"x_min":0,"x_max":0,"o":""},"!":{"ha":219,"x_min":33,"x_max":185,"o":"m 58 249 q 63 454 63 356 q 64 651 64 553 q 66 847 64 749 q 76 1051 68 946 q 93 1086 78 1075 q 126 1096 108 1097 q 158 1080 143 1094 q 172 1038 172 1065 q 168 829 172 931 q 160 631 164 728 q 156 442 157 535 q 158 260 154 349 q 145 203 161 219 q 110 187 129 186 q 74 204 90 188 q 58 249 57 221 m 36 63 q 55 127 33 103 q 104 156 76 151 q 157 141 132 160 q 183 76 182 122 q 163 22 185 42 q 115 -1 142 1 q 63 11 88 -4 q 36 63 39 26 z "},"\"":{"ha":438,"x_min":25,"x_max":417,"o":"m 157 774 q 122 751 143 753 q 85 758 101 749 q 63 785 69 767 q 71 822 57 803 q 108 900 99 861 q 111 976 117 939 q 88 1051 106 1014 q 43 1122 69 1088 q 28 1168 25 1146 q 49 1202 32 1190 q 91 1208 65 1214 q 142 1165 117 1201 q 219 972 211 1068 q 157 774 226 876 m 347 774 q 313 751 333 753 q 276 758 292 749 q 253 785 260 767 q 261 822 247 803 q 298 900 289 861 q 301 976 307 939 q 278 1051 296 1014 q 233 1122 260 1088 q 219 1168 215 1146 q 239 1202 222 1190 q 281 1208 256 1214 q 332 1165 307 1201 q 409 972 401 1068 q 347 774 417 876 z "},"#":{"ha":708,"x_min":33,"x_max":672,"o":"m 108 613 q 50 628 67 613 q 35 665 33 644 q 55 701 38 685 q 96 718 72 718 l 183 718 q 183 757 183 738 q 182 796 183 776 q 197 856 181 836 q 232 876 213 876 q 269 856 251 876 q 288 796 286 836 q 290 755 289 774 q 290 718 290 736 l 417 718 q 416 757 417 738 q 414 796 415 776 q 428 856 413 836 q 463 876 443 876 q 501 856 483 876 q 519 796 518 836 q 522 757 521 775 q 522 721 522 739 q 558 722 540 722 q 592 724 575 722 q 652 710 632 726 q 672 675 672 694 q 652 638 672 656 q 592 618 632 621 q 556 617 572 617 q 524 615 539 617 q 523 553 524 583 q 522 489 522 522 q 558 490 540 490 q 592 492 575 490 q 652 478 632 494 q 672 443 672 463 q 652 406 672 424 q 592 386 632 389 q 556 385 572 385 q 525 383 540 385 q 526 349 526 367 q 528 313 526 332 q 515 260 531 275 q 478 245 499 244 q 441 261 458 246 q 422 300 424 276 q 420 338 421 318 q 419 381 419 357 q 356 381 386 381 q 293 382 325 382 q 294 349 294 367 q 296 313 294 332 q 283 260 299 275 q 247 245 267 244 q 209 261 226 246 q 190 300 192 276 q 188 338 189 318 q 188 382 188 358 q 150 382 169 382 q 108 381 131 382 q 50 396 67 379 q 35 433 33 413 q 55 469 38 453 q 96 486 72 486 l 186 486 q 185 549 186 517 q 185 613 185 581 l 108 613 m 290 486 l 419 486 q 419 549 419 517 q 418 613 418 581 l 290 613 l 290 486 z "},"$":{"ha":1185,"x_min":32,"x_max":1150,"o":"m 453 -1 q 453 16 453 7 q 454 35 454 25 q 289 -52 367 -11 q 147 -128 211 -93 q 81 -142 108 -149 q 42 -115 53 -135 q 40 -70 32 -94 q 83 -31 49 -46 q 135 -7 100 -24 q 221 33 171 10 q 331 87 271 57 q 457 150 392 117 q 460 307 460 225 q 463 474 461 389 q 315 448 386 457 q 188 445 244 439 q 97 476 132 451 q 57 551 61 501 q 85 657 51 604 q 178 760 119 710 q 313 856 236 810 q 472 943 390 903 q 476 1000 475 972 q 479 1053 476 1028 q 496 1088 481 1076 q 528 1097 511 1099 q 560 1081 546 1096 q 575 1039 575 1067 l 575 990 q 718 1047 650 1022 q 838 1088 786 1072 q 894 1086 867 1096 q 933 1058 922 1076 q 934 1019 944 1040 q 875 985 924 997 q 824 969 856 979 q 752 943 792 958 q 667 908 713 928 q 572 867 621 889 q 567 734 569 803 q 563 594 565 665 q 610 606 586 600 q 663 618 635 611 q 733 638 688 624 q 833 665 779 651 q 944 685 888 678 q 1046 687 1000 693 q 1121 656 1092 681 q 1150 581 1150 632 q 1109 483 1150 538 q 997 368 1068 428 q 828 245 925 308 q 619 122 732 182 q 585 103 601 113 q 550 85 568 94 q 551 46 551 65 q 553 10 551 26 q 540 -48 556 -31 q 504 -64 524 -65 q 468 -46 485 -62 q 453 -1 451 -29 m 550 197 l 575 210 q 771 320 679 264 q 928 426 863 376 q 1026 516 993 476 q 1047 575 1060 556 q 1010 600 1036 594 q 950 603 983 606 q 878 591 917 600 q 806 572 840 582 q 742 551 771 561 q 700 538 714 542 q 631 518 667 528 q 558 497 594 508 q 553 342 556 418 q 550 197 551 267 m 464 572 q 465 697 464 636 q 468 817 467 758 q 349 751 406 785 q 252 682 293 717 q 190 614 211 647 q 176 551 168 581 q 192 536 179 542 q 235 533 204 531 q 322 544 267 535 q 464 572 376 554 z "},"%":{"ha":675,"x_min":26,"x_max":647,"o":"m 108 69 q 188 277 144 160 q 277 518 231 394 q 370 764 324 642 q 458 986 417 886 q 395 986 440 986 q 301 988 350 986 q 313 917 314 954 q 295 847 311 879 q 249 794 279 815 q 175 774 219 774 q 94 797 128 774 q 43 856 60 821 q 28 933 26 892 q 54 1010 31 975 q 126 1069 78 1046 q 249 1093 174 1093 q 342 1092 303 1093 q 412 1091 382 1092 q 465 1089 442 1090 q 511 1088 489 1088 q 554 1076 540 1088 q 571 1048 568 1065 q 569 1008 574 1031 q 556 963 564 986 q 472 739 518 863 q 381 489 426 615 q 297 247 336 363 q 232 44 257 131 q 197 -5 221 6 q 149 -8 172 -15 q 113 22 126 0 q 108 69 99 43 m 508 8 q 426 31 458 8 q 378 88 393 54 q 365 160 364 121 q 383 234 367 200 q 430 290 399 268 q 506 311 461 313 q 585 287 554 310 q 632 231 617 264 q 647 158 647 197 q 631 86 646 119 q 584 31 615 53 q 508 8 553 8 m 506 96 q 548 116 535 96 q 560 160 561 136 q 544 203 558 183 q 506 225 531 224 q 465 206 481 226 q 446 162 449 186 q 457 117 443 138 q 506 96 471 96 m 172 861 q 215 881 201 861 q 226 925 228 901 q 211 969 225 949 q 172 990 197 989 q 131 972 147 992 q 113 927 115 951 q 124 882 110 903 q 172 861 138 861 z "},"&":{"ha":1065,"x_min":35,"x_max":1033,"o":"m 717 200 q 664 163 701 186 q 576 115 626 140 q 465 66 525 90 q 345 25 406 42 q 229 3 285 8 q 130 8 174 -3 q 60 52 86 19 q 35 144 35 85 q 45 227 35 183 q 94 326 56 271 q 206 449 132 381 q 407 607 281 518 q 332 746 354 669 q 313 893 310 822 q 331 985 315 942 q 378 1057 347 1028 q 453 1099 408 1086 q 557 1101 497 1113 q 642 1069 610 1093 q 692 1013 675 1046 q 710 940 708 981 q 700 857 711 900 q 676 792 692 822 q 640 731 661 761 q 593 667 619 700 q 538 594 567 635 q 647 444 597 507 q 733 344 697 381 q 848 435 799 389 q 953 531 897 481 q 985 543 969 546 q 1013 530 1001 540 q 1029 505 1025 519 q 1025 482 1033 490 q 923 370 974 421 q 803 263 872 319 q 834 229 813 253 q 879 179 856 206 q 924 130 903 153 q 956 99 946 107 q 971 66 974 83 q 953 37 968 49 q 915 22 938 25 q 872 33 893 19 q 857 48 869 36 q 828 78 844 60 q 794 116 813 96 q 758 153 775 136 q 731 184 742 171 q 717 200 719 197 m 143 143 q 181 98 143 104 q 275 106 218 92 q 397 149 332 121 q 519 205 463 176 q 611 255 575 233 q 646 279 647 276 l 460 529 q 351 443 407 486 q 249 353 294 400 q 173 256 203 307 q 143 143 143 204 m 536 1001 q 456 981 489 1013 q 417 893 424 949 q 422 792 410 847 q 478 682 435 736 q 551 778 521 735 q 596 857 581 821 q 536 1001 643 975 z "},"'":{"ha":247,"x_min":25,"x_max":226,"o":"m 157 774 q 122 751 143 753 q 85 758 101 749 q 63 785 69 767 q 71 822 57 803 q 108 900 99 861 q 111 976 117 939 q 88 1051 106 1014 q 43 1122 69 1088 q 28 1168 25 1146 q 49 1202 32 1190 q 91 1208 65 1214 q 142 1165 117 1201 q 219 972 211 1068 q 157 774 226 876 z "},"(":{"ha":385,"x_min":28,"x_max":374,"o":"m 285 -71 q 169 47 218 -18 q 88 184 119 111 q 42 335 56 257 q 29 494 28 414 q 49 651 31 569 q 102 808 68 732 q 185 951 136 885 q 296 1064 233 1018 q 327 1071 311 1075 q 354 1055 343 1067 q 369 1028 365 1043 q 363 1003 374 1014 q 271 899 313 951 q 199 786 229 846 q 153 655 169 726 q 133 494 136 583 q 138 376 132 436 q 168 255 144 317 q 237 129 192 193 q 357 0 282 65 q 364 -26 365 -8 q 352 -60 363 -44 q 324 -82 342 -76 q 285 -71 307 -87 z "},")":{"ha":385,"x_min":13,"x_max":358,"o":"m 100 -71 q 60 -82 78 -87 q 33 -60 43 -76 q 21 -26 22 -44 q 28 0 19 -8 q 148 129 103 65 q 217 255 193 193 q 247 376 240 317 q 251 494 253 436 q 233 655 250 583 q 185 786 215 726 q 114 899 156 846 q 22 1003 72 951 q 16 1028 13 1014 q 31 1055 19 1043 q 58 1071 42 1067 q 89 1064 75 1075 q 200 951 151 1018 q 283 808 249 885 q 335 651 317 732 q 356 494 354 569 q 344 335 358 414 q 297 184 329 257 q 216 47 265 111 q 100 -71 167 -18 z "},"*":{"ha":600,"x_min":35,"x_max":564,"o":"m 199 382 q 158 356 176 357 q 128 369 139 356 q 117 402 118 382 q 131 436 117 422 q 159 467 143 451 q 193 503 175 483 q 148 502 172 503 q 96 500 124 501 q 48 512 61 499 q 37 542 35 525 q 53 573 39 558 q 86 588 67 588 q 142 590 110 589 q 210 590 174 590 q 165 633 186 613 q 121 671 143 653 q 91 714 94 693 q 99 747 88 735 q 134 759 111 760 q 183 735 157 758 q 226 697 207 715 q 261 663 244 678 q 259 717 260 690 q 256 769 258 744 q 265 820 253 803 q 294 838 278 838 q 326 821 311 838 q 344 769 342 804 q 348 712 347 738 q 350 663 349 686 q 384 699 368 682 q 415 735 400 717 q 457 763 436 760 q 490 755 478 767 q 500 721 501 743 q 476 672 499 699 q 404 592 435 624 q 451 594 428 593 q 497 597 475 594 q 547 588 531 600 q 564 558 564 575 q 547 527 564 542 q 497 510 531 513 q 457 506 476 507 q 421 504 438 506 q 445 481 432 493 q 474 456 458 469 q 499 415 499 433 q 485 385 499 396 q 453 374 472 375 q 418 388 433 374 q 350 451 389 413 q 351 412 350 432 q 353 368 351 392 q 341 320 354 333 q 311 309 328 307 q 280 325 294 311 q 265 358 265 339 q 263 401 264 378 q 263 450 263 424 q 233 418 249 435 q 199 382 218 401 z "},"+":{"ha":621,"x_min":33,"x_max":585,"o":"m 108 501 q 50 516 67 500 q 35 552 33 532 q 55 589 38 572 q 96 607 72 606 q 167 608 128 608 q 247 608 206 608 q 248 692 247 653 q 246 756 249 731 q 258 816 243 796 q 293 836 274 836 q 331 816 313 836 q 351 756 349 796 q 354 688 354 726 q 354 608 354 650 q 439 608 400 608 q 504 610 478 607 q 565 597 544 613 q 585 563 585 582 q 565 525 585 543 q 504 504 544 507 q 435 501 474 501 q 354 501 397 501 q 353 424 354 461 q 354 360 353 388 q 340 301 356 318 q 303 287 324 285 q 267 306 283 289 q 249 347 250 324 q 247 419 247 379 q 247 501 247 458 q 172 502 207 501 q 108 501 136 503 z "},",":{"ha":249,"x_min":25,"x_max":226,"o":"m 157 -153 q 123 -176 143 -174 q 86 -169 103 -178 q 63 -142 69 -160 q 71 -104 57 -124 q 108 -26 99 -65 q 112 50 117 13 q 89 124 107 88 q 43 196 71 161 q 29 242 25 219 q 50 276 33 264 q 92 281 67 288 q 142 239 117 275 q 219 46 211 142 q 157 -153 226 -50 z "},"-":{"ha":549,"x_min":33,"x_max":513,"o":"m 108 501 q 50 516 67 500 q 35 552 33 532 q 55 589 38 572 q 96 607 72 606 q 185 609 139 610 q 275 608 231 608 q 360 608 319 608 q 432 610 400 608 q 492 597 472 613 q 513 563 513 582 q 492 525 513 543 q 432 504 472 507 q 269 501 356 499 q 108 501 183 504 z "},".":{"ha":257,"x_min":32,"x_max":222,"o":"m 36 90 q 59 171 32 140 q 122 206 86 201 q 188 188 157 211 q 221 107 218 164 q 195 39 222 64 q 134 10 168 14 q 70 26 100 7 q 36 90 40 46 z "},"/":{"ha":529,"x_min":24,"x_max":506,"o":"m 33 69 q 90 217 60 135 q 152 388 119 299 q 219 569 185 476 q 286 752 253 663 q 351 922 319 842 q 410 1068 382 1003 q 436 1094 418 1089 q 471 1093 454 1100 q 497 1068 488 1086 q 496 1024 506 1050 q 441 874 472 957 q 374 701 410 790 q 303 520 339 613 q 234 342 267 428 q 174 180 201 256 q 131 47 147 104 q 99 -3 119 8 q 61 -7 79 -14 q 33 22 43 0 q 33 69 24 43 z "},":":{"ha":269,"x_min":35,"x_max":235,"o":"m 49 356 q 72 436 44 406 q 134 472 99 467 q 200 453 169 476 q 233 372 231 429 q 208 304 235 329 q 147 276 181 279 q 83 292 113 272 q 49 356 53 311 m 35 721 q 63 791 35 765 q 124 820 90 817 q 189 800 158 824 q 224 719 219 776 q 199 644 228 669 q 133 618 169 618 q 66 643 97 618 q 35 721 35 668 z "},";":{"ha":306,"x_min":35,"x_max":276,"o":"m 207 -136 q 173 -159 193 -157 q 136 -152 153 -161 q 113 -125 119 -143 q 121 -87 107 -107 q 158 -10 149 -49 q 162 67 167 29 q 139 141 157 104 q 93 213 121 178 q 79 258 75 236 q 100 292 83 281 q 142 298 117 304 q 192 256 167 292 q 269 63 261 158 q 207 -136 276 -33 m 35 515 q 63 585 35 560 q 124 615 90 611 q 189 594 158 618 q 224 514 219 571 q 199 438 228 464 q 133 413 169 413 q 66 438 97 413 q 35 515 35 463 z "},"<":{"ha":606,"x_min":33,"x_max":572,"o":"m 82 482 q 44 517 54 499 q 36 551 33 535 q 51 583 39 568 q 82 607 64 597 q 195 672 147 643 q 288 728 243 700 q 383 786 333 756 q 501 856 433 817 q 534 857 518 865 q 558 833 550 849 q 565 799 567 817 q 547 769 564 781 l 168 540 q 272 491 229 511 q 353 453 314 471 q 438 417 393 435 q 547 375 483 399 q 570 350 568 368 q 563 315 572 332 q 537 288 554 299 q 501 285 519 278 q 392 326 442 307 q 295 367 343 344 q 197 416 247 389 q 82 482 146 443 z "},"=":{"ha":708,"x_min":33,"x_max":672,"o":"m 108 613 q 50 626 67 611 q 35 662 33 642 q 55 699 38 682 q 96 718 72 717 q 198 721 139 721 q 324 721 257 721 q 460 722 390 721 q 592 729 529 724 q 652 717 632 732 q 672 683 672 703 q 652 644 672 663 q 592 624 632 626 q 456 617 511 618 q 350 615 400 615 q 244 616 300 615 q 108 613 189 617 m 108 381 q 50 394 67 379 q 35 430 33 410 q 55 467 38 450 q 96 486 72 485 q 198 489 139 489 q 324 489 257 489 q 460 490 390 489 q 592 497 529 492 q 652 485 632 500 q 672 451 672 471 q 652 413 672 431 q 592 392 632 394 q 456 385 511 386 q 350 383 400 383 q 244 384 300 383 q 108 381 189 385 z "},">":{"ha":606,"x_min":33,"x_max":572,"o":"m 524 482 q 409 416 460 443 q 310 367 358 389 q 214 326 263 344 q 104 285 165 307 q 69 288 86 278 q 42 315 51 299 q 35 350 33 332 q 58 375 38 368 q 168 417 124 399 q 252 453 213 435 q 334 491 292 471 q 438 540 376 511 l 58 769 q 40 799 42 781 q 47 833 39 817 q 72 857 56 849 q 104 856 88 865 q 222 786 172 817 q 317 728 272 756 q 411 672 363 700 q 524 607 460 643 q 554 583 542 597 q 569 551 567 568 q 562 517 572 535 q 524 482 551 499 z "},"?":{"ha":804,"x_min":32,"x_max":769,"o":"m 307 289 q 305 379 307 331 q 307 468 303 428 q 326 529 311 506 q 369 558 342 553 q 428 576 396 563 q 495 610 461 590 q 560 654 529 629 q 617 706 592 679 q 671 829 674 767 q 647 900 669 871 q 590 949 624 929 q 516 981 556 969 q 443 996 476 992 q 350 997 396 1003 q 265 968 304 990 q 180 897 217 942 q 115 796 143 853 q 95 783 110 783 q 66 790 81 783 q 42 807 51 796 q 36 829 32 818 q 117 974 68 921 q 225 1057 167 1028 q 328 1091 272 1081 q 443 1097 383 1101 q 557 1074 500 1093 q 660 1022 614 1056 q 736 941 706 989 q 768 829 767 893 q 749 726 769 778 q 685 628 728 675 q 560 530 632 571 q 414 464 489 489 q 410 420 411 446 q 408 369 408 394 q 408 319 408 343 q 408 281 408 296 q 391 249 407 263 q 356 233 375 236 q 322 243 338 231 q 307 289 307 256 m 296 64 q 315 128 293 104 q 364 157 336 153 q 417 142 392 161 q 443 78 442 124 q 423 23 444 43 q 374 0 401 3 q 323 13 347 -3 q 296 64 299 28 z "},"@":{"ha":950,"x_min":28,"x_max":915,"o":"m 38 490 q 70 704 28 608 q 188 868 113 800 q 361 973 264 936 q 557 1010 458 1010 q 681 990 618 1010 q 794 932 743 971 q 878 835 846 893 q 914 699 911 776 q 905 604 915 654 q 873 513 894 554 q 819 443 851 471 q 743 413 786 415 q 706 417 726 411 q 666 435 685 422 q 633 467 647 447 q 613 514 618 488 q 604 490 611 504 q 585 458 597 475 q 558 422 574 440 q 522 388 542 404 q 459 351 494 365 q 387 338 424 338 q 317 352 350 338 q 261 400 283 367 q 235 472 239 435 q 241 546 232 510 q 270 616 250 582 q 315 676 290 650 q 384 738 346 710 q 465 785 422 767 q 553 810 508 804 q 642 803 599 815 q 667 774 661 797 q 674 717 674 750 q 672 647 674 683 q 675 578 671 610 q 692 527 679 547 q 735 507 706 507 q 781 530 765 507 q 805 583 797 553 q 814 644 813 614 q 815 692 815 675 q 792 787 815 746 q 731 855 768 828 q 647 896 693 882 q 557 910 601 910 q 406 883 483 910 q 265 803 328 856 q 164 674 201 750 q 135 500 126 599 q 178 335 143 397 q 268 241 214 274 q 388 199 322 208 q 522 189 454 189 q 608 199 569 189 q 679 223 647 208 q 737 256 711 238 q 783 292 763 275 q 811 297 794 301 q 842 280 828 292 q 862 253 856 268 q 857 225 868 238 q 765 153 814 181 q 669 111 717 126 q 577 91 621 96 q 500 86 533 86 q 343 103 421 86 q 201 166 265 121 q 92 290 136 211 q 38 490 49 368 m 360 576 q 327 504 329 536 q 342 453 325 472 q 393 434 360 432 q 463 468 426 436 q 510 522 488 490 q 549 587 532 553 q 575 654 565 621 q 585 714 585 688 q 535 706 565 717 q 474 674 506 694 q 411 629 442 654 q 360 576 381 604 z "},"A":{"ha":1108,"x_min":18,"x_max":1078,"o":"m 806 1071 q 827 1091 813 1082 q 856 1099 842 1100 q 883 1083 871 1097 q 897 1031 894 1068 q 919 779 906 897 q 952 548 932 661 q 1001 319 972 435 q 1068 75 1029 204 q 1068 26 1078 44 q 1041 4 1058 8 q 1004 10 1024 0 q 975 46 985 19 q 947 126 961 82 q 918 217 932 169 q 892 310 904 264 q 871 397 879 357 q 733 349 806 369 q 593 312 660 328 q 473 285 526 296 q 390 267 419 275 q 308 169 347 218 q 234 76 268 121 q 172 -6 200 32 q 124 -69 144 -43 q 78 -99 101 -99 q 39 -85 54 -100 q 21 -47 24 -71 q 39 0 18 -22 q 319 331 201 176 q 526 620 438 486 q 680 867 614 754 q 806 1071 746 979 m 806 879 q 721 750 758 813 q 647 628 683 688 q 573 510 611 568 q 488 393 535 451 q 560 408 515 399 q 655 433 604 418 q 755 466 706 447 q 842 508 804 485 l 806 879 z "},"B":{"ha":969,"x_min":35,"x_max":935,"o":"m 36 99 q 37 314 35 203 q 42 536 39 425 q 48 754 44 647 q 53 956 51 861 q 79 1014 53 992 q 147 1053 106 1036 q 268 1085 194 1072 q 422 1101 342 1099 q 577 1094 501 1104 q 703 1056 653 1083 q 769 980 754 1028 q 744 860 785 932 q 691 791 726 826 q 610 721 656 756 q 514 656 565 686 q 411 603 463 625 q 519 620 461 614 q 636 624 578 626 q 749 608 694 621 q 844 568 803 596 q 910 497 885 540 q 935 389 935 453 q 883 243 935 308 q 737 128 832 178 q 506 43 642 78 q 201 -11 371 8 q 129 -21 160 -15 q 78 -19 99 -26 q 48 14 58 -12 q 36 99 38 40 m 138 90 q 248 103 178 94 q 399 126 318 111 q 561 164 479 140 q 707 222 643 188 q 806 304 771 257 q 831 413 842 351 q 775 484 822 460 q 660 517 728 508 q 513 520 593 525 q 360 503 433 515 q 227 475 286 492 q 142 443 168 458 q 135 347 136 392 q 135 260 135 301 q 137 177 136 218 q 138 90 138 136 m 160 938 q 151 853 154 899 q 147 761 149 808 q 146 669 146 714 q 146 585 146 624 q 230 625 182 603 q 330 672 278 647 q 433 725 382 697 q 528 783 485 753 q 603 844 572 813 q 647 907 635 875 q 634 967 663 947 q 553 994 606 988 q 435 995 501 1000 q 310 981 369 990 q 208 958 251 971 q 160 938 165 946 z "},"C":{"ha":1086,"x_min":26,"x_max":1051,"o":"m 326 -10 q 210 -6 260 -15 q 127 25 161 4 q 73 77 93 46 q 44 147 53 108 q 43 340 26 236 q 103 550 60 444 q 213 753 147 656 q 359 926 279 851 q 528 1047 439 1001 q 708 1090 618 1092 q 768 1071 740 1090 q 816 1022 796 1051 q 848 958 836 993 q 860 894 860 924 q 847 840 860 858 q 817 822 833 822 q 784 840 800 822 q 761 892 768 857 q 755 924 758 908 q 745 954 751 940 q 726 976 739 968 q 693 985 714 985 q 558 944 628 985 q 424 838 489 904 q 303 688 360 772 q 209 515 247 603 q 153 341 171 426 q 147 188 135 256 q 201 105 157 132 q 332 90 244 78 q 494 132 404 101 q 674 213 585 163 q 840 329 763 263 q 965 476 918 396 q 1008 516 988 515 q 1040 497 1029 517 q 1050 443 1051 476 q 1025 381 1049 410 q 874 230 961 299 q 692 110 786 161 q 502 27 597 58 q 326 -10 407 -4 z "},"D":{"ha":1081,"x_min":33,"x_max":1053,"o":"m 113 -10 q 60 2 74 -11 q 43 56 46 15 q 38 178 40 108 q 36 326 36 247 q 37 488 36 404 q 38 652 38 572 q 39 803 39 732 q 38 931 39 875 q 35 1001 38 972 q 41 1049 33 1031 q 72 1075 49 1067 q 144 1085 94 1083 q 344 1077 242 1088 q 544 1042 446 1067 q 730 976 642 1017 q 885 878 818 936 q 995 744 953 819 q 1044 571 1038 668 q 988 350 1053 453 q 800 170 924 247 q 501 46 676 93 q 113 -10 326 -1 m 143 96 q 492 153 343 113 q 741 254 642 193 q 889 395 840 315 q 938 569 938 475 q 901 697 938 638 q 801 806 864 757 q 658 893 739 856 q 488 953 576 931 q 309 983 399 976 q 140 979 219 990 q 140 857 140 929 q 139 701 139 785 q 138 530 139 618 q 138 360 138 442 q 140 210 139 279 q 143 96 140 140 z "},"E":{"ha":1028,"x_min":33,"x_max":997,"o":"m 36 104 q 36 281 33 186 q 43 474 39 375 q 50 671 47 572 q 50 861 53 769 q 49 925 49 900 q 59 967 50 950 q 88 992 68 983 q 143 1007 107 1001 q 322 1031 235 1021 q 497 1052 410 1042 q 674 1076 585 1063 q 860 1108 764 1089 q 906 1103 889 1114 q 927 1073 924 1092 q 919 1034 931 1054 q 878 1003 907 1014 q 836 996 875 1001 q 736 981 797 990 q 598 961 675 972 q 442 939 521 950 q 288 917 363 928 q 157 897 214 906 q 157 828 157 868 q 156 744 157 788 q 155 656 156 700 q 154 572 154 611 q 213 577 175 572 q 300 590 251 582 q 404 609 349 599 q 513 630 460 619 q 613 650 565 640 q 694 668 661 660 q 758 668 735 676 q 788 644 782 660 q 781 610 794 628 q 735 581 768 592 q 646 556 699 569 q 533 530 593 543 q 413 504 474 517 q 299 481 351 492 q 206 463 246 471 q 150 451 167 456 q 144 356 146 400 q 142 270 142 311 q 144 188 142 229 q 151 100 146 146 q 574 158 383 119 q 906 244 764 196 q 948 242 924 251 q 985 215 972 232 q 989 175 997 197 q 933 133 981 153 q 842 106 901 121 q 708 74 782 90 q 551 44 633 58 q 392 17 468 29 q 251 -3 315 6 q 150 -15 188 -12 q 93 -13 114 -18 q 61 6 72 -8 q 45 45 50 21 q 36 104 40 69 z "},"F":{"ha":924,"x_min":35,"x_max":892,"o":"m 60 936 q 76 1020 60 989 q 144 1057 93 1051 q 298 1069 210 1064 q 478 1082 386 1075 q 656 1098 571 1089 q 800 1118 742 1107 q 862 1116 840 1126 q 888 1088 883 1106 q 878 1051 892 1071 q 838 1018 865 1031 q 779 1008 829 1014 q 658 994 729 1001 q 504 978 586 986 q 351 963 422 969 q 228 951 279 956 q 168 944 178 946 q 165 794 171 871 q 163 639 160 717 q 254 644 200 639 q 370 656 308 649 q 497 674 432 664 q 617 697 561 685 q 674 692 650 704 q 703 662 697 681 q 697 624 710 643 q 643 596 683 604 q 449 561 526 574 q 317 541 371 549 q 225 528 263 533 q 153 518 188 524 q 151 403 153 465 q 148 277 150 340 q 144 151 146 214 q 142 36 142 89 q 125 7 142 17 q 88 -2 108 -3 q 51 10 68 -1 q 35 46 35 22 q 39 270 35 160 q 47 491 43 381 q 56 712 51 601 q 60 936 60 822 z "},"G":{"ha":1054,"x_min":31,"x_max":1018,"o":"m 881 -75 q 890 68 886 -4 q 900 211 894 140 q 848 153 886 189 q 758 83 810 117 q 648 24 707 49 q 535 0 589 0 q 444 10 494 0 q 340 42 393 19 q 235 103 286 65 q 142 194 183 140 q 72 321 100 249 q 38 488 43 393 q 58 697 31 606 q 135 855 86 788 q 249 968 185 922 q 377 1042 313 1014 q 499 1082 442 1069 q 592 1094 556 1094 q 701 1088 656 1094 q 784 1070 747 1082 q 852 1041 821 1058 q 918 1000 883 1024 q 942 967 936 988 q 942 928 947 946 q 924 899 938 910 q 892 899 911 889 q 833 931 864 913 q 769 964 803 949 q 696 990 735 979 q 613 999 657 1000 q 429 958 517 996 q 276 855 342 921 q 172 698 210 789 q 138 496 135 607 q 178 328 140 400 q 273 209 217 257 q 396 135 329 161 q 522 107 463 110 q 611 123 567 106 q 697 169 656 140 q 775 233 739 197 q 838 304 811 269 q 882 369 865 339 q 900 414 899 399 q 893 428 899 422 q 881 440 888 435 q 778 441 829 440 q 675 442 726 442 q 572 434 622 442 q 469 422 522 426 q 420 436 435 419 q 410 474 406 453 q 433 515 414 496 q 486 533 453 533 q 699 540 594 533 q 911 546 803 546 q 975 533 953 546 q 1008 500 997 521 q 1018 453 1018 479 q 1015 400 1018 426 q 992 147 999 265 q 985 -86 985 28 q 967 -117 985 -100 q 930 -140 950 -135 q 894 -133 910 -146 q 881 -75 878 -121 z "},"H":{"ha":951,"x_min":33,"x_max":917,"o":"m 36 40 q 35 535 36 288 q 39 1029 33 783 q 56 1083 40 1069 q 89 1093 71 1097 q 122 1070 107 1089 q 138 1026 138 1051 q 141 894 139 964 q 145 753 143 824 q 149 614 147 682 q 147 486 150 546 q 209 493 161 489 q 322 502 257 497 q 463 513 388 507 q 606 524 538 519 q 731 533 675 529 q 811 539 786 538 q 810 661 811 590 q 810 802 810 732 q 813 931 811 872 q 818 1018 815 990 q 838 1076 822 1057 q 871 1094 854 1094 q 901 1073 888 1093 q 915 1014 915 1053 q 916 541 917 786 q 915 63 915 296 q 899 12 915 28 q 863 -2 882 -4 q 828 20 843 0 q 814 76 813 40 q 813 246 817 160 q 811 428 810 332 q 725 425 776 428 q 613 418 674 422 q 485 408 551 414 q 357 396 419 401 q 240 385 294 390 q 146 378 185 381 q 144 338 146 376 q 142 247 143 300 q 140 137 140 194 q 143 40 140 79 q 129 -5 146 8 q 92 -16 113 -18 q 53 1 71 -14 q 36 40 36 15 z "},"I":{"ha":235,"x_min":56,"x_max":179,"o":"m 57 58 q 63 294 61 165 q 67 556 65 422 q 72 817 69 689 q 83 1051 75 946 q 100 1086 85 1075 q 133 1096 115 1097 q 165 1080 150 1094 q 179 1038 179 1065 q 174 799 179 931 q 163 535 168 668 q 156 281 158 403 q 157 69 153 158 q 144 12 160 29 q 108 -4 128 -6 q 72 14 89 -3 q 57 58 56 31 z "},"J":{"ha":911,"x_min":28,"x_max":876,"o":"m 876 1014 q 868 688 876 851 q 849 363 860 525 q 821 198 840 269 q 756 78 801 126 q 631 7 710 31 q 428 -14 553 -17 q 231 9 311 -12 q 103 81 150 31 q 42 218 56 132 q 46 435 28 304 q 66 484 50 468 q 99 500 82 500 q 130 484 117 500 q 142 435 143 468 q 135 344 140 388 q 132 262 131 300 q 146 192 133 224 q 192 139 158 161 q 284 105 225 117 q 438 93 343 93 q 591 111 532 93 q 684 164 650 129 q 733 249 718 199 q 754 363 749 299 q 776 681 771 518 q 774 1000 781 844 q 787 1076 771 1056 q 822 1092 803 1096 q 859 1067 842 1089 q 876 1014 876 1044 z "},"K":{"ha":1118,"x_min":47,"x_max":1083,"o":"m 146 -46 q 124 -85 140 -75 q 91 -93 108 -96 q 60 -75 74 -90 q 49 -39 47 -60 q 76 244 60 110 q 109 511 92 379 q 145 777 126 643 q 179 1060 164 911 q 201 1099 182 1088 q 239 1107 219 1110 q 274 1085 258 1104 q 286 1033 289 1067 q 252 751 272 888 q 214 469 232 614 q 385 628 299 553 q 560 776 472 704 q 735 919 647 847 q 910 1068 822 992 q 955 1085 932 1088 q 992 1069 978 1083 q 1006 1033 1006 1054 q 985 993 1007 1013 q 915 937 961 974 q 813 854 869 900 q 697 758 757 808 q 584 663 636 708 q 494 582 532 618 q 444 526 456 546 q 625 449 539 496 q 788 347 711 403 q 928 229 864 290 q 1046 108 993 168 q 1083 42 1082 68 q 1066 7 1083 17 q 1022 3 1049 -3 q 974 32 994 10 q 859 152 928 85 q 709 281 790 219 q 538 383 628 342 q 360 425 449 425 q 308 403 338 425 q 253 350 279 381 q 209 286 228 319 q 188 232 190 253 q 176 156 181 189 q 168 93 172 124 q 159 30 164 63 q 146 -46 154 -3 z "},"L":{"ha":1044,"x_min":32,"x_max":1010,"o":"m 36 75 q 51 210 43 135 q 67 371 58 286 q 85 544 76 456 q 100 717 93 633 q 111 878 107 801 q 115 1013 115 954 q 132 1083 115 1061 q 169 1102 149 1104 q 207 1077 190 1100 q 224 1013 224 1054 q 216 806 224 924 q 196 566 208 689 q 169 324 183 443 q 140 111 154 204 q 307 122 217 114 q 497 145 397 129 q 705 185 597 161 q 925 244 813 210 q 990 248 969 258 q 1008 217 1010 238 q 985 174 1007 197 q 925 139 964 151 q 571 50 746 83 q 210 6 396 17 q 151 -1 183 4 q 92 -4 119 -7 q 49 15 65 -1 q 36 75 32 32 z "},"M":{"ha":1411,"x_min":29,"x_max":1381,"o":"m 138 47 q 111 7 131 21 q 72 -6 92 -7 q 41 16 53 -4 q 39 78 29 36 q 75 291 60 169 q 104 543 90 413 q 131 803 118 674 q 158 1039 143 932 q 170 1072 161 1056 q 194 1096 179 1088 q 231 1099 210 1104 q 275 1067 251 1094 q 322 1007 292 1049 q 389 911 351 965 q 467 797 426 857 q 547 683 508 738 q 617 588 585 629 q 669 528 650 546 q 783 651 728 585 q 892 787 839 717 q 997 930 946 857 q 1100 1071 1049 1003 q 1133 1095 1114 1089 q 1172 1097 1153 1101 q 1203 1081 1190 1093 q 1215 1053 1215 1069 q 1224 802 1211 931 q 1260 547 1238 674 q 1313 301 1283 421 q 1372 78 1343 182 q 1370 30 1381 50 q 1342 2 1360 10 q 1304 2 1324 -6 q 1275 36 1285 10 q 1240 151 1258 82 q 1203 300 1221 219 q 1171 467 1186 381 q 1144 634 1156 553 q 1125 787 1132 715 q 1118 907 1118 858 q 1034 813 1074 863 q 957 710 994 763 q 882 607 919 658 q 804 507 844 556 q 676 410 729 419 q 574 472 624 400 q 549 507 572 475 q 492 585 526 539 q 418 686 458 632 q 342 789 378 740 q 278 874 306 838 q 242 922 250 911 q 226 776 235 856 q 210 612 218 696 q 194 444 203 528 q 177 285 186 360 q 158 149 168 211 q 138 47 149 88 z "},"N":{"ha":1103,"x_min":35,"x_max":1046,"o":"m 153 57 q 139 1 156 19 q 101 -18 122 -18 q 63 1 81 -18 q 43 57 44 19 q 42 260 40 151 q 46 485 44 368 q 46 728 47 603 q 36 982 44 853 q 51 1037 35 1014 q 89 1065 67 1060 q 134 1051 111 1069 q 167 982 157 1032 q 243 764 190 869 q 365 564 296 658 q 515 390 435 469 q 672 249 594 310 q 819 151 750 189 q 933 104 888 114 q 919 399 924 253 q 915 694 914 544 q 922 1001 915 844 q 940 1329 928 1158 q 960 1372 943 1357 q 995 1387 976 1386 q 1029 1375 1014 1388 q 1043 1336 1044 1363 q 1027 1015 1033 1168 q 1020 715 1021 861 q 1025 422 1019 568 q 1042 124 1031 276 q 1038 48 1046 76 q 1011 7 1031 19 q 960 -5 992 -6 q 885 8 929 -4 q 719 83 803 31 q 558 203 636 136 q 411 348 481 271 q 288 496 342 425 q 198 626 233 567 q 153 717 163 685 q 148 628 150 683 q 145 509 146 574 q 145 376 144 444 q 147 245 146 307 q 150 133 149 183 q 153 57 151 83 z "},"O":{"ha":1086,"x_min":31,"x_max":1056,"o":"m 1043 656 q 973 441 1025 540 q 849 263 921 342 q 693 126 778 183 q 525 36 608 68 q 434 9 481 19 q 342 -4 388 -1 q 253 -1 296 -7 q 172 21 210 6 q 80 93 111 46 q 40 201 49 140 q 40 331 31 261 q 70 469 50 400 q 118 601 90 538 q 174 715 146 665 q 276 868 218 796 q 404 993 333 940 q 560 1073 475 1046 q 744 1092 646 1100 q 907 1044 843 1083 q 1005 946 971 1006 q 1047 811 1039 886 q 1043 656 1056 736 m 275 689 q 231 605 254 654 q 187 500 207 556 q 153 387 167 444 q 141 277 140 329 q 160 184 142 225 q 219 121 178 143 q 276 103 244 108 q 342 99 307 97 q 413 109 376 101 q 486 131 450 117 q 638 210 564 160 q 774 329 713 260 q 878 486 835 399 q 939 678 922 574 q 944 796 949 740 q 915 894 939 851 q 844 963 890 938 q 728 988 799 988 q 619 978 674 988 q 507 938 564 969 q 392 848 450 907 q 275 689 333 789 z "},"P":{"ha":1088,"x_min":35,"x_max":1053,"o":"m 49 43 q 36 288 38 169 q 38 522 35 407 q 44 750 40 636 q 49 981 49 864 q 59 1023 49 1006 q 88 1052 69 1040 q 129 1071 106 1064 q 179 1082 153 1078 q 319 1093 232 1090 q 501 1093 406 1096 q 579 1091 528 1093 q 692 1083 631 1089 q 817 1067 753 1078 q 933 1037 881 1056 q 1019 989 986 1018 q 1053 919 1053 960 q 1029 813 1053 860 q 966 730 1006 765 q 876 669 926 694 q 770 624 825 643 q 660 593 715 606 q 560 572 606 581 q 343 538 451 551 q 149 518 235 525 q 143 356 142 422 q 147 238 144 290 q 153 137 150 185 q 151 28 156 89 q 137 -2 151 14 q 104 -22 122 -18 q 69 -14 86 -26 q 49 43 53 -1 m 165 956 q 158 885 161 928 q 151 796 154 842 q 147 707 149 750 q 146 635 146 664 q 337 644 233 635 q 544 674 440 654 q 608 686 568 678 q 693 708 647 694 q 785 740 739 721 q 867 781 831 758 q 927 833 904 804 q 947 897 950 863 q 916 935 946 919 q 841 960 886 950 q 742 977 796 971 q 639 987 688 983 q 552 992 590 990 q 501 993 514 993 q 397 993 449 994 q 301 987 346 992 q 222 974 257 982 q 165 956 186 967 z "},"Q":{"ha":1124,"x_min":31,"x_max":1199,"o":"m 481 404 q 474 453 468 429 q 497 490 481 478 q 533 497 513 501 q 569 461 554 493 q 627 340 601 399 q 682 235 653 282 q 747 153 711 188 q 831 103 782 119 q 949 92 881 88 q 1111 128 1017 97 q 1167 128 1146 139 q 1194 99 1189 118 q 1187 61 1199 81 q 1143 35 1175 42 q 931 8 1019 8 q 781 27 843 7 q 675 85 718 47 q 599 174 632 124 q 540 283 567 224 q 481 404 513 342 m 1043 656 q 982 439 1031 539 q 863 258 933 339 q 706 119 792 178 q 538 28 621 60 q 444 2 493 11 q 348 -8 396 -7 q 255 -2 300 -10 q 172 21 210 6 q 80 93 111 46 q 40 201 49 140 q 40 331 31 261 q 70 469 50 400 q 118 601 90 538 q 174 715 146 665 q 280 868 218 796 q 418 992 342 940 q 584 1072 494 1044 q 772 1090 674 1099 q 928 1042 871 1082 q 1014 943 986 1003 q 1047 808 1042 883 q 1043 656 1051 733 m 275 689 q 231 605 254 654 q 187 500 207 556 q 153 387 167 444 q 141 277 140 329 q 160 184 142 225 q 219 121 178 143 q 277 101 244 108 q 347 94 310 94 q 424 101 385 94 q 499 122 463 108 q 653 204 576 151 q 792 328 729 257 q 894 488 854 400 q 939 678 935 576 q 940 794 942 739 q 922 893 939 850 q 865 961 904 936 q 756 986 826 986 q 642 977 701 986 q 520 938 582 968 q 396 848 458 907 q 275 689 333 789 z "},"R":{"ha":1075,"x_min":35,"x_max":1040,"o":"m 36 49 q 53 435 44 275 q 72 706 63 596 q 92 881 82 815 q 115 981 103 946 q 140 1028 126 1015 q 169 1043 154 1040 q 324 1069 235 1056 q 508 1091 413 1083 q 696 1097 603 1099 q 864 1076 789 1094 q 987 1022 939 1058 q 1039 922 1035 985 q 1031 850 1040 894 q 990 753 1021 806 q 903 646 960 701 q 756 542 847 590 q 533 456 664 493 q 222 403 403 419 q 290 263 247 317 q 389 182 333 210 q 510 149 444 154 q 647 151 575 143 q 794 179 719 160 q 943 221 869 199 q 994 221 971 229 q 1028 196 1018 213 q 1028 159 1038 179 q 979 124 1019 139 q 715 50 829 69 q 514 38 600 31 q 368 72 428 44 q 267 138 308 99 q 200 222 225 176 q 160 308 175 267 q 144 178 150 249 q 136 49 138 107 q 119 8 136 26 q 84 -15 103 -11 q 50 -6 65 -19 q 36 49 35 8 m 914 892 q 873 962 917 939 q 760 991 829 985 q 608 991 692 997 q 444 974 524 985 q 299 950 364 963 q 206 932 235 938 q 185 817 192 876 q 176 699 179 757 q 174 589 174 642 q 176 494 175 536 q 474 549 351 515 q 679 621 597 582 q 808 701 761 660 q 878 781 854 743 q 907 847 901 818 q 914 892 913 876 z "},"S":{"ha":1185,"x_min":32,"x_max":1154,"o":"m 147 -128 q 81 -142 108 -149 q 42 -115 53 -135 q 40 -70 32 -94 q 83 -31 49 -46 q 151 1 103 -22 q 267 56 200 24 q 413 127 333 88 q 575 210 492 167 q 770 320 679 264 q 925 426 861 376 q 1022 516 989 476 q 1042 575 1054 556 q 1005 600 1031 594 q 946 603 979 606 q 876 591 913 600 q 804 572 839 582 q 742 551 769 561 q 700 538 714 542 q 565 498 636 518 q 423 462 493 478 q 288 439 353 446 q 174 440 224 432 q 93 474 125 449 q 57 551 61 500 q 92 665 53 608 q 197 776 131 722 q 350 878 264 829 q 524 967 436 926 q 695 1039 613 1008 q 838 1088 778 1069 q 894 1086 867 1096 q 933 1058 922 1076 q 934 1019 944 1040 q 875 985 924 997 q 774 951 842 976 q 624 891 706 926 q 456 813 542 856 q 303 724 371 769 q 197 635 236 679 q 168 551 158 590 q 297 544 175 525 q 663 635 419 564 q 732 655 688 642 q 829 679 776 668 q 938 696 882 690 q 1039 692 993 701 q 1115 658 1085 683 q 1150 581 1146 632 q 1114 471 1154 526 q 1001 358 1074 415 q 830 241 928 300 q 619 122 732 182 q 365 -13 489 51 q 147 -128 240 -78 z "},"T":{"ha":1175,"x_min":33,"x_max":1143,"o":"m 553 906 q 433 883 499 894 q 303 863 367 872 q 186 844 240 853 q 100 828 132 836 q 56 833 71 821 q 37 865 40 846 q 41 902 33 883 q 65 925 49 921 q 196 953 117 938 q 368 984 275 968 q 560 1017 461 1000 q 750 1051 660 1035 q 915 1081 840 1067 q 1032 1107 989 1096 q 1110 1110 1086 1121 q 1139 1082 1135 1100 q 1133 1045 1143 1064 q 1106 1022 1122 1026 q 996 998 1054 1011 q 878 972 938 985 q 763 945 819 958 q 656 919 706 932 q 663 708 661 818 q 665 485 664 597 q 670 262 667 372 q 683 49 674 151 q 669 9 686 24 q 630 -8 651 -6 q 590 3 608 -10 q 571 44 571 15 l 553 906 z "},"U":{"ha":1014,"x_min":35,"x_max":983,"o":"m 464 0 q 286 31 360 0 q 163 117 213 63 q 87 244 114 171 q 47 400 60 317 q 35 572 35 483 q 40 747 35 661 q 52 911 44 832 q 63 1054 60 990 q 81 1088 64 1078 q 117 1093 97 1097 q 152 1073 138 1089 q 164 1028 167 1057 q 148 858 157 956 q 139 657 139 761 q 152 452 139 553 q 202 272 165 351 q 304 144 239 193 q 472 97 369 96 q 705 140 619 99 q 831 252 790 182 q 875 415 871 322 q 863 612 879 508 q 817 824 846 715 q 765 1033 789 932 q 774 1069 761 1054 q 807 1088 788 1085 q 847 1078 826 1090 q 875 1032 867 1067 q 933 794 904 915 q 972 558 961 672 q 969 342 983 443 q 900 165 956 240 q 740 44 844 89 q 464 0 635 0 z "},"V":{"ha":1144,"x_min":36,"x_max":1110,"o":"m 669 42 q 641 -4 660 13 q 602 -23 622 -21 q 563 -12 582 -25 q 532 35 543 1 q 313 554 436 310 q 46 993 190 799 q 36 1031 36 1007 q 45 1072 36 1054 q 71 1094 54 1089 q 110 1076 88 1099 q 224 931 167 1019 q 335 745 282 843 q 436 548 389 647 q 519 369 483 449 q 578 239 556 290 q 606 186 601 188 q 730 492 669 351 q 844 745 790 633 q 945 937 899 857 q 1026 1058 992 1017 q 1072 1092 1053 1090 q 1100 1078 1090 1093 q 1109 1039 1110 1064 q 1094 990 1108 1014 q 959 753 1015 860 q 856 540 903 646 q 766 315 810 433 q 669 42 722 196 z "},"W":{"ha":1769,"x_min":35,"x_max":1739,"o":"m 1256 44 q 1149 213 1193 132 q 1063 374 1104 293 q 977 538 1022 454 q 865 715 932 622 q 763 547 808 631 q 678 378 718 463 q 599 208 639 294 q 513 31 560 121 q 483 -1 501 8 q 446 -8 464 -10 q 414 6 428 -6 q 397 36 400 18 q 360 274 382 168 q 312 469 339 381 q 254 628 285 557 q 190 760 224 700 q 121 874 156 821 q 51 975 86 926 q 35 1023 35 997 q 47 1064 36 1049 q 79 1079 58 1079 q 125 1050 100 1079 q 260 855 206 956 q 356 650 315 754 q 428 441 397 546 q 492 233 458 336 q 533 313 507 261 q 591 428 560 365 q 656 557 622 490 q 717 681 689 624 q 765 780 744 739 q 789 832 785 821 q 812 867 797 853 q 843 888 826 882 q 876 890 860 894 q 906 865 893 885 q 922 835 907 864 q 961 761 936 807 q 1019 657 986 715 q 1086 536 1051 599 q 1157 412 1121 474 q 1224 298 1193 350 q 1280 209 1256 246 q 1318 158 1304 172 q 1350 472 1329 342 q 1408 707 1371 603 q 1500 901 1444 811 q 1636 1094 1556 992 q 1672 1113 1650 1111 q 1710 1105 1693 1114 q 1733 1079 1726 1096 q 1721 1043 1739 1063 q 1563 824 1619 935 q 1478 592 1507 713 q 1435 338 1449 471 q 1403 51 1421 204 q 1382 -3 1399 13 q 1344 -17 1365 -19 q 1299 1 1322 -15 q 1256 44 1275 18 z "},"X":{"ha":1038,"x_min":35,"x_max":1007,"o":"m 56 -75 q 259 151 154 15 q 468 439 364 288 q 349 589 407 514 q 240 736 292 664 q 146 874 189 808 q 71 993 103 939 q 63 1041 57 1018 q 83 1078 68 1064 q 115 1093 97 1092 q 144 1075 133 1094 q 315 822 214 963 q 533 535 415 681 q 642 700 589 618 q 743 857 694 782 q 834 997 792 932 q 911 1110 876 1061 q 944 1128 924 1128 q 980 1118 964 1129 q 1001 1088 996 1107 q 992 1044 1007 1068 q 919 935 961 1000 q 826 792 876 871 q 719 627 775 714 q 603 451 663 540 q 780 249 690 346 q 957 74 869 153 q 978 32 978 56 q 964 -6 978 8 q 925 -22 950 -21 q 869 6 900 -22 q 710 163 794 72 q 538 356 625 253 q 435 210 486 281 q 333 78 383 140 q 237 -37 283 15 q 149 -126 190 -89 q 92 -156 118 -154 q 51 -147 67 -158 q 35 -115 36 -135 q 56 -75 35 -94 z "},"Y":{"ha":1040,"x_min":33,"x_max":1008,"o":"m 540 343 q 481 502 529 421 q 364 662 432 583 q 217 813 296 740 q 64 943 138 885 q 36 987 39 964 q 44 1026 33 1010 q 72 1050 54 1043 q 107 1044 90 1057 q 204 967 151 1011 q 310 872 257 922 q 416 768 364 821 q 510 665 468 715 q 581 569 551 614 q 619 492 611 525 q 700 624 660 547 q 778 781 740 700 q 853 938 817 861 q 919 1074 889 1015 q 955 1108 936 1104 q 987 1101 974 1113 q 1004 1065 1000 1089 q 997 1017 1008 1042 q 871 746 933 874 q 744 485 808 618 q 612 206 681 353 q 465 -119 543 60 q 432 -155 453 -149 q 393 -153 411 -161 q 365 -127 375 -144 q 361 -92 354 -110 q 454 127 406 21 q 540 343 503 233 z "},"Z":{"ha":1064,"x_min":32,"x_max":1033,"o":"m 906 11 q 735 42 832 36 q 533 43 638 47 q 328 28 429 39 q 143 7 226 17 q 86 13 114 3 q 45 43 58 22 q 39 95 32 64 q 85 165 46 126 q 197 274 132 213 q 335 406 261 336 q 490 553 410 476 q 648 706 571 629 q 795 858 725 783 q 921 1001 865 933 q 705 961 811 972 q 496 949 599 950 q 292 955 393 949 q 92 967 192 961 q 46 985 56 968 q 42 1021 36 1001 q 67 1056 49 1040 q 106 1071 85 1072 q 233 1058 169 1067 q 380 1047 296 1050 q 581 1052 464 1044 q 869 1088 697 1060 q 967 1095 931 1097 q 1019 1076 1004 1093 q 1028 1028 1033 1060 q 999 946 1022 996 q 915 831 976 900 q 774 681 854 761 q 602 517 693 601 q 430 357 511 433 q 285 219 349 281 q 199 121 222 157 q 406 142 300 138 q 610 142 513 146 q 790 132 708 139 q 921 118 871 125 q 967 92 953 114 q 979 49 982 71 q 958 14 976 28 q 906 11 939 0 z "},"[":{"ha":544,"x_min":0,"x_max":519,"o":"m 1 -22 q 7 115 4 29 q 13 305 10 201 q 20 522 17 408 q 26 741 24 635 q 29 939 28 847 q 31 1092 31 1031 q 32 1157 31 1131 q 42 1201 33 1183 q 69 1226 50 1218 q 124 1238 88 1235 q 207 1241 164 1240 q 292 1241 250 1242 q 372 1240 333 1240 q 442 1240 411 1240 q 490 1226 471 1240 q 515 1192 510 1211 q 507 1156 519 1174 q 460 1135 494 1139 q 419 1134 456 1135 q 334 1132 383 1133 q 231 1130 285 1131 q 138 1128 178 1129 q 136 971 138 1064 q 133 769 135 878 q 129 547 131 661 q 126 325 128 432 q 121 126 124 218 q 117 -26 118 35 q 200 -25 164 -25 q 269 -26 236 -25 q 338 -26 303 -26 q 419 -26 374 -26 q 462 -43 443 -26 q 488 -80 481 -60 q 486 -118 494 -100 q 447 -137 478 -136 q 371 -140 407 -140 q 297 -140 335 -140 q 216 -140 260 -139 q 115 -142 172 -140 q 56 -137 79 -143 q 21 -118 33 -132 q 4 -81 8 -104 q 1 -22 0 -57 z "},"\\":{"ha":501,"x_min":10,"x_max":493,"o":"m 482 69 q 483 22 493 43 q 454 -7 472 0 q 416 -3 436 -14 q 385 47 396 8 q 341 180 368 104 q 281 342 314 256 q 213 520 249 428 q 141 701 176 613 q 74 874 106 790 q 19 1024 43 957 q 19 1068 10 1050 q 44 1093 28 1086 q 79 1094 61 1100 q 106 1068 97 1089 q 165 922 133 1003 q 229 752 196 842 q 297 569 263 663 q 363 388 331 476 q 426 217 396 299 q 482 69 457 135 z "},"]":{"ha":546,"x_min":-3,"x_max":517,"o":"m 515 -22 q 513 -81 517 -57 q 496 -118 508 -104 q 460 -137 483 -132 q 401 -142 438 -143 q 301 -140 344 -140 q 219 -140 257 -139 q 146 -140 182 -140 q 69 -137 110 -140 q 31 -118 39 -136 q 29 -80 22 -100 q 55 -43 36 -60 q 97 -26 74 -26 q 178 -26 143 -26 q 247 -26 214 -26 q 317 -25 281 -25 q 400 -26 353 -25 q 396 126 399 35 q 391 325 393 218 q 388 547 389 432 q 384 769 386 661 q 381 971 382 878 q 379 1128 381 1064 q 286 1130 340 1129 q 183 1132 232 1131 q 97 1134 133 1133 q 57 1135 61 1135 q 10 1156 22 1139 q 2 1192 -3 1174 q 26 1226 7 1211 q 75 1240 46 1240 q 144 1240 106 1240 q 225 1241 183 1240 q 310 1241 267 1242 q 393 1238 354 1240 q 448 1226 429 1235 q 475 1201 467 1218 q 485 1157 483 1183 q 486 1092 486 1131 q 488 939 486 1031 q 491 741 489 847 q 497 522 493 635 q 503 305 500 408 q 510 115 507 201 q 515 -22 513 29 z "},"^":{"ha":474,"x_min":25,"x_max":450,"o":"m 164 783 q 193 810 175 803 q 230 817 211 818 q 264 807 249 815 q 286 786 279 799 q 329 710 311 742 q 363 647 347 678 q 398 583 379 617 q 443 503 417 550 q 440 477 450 492 q 415 452 431 463 q 382 440 399 442 q 358 450 365 438 l 225 703 q 192 634 206 661 q 169 582 179 607 q 147 528 158 557 q 119 456 136 500 q 97 440 114 442 q 64 444 81 438 q 36 461 47 450 q 29 485 25 472 q 58 562 44 526 q 85 631 71 597 q 119 702 100 665 q 164 783 138 739 z "},"_":{"ha":799,"x_min":13,"x_max":783,"o":"m 88 6 q 29 20 46 4 q 15 56 13 36 q 34 92 17 75 q 75 111 51 110 q 340 113 185 115 q 703 122 496 111 q 763 109 743 125 q 783 74 783 93 q 763 37 783 54 q 703 17 743 19 q 563 10 622 13 q 455 8 503 8 q 367 8 407 8 q 285 9 326 8 q 197 9 243 10 q 88 6 150 8 z "},"`":{"ha":421,"x_min":25,"x_max":393,"o":"m 71 1324 q 31 1376 38 1350 q 35 1418 25 1401 q 67 1438 44 1435 q 111 1421 89 1440 q 176 1366 147 1390 q 235 1319 206 1342 q 295 1272 264 1296 q 364 1217 326 1247 q 392 1175 390 1196 q 381 1140 393 1154 q 347 1124 368 1126 q 304 1136 325 1121 q 185 1231 246 1178 q 71 1324 124 1283 z "},"a":{"ha":1108,"x_min":18,"x_max":1078,"o":"m 806 1071 q 827 1091 813 1082 q 856 1099 842 1100 q 883 1083 871 1097 q 897 1031 894 1068 q 919 779 906 897 q 952 548 932 661 q 1001 319 972 435 q 1068 75 1029 204 q 1068 26 1078 44 q 1041 4 1058 8 q 1004 10 1024 0 q 975 46 985 19 q 947 126 961 82 q 918 217 932 169 q 892 310 904 264 q 871 397 879 357 q 733 349 806 369 q 593 312 660 328 q 473 285 526 296 q 390 267 419 275 q 308 169 347 218 q 234 76 268 121 q 172 -6 200 32 q 124 -69 144 -43 q 78 -99 101 -99 q 39 -85 54 -100 q 21 -47 24 -71 q 39 0 18 -22 q 319 331 201 176 q 526 620 438 486 q 680 867 614 754 q 806 1071 746 979 m 806 879 q 721 750 758 813 q 647 628 683 688 q 573 510 611 568 q 488 393 535 451 q 560 408 515 399 q 655 433 604 418 q 755 466 706 447 q 842 508 804 485 l 806 879 z "},"b":{"ha":969,"x_min":35,"x_max":935,"o":"m 36 99 q 37 314 35 203 q 42 536 39 425 q 48 754 44 647 q 53 956 51 861 q 79 1014 53 992 q 147 1053 106 1036 q 268 1085 194 1072 q 422 1101 342 1099 q 577 1094 501 1104 q 703 1056 653 1083 q 769 980 754 1028 q 744 860 785 932 q 691 791 726 826 q 610 721 656 756 q 514 656 565 686 q 411 603 463 625 q 519 620 461 614 q 636 624 578 626 q 749 608 694 621 q 844 568 803 596 q 910 497 885 540 q 935 389 935 453 q 883 243 935 308 q 737 128 832 178 q 506 43 642 78 q 201 -11 371 8 q 129 -21 160 -15 q 78 -19 99 -26 q 48 14 58 -12 q 36 99 38 40 m 138 90 q 248 103 178 94 q 399 126 318 111 q 561 164 479 140 q 707 222 643 188 q 806 304 771 257 q 831 413 842 351 q 775 484 822 460 q 660 517 728 508 q 513 520 593 525 q 360 503 433 515 q 227 475 286 492 q 142 443 168 458 q 135 347 136 392 q 135 260 135 301 q 137 177 136 218 q 138 90 138 136 m 160 938 q 151 853 154 899 q 147 761 149 808 q 146 669 146 714 q 146 585 146 624 q 230 625 182 603 q 330 672 278 647 q 433 725 382 697 q 528 783 485 753 q 603 844 572 813 q 647 907 635 875 q 634 967 663 947 q 553 994 606 988 q 435 995 501 1000 q 310 981 369 990 q 208 958 251 971 q 160 938 165 946 z "},"c":{"ha":1086,"x_min":26,"x_max":1051,"o":"m 326 -10 q 210 -6 260 -15 q 127 25 161 4 q 73 77 93 46 q 44 147 53 108 q 43 340 26 236 q 103 550 60 444 q 213 753 147 656 q 359 926 279 851 q 528 1047 439 1001 q 708 1090 618 1092 q 768 1071 740 1090 q 816 1022 796 1051 q 848 958 836 993 q 860 894 860 924 q 847 840 860 858 q 817 822 833 822 q 784 840 800 822 q 761 892 768 857 q 755 924 758 908 q 745 954 751 940 q 726 976 739 968 q 693 985 714 985 q 558 944 628 985 q 424 838 489 904 q 303 688 360 772 q 209 515 247 603 q 153 341 171 426 q 147 188 135 256 q 201 105 157 132 q 332 90 244 78 q 494 132 404 101 q 674 213 585 163 q 840 329 763 263 q 965 476 918 396 q 1008 516 988 515 q 1040 497 1029 517 q 1050 443 1051 476 q 1025 381 1049 410 q 874 230 961 299 q 692 110 786 161 q 502 27 597 58 q 326 -10 407 -4 z "},"d":{"ha":1081,"x_min":33,"x_max":1053,"o":"m 113 -10 q 60 2 74 -11 q 43 56 46 15 q 38 178 40 108 q 36 326 36 247 q 37 488 36 404 q 38 652 38 572 q 39 803 39 732 q 38 931 39 875 q 35 1001 38 972 q 41 1049 33 1031 q 72 1075 49 1067 q 144 1085 94 1083 q 344 1077 242 1088 q 544 1042 446 1067 q 730 976 642 1017 q 885 878 818 936 q 995 744 953 819 q 1044 571 1038 668 q 988 350 1053 453 q 800 170 924 247 q 501 46 676 93 q 113 -10 326 -1 m 143 96 q 492 153 343 113 q 741 254 642 193 q 889 395 840 315 q 938 569 938 475 q 901 697 938 638 q 801 806 864 757 q 658 893 739 856 q 488 953 576 931 q 309 983 399 976 q 140 979 219 990 q 140 857 140 929 q 139 701 139 785 q 138 530 139 618 q 138 360 138 442 q 140 210 139 279 q 143 96 140 140 z "},"e":{"ha":1028,"x_min":33,"x_max":997,"o":"m 36 104 q 36 281 33 186 q 43 474 39 375 q 50 671 47 572 q 50 861 53 769 q 49 925 49 900 q 59 967 50 950 q 88 992 68 983 q 143 1007 107 1001 q 322 1031 235 1021 q 497 1052 410 1042 q 674 1076 585 1063 q 860 1108 764 1089 q 906 1103 889 1114 q 927 1073 924 1092 q 919 1034 931 1054 q 878 1003 907 1014 q 836 996 875 1001 q 736 981 797 990 q 598 961 675 972 q 442 939 521 950 q 288 917 363 928 q 157 897 214 906 q 157 828 157 868 q 156 744 157 788 q 155 656 156 700 q 154 572 154 611 q 213 577 175 572 q 300 590 251 582 q 404 609 349 599 q 513 630 460 619 q 613 650 565 640 q 694 668 661 660 q 758 668 735 676 q 788 644 782 660 q 781 610 794 628 q 735 581 768 592 q 646 556 699 569 q 533 530 593 543 q 413 504 474 517 q 299 481 351 492 q 206 463 246 471 q 150 451 167 456 q 144 356 146 400 q 142 270 142 311 q 144 188 142 229 q 151 100 146 146 q 574 158 383 119 q 906 244 764 196 q 948 242 924 251 q 985 215 972 232 q 989 175 997 197 q 933 133 981 153 q 842 106 901 121 q 708 74 782 90 q 551 44 633 58 q 392 17 468 29 q 251 -3 315 6 q 150 -15 188 -12 q 93 -13 114 -18 q 61 6 72 -8 q 45 45 50 21 q 36 104 40 69 z "},"f":{"ha":924,"x_min":35,"x_max":892,"o":"m 60 936 q 76 1020 60 989 q 144 1057 93 1051 q 298 1069 210 1064 q 478 1082 386 1075 q 656 1098 571 1089 q 800 1118 742 1107 q 862 1116 840 1126 q 888 1088 883 1106 q 878 1051 892 1071 q 838 1018 865 1031 q 779 1008 829 1014 q 658 994 729 1001 q 504 978 586 986 q 351 963 422 969 q 228 951 279 956 q 168 944 178 946 q 165 794 171 871 q 163 639 160 717 q 254 644 200 639 q 370 656 308 649 q 497 674 432 664 q 617 697 561 685 q 674 692 650 704 q 703 662 697 681 q 697 624 710 643 q 643 596 683 604 q 449 561 526 574 q 317 541 371 549 q 225 528 263 533 q 153 518 188 524 q 151 403 153 465 q 148 277 150 340 q 144 151 146 214 q 142 36 142 89 q 125 7 142 17 q 88 -2 108 -3 q 51 10 68 -1 q 35 46 35 22 q 39 270 35 160 q 47 491 43 381 q 56 712 51 601 q 60 936 60 822 z "},"g":{"ha":1054,"x_min":31,"x_max":1018,"o":"m 881 -75 q 890 68 886 -4 q 900 211 894 140 q 848 153 886 189 q 758 83 810 117 q 648 24 707 49 q 535 0 589 0 q 444 10 494 0 q 340 42 393 19 q 235 103 286 65 q 142 194 183 140 q 72 321 100 249 q 38 488 43 393 q 58 697 31 606 q 135 855 86 788 q 249 968 185 922 q 377 1042 313 1014 q 499 1082 442 1069 q 592 1094 556 1094 q 701 1088 656 1094 q 784 1070 747 1082 q 852 1041 821 1058 q 918 1000 883 1024 q 942 967 936 988 q 942 928 947 946 q 924 899 938 910 q 892 899 911 889 q 833 931 864 913 q 769 964 803 949 q 696 990 735 979 q 613 999 657 1000 q 429 958 517 996 q 276 855 342 921 q 172 698 210 789 q 138 496 135 607 q 178 328 140 400 q 273 209 217 257 q 396 135 329 161 q 522 107 463 110 q 611 123 567 106 q 697 169 656 140 q 775 233 739 197 q 838 304 811 269 q 882 369 865 339 q 900 414 899 399 q 893 428 899 422 q 881 440 888 435 q 778 441 829 440 q 675 442 726 442 q 572 434 622 442 q 469 422 522 426 q 420 436 435 419 q 410 474 406 453 q 433 515 414 496 q 486 533 453 533 q 699 540 594 533 q 911 546 803 546 q 975 533 953 546 q 1008 500 997 521 q 1018 453 1018 479 q 1015 400 1018 426 q 992 147 999 265 q 985 -86 985 28 q 967 -117 985 -100 q 930 -140 950 -135 q 894 -133 910 -146 q 881 -75 878 -121 z "},"h":{"ha":951,"x_min":33,"x_max":917,"o":"m 36 40 q 35 535 36 288 q 39 1029 33 783 q 56 1083 40 1069 q 89 1093 71 1097 q 122 1070 107 1089 q 138 1026 138 1051 q 141 894 139 964 q 145 753 143 824 q 149 614 147 682 q 147 486 150 546 q 209 493 161 489 q 322 502 257 497 q 463 513 388 507 q 606 524 538 519 q 731 533 675 529 q 811 539 786 538 q 810 661 811 590 q 810 802 810 732 q 813 931 811 872 q 818 1018 815 990 q 838 1076 822 1057 q 871 1094 854 1094 q 901 1073 888 1093 q 915 1014 915 1053 q 916 541 917 786 q 915 63 915 296 q 899 12 915 28 q 863 -2 882 -4 q 828 20 843 0 q 814 76 813 40 q 813 246 817 160 q 811 428 810 332 q 725 425 776 428 q 613 418 674 422 q 485 408 551 414 q 357 396 419 401 q 240 385 294 390 q 146 378 185 381 q 144 338 146 376 q 142 247 143 300 q 140 137 140 194 q 143 40 140 79 q 129 -5 146 8 q 92 -16 113 -18 q 53 1 71 -14 q 36 40 36 15 z "},"i":{"ha":235,"x_min":56,"x_max":179,"o":"m 57 58 q 63 294 61 165 q 67 556 65 422 q 72 817 69 689 q 83 1051 75 946 q 100 1086 85 1075 q 133 1096 115 1097 q 165 1080 150 1094 q 179 1038 179 1065 q 174 799 179 931 q 163 535 168 668 q 156 281 158 403 q 157 69 153 158 q 144 12 160 29 q 108 -4 128 -6 q 72 14 89 -3 q 57 58 56 31 z "},"j":{"ha":911,"x_min":28,"x_max":876,"o":"m 876 1014 q 868 688 876 851 q 849 363 860 525 q 821 198 840 269 q 756 78 801 126 q 631 7 710 31 q 428 -14 553 -17 q 231 9 311 -12 q 103 81 150 31 q 42 218 56 132 q 46 435 28 304 q 66 484 50 468 q 99 500 82 500 q 130 484 117 500 q 142 435 143 468 q 135 344 140 388 q 132 262 131 300 q 146 192 133 224 q 192 139 158 161 q 284 105 225 117 q 438 93 343 93 q 591 111 532 93 q 684 164 650 129 q 733 249 718 199 q 754 363 749 299 q 776 681 771 518 q 774 1000 781 844 q 787 1076 771 1056 q 822 1092 803 1096 q 859 1067 842 1089 q 876 1014 876 1044 z "},"k":{"ha":1118,"x_min":47,"x_max":1083,"o":"m 146 -46 q 124 -85 140 -75 q 91 -93 108 -96 q 60 -75 74 -90 q 49 -39 47 -60 q 76 244 60 110 q 109 511 92 379 q 145 777 126 643 q 179 1060 164 911 q 201 1099 182 1088 q 239 1107 219 1110 q 274 1085 258 1104 q 286 1033 289 1067 q 252 751 272 888 q 214 469 232 614 q 385 628 299 553 q 560 776 472 704 q 735 919 647 847 q 910 1068 822 992 q 955 1085 932 1088 q 992 1069 978 1083 q 1006 1033 1006 1054 q 985 993 1007 1013 q 915 937 961 974 q 813 854 869 900 q 697 758 757 808 q 584 663 636 708 q 494 582 532 618 q 444 526 456 546 q 625 449 539 496 q 788 347 711 403 q 928 229 864 290 q 1046 108 993 168 q 1083 42 1082 68 q 1066 7 1083 17 q 1022 3 1049 -3 q 974 32 994 10 q 859 152 928 85 q 709 281 790 219 q 538 383 628 342 q 360 425 449 425 q 308 403 338 425 q 253 350 279 381 q 209 286 228 319 q 188 232 190 253 q 176 156 181 189 q 168 93 172 124 q 159 30 164 63 q 146 -46 154 -3 z "},"l":{"ha":1044,"x_min":32,"x_max":1010,"o":"m 36 75 q 51 210 43 135 q 67 371 58 286 q 85 544 76 456 q 100 717 93 633 q 111 878 107 801 q 115 1013 115 954 q 132 1083 115 1061 q 169 1102 149 1104 q 207 1077 190 1100 q 224 1013 224 1054 q 216 806 224 924 q 196 566 208 689 q 169 324 183 443 q 140 111 154 204 q 307 122 217 114 q 497 145 397 129 q 705 185 597 161 q 925 244 813 210 q 990 248 969 258 q 1008 217 1010 238 q 985 174 1007 197 q 925 139 964 151 q 571 50 746 83 q 210 6 396 17 q 151 -1 183 4 q 92 -4 119 -7 q 49 15 65 -1 q 36 75 32 32 z "},"m":{"ha":1411,"x_min":29,"x_max":1381,"o":"m 138 47 q 111 7 131 21 q 72 -6 92 -7 q 41 16 53 -4 q 39 78 29 36 q 75 291 60 169 q 104 543 90 413 q 131 803 118 674 q 158 1039 143 932 q 170 1072 161 1056 q 194 1096 179 1088 q 231 1099 210 1104 q 275 1067 251 1094 q 322 1007 292 1049 q 389 911 351 965 q 467 797 426 857 q 547 683 508 738 q 617 588 585 629 q 669 528 650 546 q 783 651 728 585 q 892 787 839 717 q 997 930 946 857 q 1100 1071 1049 1003 q 1133 1095 1114 1089 q 1172 1097 1153 1101 q 1203 1081 1190 1093 q 1215 1053 1215 1069 q 1224 802 1211 931 q 1260 547 1238 674 q 1313 301 1283 421 q 1372 78 1343 182 q 1370 30 1381 50 q 1342 2 1360 10 q 1304 2 1324 -6 q 1275 36 1285 10 q 1240 151 1258 82 q 1203 300 1221 219 q 1171 467 1186 381 q 1144 634 1156 553 q 1125 787 1132 715 q 1118 907 1118 858 q 1034 813 1074 863 q 957 710 994 763 q 882 607 919 658 q 804 507 844 556 q 676 410 729 419 q 574 472 624 400 q 549 507 572 475 q 492 585 526 539 q 418 686 458 632 q 342 789 378 740 q 278 874 306 838 q 242 922 250 911 q 226 776 235 856 q 210 612 218 696 q 194 444 203 528 q 177 285 186 360 q 158 149 168 211 q 138 47 149 88 z "},"n":{"ha":1103,"x_min":35,"x_max":1046,"o":"m 153 57 q 139 1 156 19 q 101 -18 122 -18 q 63 1 81 -18 q 43 57 44 19 q 42 260 40 151 q 46 485 44 368 q 46 728 47 603 q 36 982 44 853 q 51 1037 35 1014 q 89 1065 67 1060 q 134 1051 111 1069 q 167 982 157 1032 q 243 764 190 869 q 365 564 296 658 q 515 390 435 469 q 672 249 594 310 q 819 151 750 189 q 933 104 888 114 q 919 399 924 253 q 915 694 914 544 q 922 1001 915 844 q 940 1329 928 1158 q 960 1372 943 1357 q 995 1387 976 1386 q 1029 1375 1014 1388 q 1043 1336 1044 1363 q 1027 1015 1033 1168 q 1020 715 1021 861 q 1025 422 1019 568 q 1042 124 1031 276 q 1038 48 1046 76 q 1011 7 1031 19 q 960 -5 992 -6 q 885 8 929 -4 q 719 83 803 31 q 558 203 636 136 q 411 348 481 271 q 288 496 342 425 q 198 626 233 567 q 153 717 163 685 q 148 628 150 683 q 145 509 146 574 q 145 376 144 444 q 147 245 146 307 q 150 133 149 183 q 153 57 151 83 z "},"o":{"ha":1086,"x_min":31,"x_max":1056,"o":"m 1043 656 q 973 441 1025 540 q 849 263 921 342 q 693 126 778 183 q 525 36 608 68 q 434 9 481 19 q 342 -4 388 -1 q 253 -1 296 -7 q 172 21 210 6 q 80 93 111 46 q 40 201 49 140 q 40 331 31 261 q 70 469 50 400 q 118 601 90 538 q 174 715 146 665 q 276 868 218 796 q 404 993 333 940 q 560 1073 475 1046 q 744 1092 646 1100 q 907 1044 843 1083 q 1005 946 971 1006 q 1047 811 1039 886 q 1043 656 1056 736 m 275 689 q 231 605 254 654 q 187 500 207 556 q 153 387 167 444 q 141 277 140 329 q 160 184 142 225 q 219 121 178 143 q 276 103 244 108 q 342 99 307 97 q 413 109 376 101 q 486 131 450 117 q 638 210 564 160 q 774 329 713 260 q 878 486 835 399 q 939 678 922 574 q 944 796 949 740 q 915 894 939 851 q 844 963 890 938 q 728 988 799 988 q 619 978 674 988 q 507 938 564 969 q 392 848 450 907 q 275 689 333 789 z "},"p":{"ha":1088,"x_min":35,"x_max":1053,"o":"m 49 43 q 36 288 38 169 q 38 522 35 407 q 44 750 40 636 q 49 981 49 864 q 59 1023 49 1006 q 88 1052 69 1040 q 129 1071 106 1064 q 179 1082 153 1078 q 319 1093 232 1090 q 501 1093 406 1096 q 579 1091 528 1093 q 692 1083 631 1089 q 817 1067 753 1078 q 933 1037 881 1056 q 1019 989 986 1018 q 1053 919 1053 960 q 1029 813 1053 860 q 966 730 1006 765 q 876 669 926 694 q 770 624 825 643 q 660 593 715 606 q 560 572 606 581 q 343 538 451 551 q 149 518 235 525 q 143 356 142 422 q 147 238 144 290 q 153 137 150 185 q 151 28 156 89 q 137 -2 151 14 q 104 -22 122 -18 q 69 -14 86 -26 q 49 43 53 -1 m 165 956 q 158 885 161 928 q 151 796 154 842 q 147 707 149 750 q 146 635 146 664 q 337 644 233 635 q 544 674 440 654 q 608 686 568 678 q 693 708 647 694 q 785 740 739 721 q 867 781 831 758 q 927 833 904 804 q 947 897 950 863 q 916 935 946 919 q 841 960 886 950 q 742 977 796 971 q 639 987 688 983 q 552 992 590 990 q 501 993 514 993 q 397 993 449 994 q 301 987 346 992 q 222 974 257 982 q 165 956 186 967 z "},"q":{"ha":1124,"x_min":31,"x_max":1199,"o":"m 481 404 q 474 453 468 429 q 497 490 481 478 q 533 497 513 501 q 569 461 554 493 q 627 340 601 399 q 682 235 653 282 q 747 153 711 188 q 831 103 782 119 q 949 92 881 88 q 1111 128 1017 97 q 1167 128 1146 139 q 1194 99 1189 118 q 1187 61 1199 81 q 1143 35 1175 42 q 931 8 1019 8 q 781 27 843 7 q 675 85 718 47 q 599 174 632 124 q 540 283 567 224 q 481 404 513 342 m 1043 656 q 982 439 1031 539 q 863 258 933 339 q 706 119 792 178 q 538 28 621 60 q 444 2 493 11 q 348 -8 396 -7 q 255 -2 300 -10 q 172 21 210 6 q 80 93 111 46 q 40 201 49 140 q 40 331 31 261 q 70 469 50 400 q 118 601 90 538 q 174 715 146 665 q 280 868 218 796 q 418 992 342 940 q 584 1072 494 1044 q 772 1090 674 1099 q 928 1042 871 1082 q 1014 943 986 1003 q 1047 808 1042 883 q 1043 656 1051 733 m 275 689 q 231 605 254 654 q 187 500 207 556 q 153 387 167 444 q 141 277 140 329 q 160 184 142 225 q 219 121 178 143 q 277 101 244 108 q 347 94 310 94 q 424 101 385 94 q 499 122 463 108 q 653 204 576 151 q 792 328 729 257 q 894 488 854 400 q 939 678 935 576 q 940 794 942 739 q 922 893 939 850 q 865 961 904 936 q 756 986 826 986 q 642 977 701 986 q 520 938 582 968 q 396 848 458 907 q 275 689 333 789 z "},"r":{"ha":1075,"x_min":35,"x_max":1040,"o":"m 36 49 q 53 435 44 275 q 72 706 63 596 q 92 881 82 815 q 115 981 103 946 q 140 1028 126 1015 q 169 1043 154 1040 q 324 1069 235 1056 q 508 1091 413 1083 q 696 1097 603 1099 q 864 1076 789 1094 q 987 1022 939 1058 q 1039 922 1035 985 q 1031 850 1040 894 q 990 753 1021 806 q 903 646 960 701 q 756 542 847 590 q 533 456 664 493 q 222 403 403 419 q 290 263 247 317 q 389 182 333 210 q 510 149 444 154 q 647 151 575 143 q 794 179 719 160 q 943 221 869 199 q 994 221 971 229 q 1028 196 1018 213 q 1028 159 1038 179 q 979 124 1019 139 q 715 50 829 69 q 514 38 600 31 q 368 72 428 44 q 267 138 308 99 q 200 222 225 176 q 160 308 175 267 q 144 178 150 249 q 136 49 138 107 q 119 8 136 26 q 84 -15 103 -11 q 50 -6 65 -19 q 36 49 35 8 m 914 892 q 873 962 917 939 q 760 991 829 985 q 608 991 692 997 q 444 974 524 985 q 299 950 364 963 q 206 932 235 938 q 185 817 192 876 q 176 699 179 757 q 174 589 174 642 q 176 494 175 536 q 474 549 351 515 q 679 621 597 582 q 808 701 761 660 q 878 781 854 743 q 907 847 901 818 q 914 892 913 876 z "},"s":{"ha":1185,"x_min":32,"x_max":1154,"o":"m 147 -128 q 81 -142 108 -149 q 42 -115 53 -135 q 40 -70 32 -94 q 83 -31 49 -46 q 151 1 103 -22 q 267 56 200 24 q 413 127 333 88 q 575 210 492 167 q 770 320 679 264 q 925 426 861 376 q 1022 516 989 476 q 1042 575 1054 556 q 1005 600 1031 594 q 946 603 979 606 q 876 591 913 600 q 804 572 839 582 q 742 551 769 561 q 700 538 714 542 q 565 498 636 518 q 423 462 493 478 q 288 439 353 446 q 174 440 224 432 q 93 474 125 449 q 57 551 61 500 q 92 665 53 608 q 197 776 131 722 q 350 878 264 829 q 524 967 436 926 q 695 1039 613 1008 q 838 1088 778 1069 q 894 1086 867 1096 q 933 1058 922 1076 q 934 1019 944 1040 q 875 985 924 997 q 774 951 842 976 q 624 891 706 926 q 456 813 542 856 q 303 724 371 769 q 197 635 236 679 q 168 551 158 590 q 297 544 175 525 q 663 635 419 564 q 732 655 688 642 q 829 679 776 668 q 938 696 882 690 q 1039 692 993 701 q 1115 658 1085 683 q 1150 581 1146 632 q 1114 471 1154 526 q 1001 358 1074 415 q 830 241 928 300 q 619 122 732 182 q 365 -13 489 51 q 147 -128 240 -78 z "},"t":{"ha":1175,"x_min":33,"x_max":1143,"o":"m 553 906 q 433 883 499 894 q 303 863 367 872 q 186 844 240 853 q 100 828 132 836 q 56 833 71 821 q 37 865 40 846 q 41 902 33 883 q 65 925 49 921 q 196 953 117 938 q 368 984 275 968 q 560 1017 461 1000 q 750 1051 660 1035 q 915 1081 840 1067 q 1032 1107 989 1096 q 1110 1110 1086 1121 q 1139 1082 1135 1100 q 1133 1045 1143 1064 q 1106 1022 1122 1026 q 996 998 1054 1011 q 878 972 938 985 q 763 945 819 958 q 656 919 706 932 q 663 708 661 818 q 665 485 664 597 q 670 262 667 372 q 683 49 674 151 q 669 9 686 24 q 630 -8 651 -6 q 590 3 608 -10 q 571 44 571 15 l 553 906 z "},"u":{"ha":1014,"x_min":35,"x_max":983,"o":"m 464 0 q 286 31 360 0 q 163 117 213 63 q 87 244 114 171 q 47 400 60 317 q 35 572 35 483 q 40 747 35 661 q 52 911 44 832 q 63 1054 60 990 q 81 1088 64 1078 q 117 1093 97 1097 q 152 1073 138 1089 q 164 1028 167 1057 q 148 858 157 956 q 139 657 139 761 q 152 452 139 553 q 202 272 165 351 q 304 144 239 193 q 472 97 369 96 q 705 140 619 99 q 831 252 790 182 q 875 415 871 322 q 863 612 879 508 q 817 824 846 715 q 765 1033 789 932 q 774 1069 761 1054 q 807 1088 788 1085 q 847 1078 826 1090 q 875 1032 867 1067 q 933 794 904 915 q 972 558 961 672 q 969 342 983 443 q 900 165 956 240 q 740 44 844 89 q 464 0 635 0 z "},"v":{"ha":1144,"x_min":36,"x_max":1110,"o":"m 669 42 q 641 -4 660 13 q 602 -23 622 -21 q 563 -12 582 -25 q 532 35 543 1 q 313 554 436 310 q 46 993 190 799 q 36 1031 36 1007 q 45 1072 36 1054 q 71 1094 54 1089 q 110 1076 88 1099 q 224 931 167 1019 q 335 745 282 843 q 436 548 389 647 q 519 369 483 449 q 578 239 556 290 q 606 186 601 188 q 730 492 669 351 q 844 745 790 633 q 945 937 899 857 q 1026 1058 992 1017 q 1072 1092 1053 1090 q 1100 1078 1090 1093 q 1109 1039 1110 1064 q 1094 990 1108 1014 q 959 753 1015 860 q 856 540 903 646 q 766 315 810 433 q 669 42 722 196 z "},"w":{"ha":1769,"x_min":35,"x_max":1739,"o":"m 1256 44 q 1149 213 1193 132 q 1063 374 1104 293 q 977 538 1022 454 q 865 715 932 622 q 763 547 808 631 q 678 378 718 463 q 599 208 639 294 q 513 31 560 121 q 483 -1 501 8 q 446 -8 464 -10 q 414 6 428 -6 q 397 36 400 18 q 360 274 382 168 q 312 469 339 381 q 254 628 285 557 q 190 760 224 700 q 121 874 156 821 q 51 975 86 926 q 35 1023 35 997 q 47 1064 36 1049 q 79 1079 58 1079 q 125 1050 100 1079 q 260 855 206 956 q 356 650 315 754 q 428 441 397 546 q 492 233 458 336 q 533 313 507 261 q 591 428 560 365 q 656 557 622 490 q 717 681 689 624 q 765 780 744 739 q 789 832 785 821 q 812 867 797 853 q 843 888 826 882 q 876 890 860 894 q 906 865 893 885 q 922 835 907 864 q 961 761 936 807 q 1019 657 986 715 q 1086 536 1051 599 q 1157 412 1121 474 q 1224 298 1193 350 q 1280 209 1256 246 q 1318 158 1304 172 q 1350 472 1329 342 q 1408 707 1371 603 q 1500 901 1444 811 q 1636 1094 1556 992 q 1672 1113 1650 1111 q 1710 1105 1693 1114 q 1733 1079 1726 1096 q 1721 1043 1739 1063 q 1563 824 1619 935 q 1478 592 1507 713 q 1435 338 1449 471 q 1403 51 1421 204 q 1382 -3 1399 13 q 1344 -17 1365 -19 q 1299 1 1322 -15 q 1256 44 1275 18 z "},"x":{"ha":1038,"x_min":35,"x_max":1007,"o":"m 56 -75 q 259 151 154 15 q 468 439 364 288 q 349 589 407 514 q 240 736 292 664 q 146 874 189 808 q 71 993 103 939 q 63 1041 57 1018 q 83 1078 68 1064 q 115 1093 97 1092 q 144 1075 133 1094 q 315 822 214 963 q 533 535 415 681 q 642 700 589 618 q 743 857 694 782 q 834 997 792 932 q 911 1110 876 1061 q 944 1128 924 1128 q 980 1118 964 1129 q 1001 1088 996 1107 q 992 1044 1007 1068 q 919 935 961 1000 q 826 792 876 871 q 719 627 775 714 q 603 451 663 540 q 780 249 690 346 q 957 74 869 153 q 978 32 978 56 q 964 -6 978 8 q 925 -22 950 -21 q 869 6 900 -22 q 710 163 794 72 q 538 356 625 253 q 435 210 486 281 q 333 78 383 140 q 237 -37 283 15 q 149 -126 190 -89 q 92 -156 118 -154 q 51 -147 67 -158 q 35 -115 36 -135 q 56 -75 35 -94 z "},"y":{"ha":1040,"x_min":33,"x_max":1008,"o":"m 540 343 q 481 502 529 421 q 364 662 432 583 q 217 813 296 740 q 64 943 138 885 q 36 987 39 964 q 44 1026 33 1010 q 72 1050 54 1043 q 107 1044 90 1057 q 204 967 151 1011 q 310 872 257 922 q 416 768 364 821 q 510 665 468 715 q 581 569 551 614 q 619 492 611 525 q 700 624 660 547 q 778 781 740 700 q 853 938 817 861 q 919 1074 889 1015 q 955 1108 936 1104 q 987 1101 974 1113 q 1004 1065 1000 1089 q 997 1017 1008 1042 q 871 746 933 874 q 744 485 808 618 q 612 206 681 353 q 465 -119 543 60 q 432 -155 453 -149 q 393 -153 411 -161 q 365 -127 375 -144 q 361 -92 354 -110 q 454 127 406 21 q 540 343 503 233 z "},"z":{"ha":1064,"x_min":32,"x_max":1033,"o":"m 906 11 q 735 42 832 36 q 533 43 638 47 q 328 28 429 39 q 143 7 226 17 q 86 13 114 3 q 45 43 58 22 q 39 95 32 64 q 85 165 46 126 q 197 274 132 213 q 335 406 261 336 q 490 553 410 476 q 648 706 571 629 q 795 858 725 783 q 921 1001 865 933 q 705 961 811 972 q 496 949 599 950 q 292 955 393 949 q 92 967 192 961 q 46 985 56 968 q 42 1021 36 1001 q 67 1056 49 1040 q 106 1071 85 1072 q 233 1058 169 1067 q 380 1047 296 1050 q 581 1052 464 1044 q 869 1088 697 1060 q 967 1095 931 1097 q 1019 1076 1004 1093 q 1028 1028 1033 1060 q 999 946 1022 996 q 915 831 976 900 q 774 681 854 761 q 602 517 693 601 q 430 357 511 433 q 285 219 349 281 q 199 121 222 157 q 406 142 300 138 q 610 142 513 146 q 790 132 708 139 q 921 118 871 125 q 967 92 953 114 q 979 49 982 71 q 958 14 976 28 q 906 11 939 0 z "},"{":{"ha":346,"x_min":32,"x_max":311,"o":"m 225 572 q 183 551 203 560 q 207 539 194 544 q 233 525 219 533 q 254 510 244 519 q 267 488 264 500 q 265 463 271 476 q 240 435 260 450 q 206 405 224 422 q 174 366 189 388 q 151 316 160 344 q 142 251 142 288 q 151 193 142 225 q 181 130 161 161 q 228 69 200 99 q 290 18 256 40 q 310 -10 311 6 q 296 -39 310 -26 q 261 -56 282 -51 q 221 -47 240 -60 q 156 5 190 -28 q 95 79 122 38 q 52 169 68 121 q 40 267 36 217 q 75 383 47 338 q 139 464 103 428 q 103 482 119 474 q 75 499 86 490 q 58 519 65 506 q 48 547 50 532 q 51 578 46 563 q 75 604 57 593 q 99 618 86 611 q 126 633 111 625 q 67 715 90 671 q 36 831 43 760 q 50 932 32 881 q 97 1028 68 983 q 162 1110 126 1074 q 228 1165 197 1146 q 266 1171 247 1178 q 295 1148 285 1164 q 304 1113 306 1132 q 282 1081 303 1093 q 219 1029 247 1058 q 173 969 192 1000 q 144 906 154 938 q 135 846 135 874 q 144 783 135 811 q 167 732 153 754 q 198 692 181 710 q 232 663 215 675 q 256 635 251 649 q 258 609 261 621 q 246 588 256 597 q 225 572 236 579 z "},"|":{"ha":235,"x_min":56,"x_max":179,"o":"m 57 58 q 63 294 61 165 q 67 556 65 422 q 72 817 69 689 q 83 1051 75 946 q 100 1086 85 1075 q 133 1096 115 1097 q 165 1080 150 1094 q 179 1038 179 1065 q 174 799 179 931 q 163 535 168 668 q 156 281 158 403 q 157 69 153 158 q 144 12 160 29 q 108 -4 128 -6 q 72 14 89 -3 q 57 58 56 31 z "},"}":{"ha":346,"x_min":35,"x_max":314,"o":"m 121 572 q 100 588 110 579 q 88 609 90 597 q 90 635 85 621 q 114 663 96 649 q 148 692 131 675 q 179 732 165 710 q 202 783 193 754 q 211 846 211 811 q 201 906 211 874 q 173 969 192 938 q 127 1029 154 1000 q 64 1081 100 1058 q 42 1113 43 1093 q 51 1148 40 1132 q 80 1171 61 1164 q 118 1165 99 1178 q 185 1110 150 1146 q 250 1028 221 1074 q 297 932 279 983 q 310 831 314 881 q 279 715 303 760 q 219 633 256 671 q 247 618 235 625 q 271 604 260 611 q 294 578 289 593 q 298 547 300 563 q 288 519 296 532 q 271 499 281 506 q 243 482 260 490 q 207 464 226 474 q 271 383 243 428 q 306 267 299 338 q 294 169 310 217 q 251 79 278 121 q 190 5 224 38 q 125 -47 157 -28 q 85 -56 106 -60 q 50 -39 64 -51 q 35 -10 36 -26 q 56 18 35 6 q 119 69 92 40 q 165 130 146 99 q 194 193 185 161 q 204 251 204 225 q 195 316 204 288 q 172 366 186 344 q 140 405 157 388 q 106 435 122 422 q 82 463 88 450 q 79 488 76 476 q 92 510 82 500 q 113 525 101 519 q 139 539 126 533 q 163 551 151 544 q 121 572 144 560 z "},"~":{"ha":810,"x_min":33,"x_max":778,"o":"m 300 622 q 208 584 251 618 q 122 492 165 550 q 85 467 104 468 q 52 480 65 467 q 36 516 39 493 q 50 564 33 539 q 113 635 78 604 q 185 686 149 665 q 254 717 222 707 q 304 728 286 728 q 384 697 353 728 q 438 627 415 665 q 479 558 461 589 q 518 526 497 526 q 579 535 554 526 q 625 558 604 543 q 665 594 646 574 q 706 636 683 614 q 733 644 718 649 q 758 626 747 639 q 774 597 769 614 q 768 565 778 579 q 657 462 722 500 q 522 424 592 424 q 456 439 483 424 q 410 476 429 454 q 378 525 390 499 q 353 574 365 551 q 330 610 342 596 q 300 622 318 624 z "},"":{"ha":219,"x_min":33,"x_max":185,"o":"m 58 757 q 74 801 57 785 q 110 819 90 818 q 145 803 129 821 q 158 746 161 786 q 156 565 154 657 q 160 375 157 472 q 168 176 164 278 q 172 -32 172 75 q 158 -74 172 -60 q 126 -90 143 -89 q 93 -81 108 -92 q 76 -46 78 -69 q 66 158 68 60 q 64 355 64 257 q 63 552 64 453 q 58 757 63 651 m 36 903 q 55 967 33 943 q 104 996 76 992 q 157 981 132 1000 q 183 917 182 963 q 163 862 185 882 q 115 839 142 842 q 63 851 88 836 q 36 903 39 867 z "},"":{"ha":929,"x_min":25,"x_max":894,"o":"m 289 75 q 190 81 233 71 q 117 112 147 92 q 68 160 86 132 q 43 221 50 189 q 47 407 25 304 q 119 610 69 510 q 241 800 169 711 q 396 944 313 889 q 399 999 397 972 q 403 1050 400 1025 q 419 1085 404 1074 q 452 1094 435 1096 q 484 1078 469 1093 q 499 1036 499 1064 l 499 999 q 607 1018 554 1018 q 658 999 633 1018 q 700 953 682 981 q 728 896 718 926 q 739 840 739 865 q 726 794 739 810 q 699 778 714 779 q 668 792 683 778 q 647 835 653 806 q 642 861 644 847 q 635 886 640 875 q 619 904 629 897 q 592 911 610 911 q 544 904 568 911 q 496 886 519 897 q 490 722 494 807 q 483 552 486 638 q 476 385 479 467 q 474 229 474 303 q 572 277 522 250 q 666 338 621 304 q 749 410 711 371 q 814 494 788 449 q 851 526 832 526 q 882 506 871 525 q 894 459 893 488 q 875 406 894 431 q 694 233 799 308 q 475 117 589 158 q 475 92 475 104 q 476 68 475 79 q 463 10 479 28 q 428 -6 447 -7 q 392 13 408 -4 q 376 57 375 29 q 377 72 376 64 q 378 88 378 79 q 289 75 332 76 m 140 254 q 185 188 149 208 q 294 178 222 167 q 335 185 314 181 q 381 197 357 190 q 385 501 383 340 q 392 813 388 661 q 284 688 335 760 q 198 540 233 617 q 147 389 163 464 q 140 254 131 314 z "},"":{"ha":1000,"x_min":32,"x_max":965,"o":"m 350 -4 q 261 -10 294 -7 q 210 -3 228 -12 q 185 35 192 7 q 179 124 179 64 q 179 221 179 175 q 179 312 179 267 q 181 403 179 357 q 183 500 182 450 q 153 494 168 497 q 125 489 139 492 q 68 494 92 482 q 38 524 44 506 q 45 563 32 543 q 99 590 58 582 q 144 599 122 594 q 188 607 167 603 q 191 702 188 649 q 206 811 194 756 q 240 919 218 867 q 299 1011 263 971 q 388 1074 335 1051 q 517 1094 442 1097 q 669 1059 592 1090 q 814 979 747 1028 q 851 935 847 954 q 845 904 856 917 q 817 888 835 892 q 792 889 800 883 q 733 924 767 906 q 664 958 700 943 q 589 984 628 974 q 513 994 550 994 q 403 957 443 993 q 341 867 363 921 q 313 749 319 813 q 303 633 306 686 q 458 653 378 635 q 635 692 539 671 q 692 687 668 699 q 722 656 715 675 q 715 618 728 638 q 661 590 701 599 q 560 569 611 581 q 462 547 510 558 q 371 527 414 536 q 293 513 328 518 q 286 311 288 417 q 283 101 285 206 q 427 112 358 104 q 566 133 496 119 q 713 167 636 147 q 881 215 789 188 q 945 219 925 229 q 964 188 965 208 q 941 145 963 168 q 881 110 919 122 q 756 70 813 89 q 640 37 699 51 q 512 12 581 22 q 350 -4 443 1 z "},"":{"ha":496,"x_min":33,"x_max":461,"o":"m 154 444 q 102 413 125 414 q 67 428 79 413 q 54 468 54 444 q 71 510 54 492 q 97 539 82 524 q 128 569 113 554 q 113 622 117 594 q 118 676 110 649 q 94 700 106 689 q 71 721 82 711 q 37 772 40 747 q 47 811 33 797 q 88 824 61 825 q 146 796 115 822 q 167 778 156 788 q 189 757 178 768 q 253 772 221 774 q 314 756 286 769 q 338 780 328 769 q 357 801 349 790 q 408 835 383 832 q 447 825 433 839 q 460 784 461 811 q 432 726 458 757 q 390 681 415 706 q 409 617 407 651 q 394 551 411 583 l 428 518 q 459 466 458 489 q 444 431 460 443 q 405 418 429 418 q 363 435 381 418 q 339 456 351 444 q 313 482 326 468 q 256 474 285 471 q 201 492 228 476 q 175 467 188 478 q 154 444 163 456 m 306 578 q 322 622 326 599 q 299 660 317 644 q 256 681 281 676 q 214 669 232 686 q 199 626 196 653 q 217 581 201 600 q 256 558 232 563 q 306 578 281 553 z "},"":{"ha":1013,"x_min":32,"x_max":982,"o":"m 967 1036 q 892 927 936 992 q 794 784 847 863 q 683 619 742 706 q 565 443 625 532 l 565 397 q 658 400 613 399 q 747 404 704 401 q 802 394 783 407 q 821 363 821 381 q 803 328 821 344 q 747 310 785 313 q 646 303 689 306 q 565 301 603 301 l 565 218 q 658 221 613 219 q 747 225 704 222 q 802 214 783 228 q 821 183 821 200 q 803 149 821 165 q 747 129 785 132 q 646 124 689 125 q 565 122 603 122 l 565 47 q 550 8 565 21 q 516 -4 535 -4 q 481 6 497 -4 q 465 36 465 17 q 463 82 464 60 q 463 124 463 104 q 395 123 431 124 q 313 119 360 122 q 260 132 275 118 q 248 164 246 146 q 265 197 250 182 q 301 214 281 213 q 374 216 333 215 q 463 217 415 217 l 463 303 q 394 302 431 303 q 313 299 358 301 q 260 312 275 297 q 248 344 246 326 q 265 378 250 363 q 301 394 281 393 q 374 396 333 396 q 461 396 414 396 q 460 411 461 403 q 460 428 460 419 q 338 578 399 503 q 223 726 278 654 q 123 865 168 799 q 46 985 78 931 q 38 1033 32 1010 q 58 1069 43 1056 q 90 1085 72 1083 q 119 1067 108 1086 q 290 813 189 954 q 508 526 390 672 q 617 692 564 610 q 718 849 669 774 q 809 988 767 924 q 886 1101 851 1053 q 919 1120 899 1119 q 955 1110 939 1121 q 976 1079 971 1099 q 967 1036 982 1060 z "},"":{"ha":193,"x_min":35,"x_max":158,"o":"m 138 521 q 135 411 136 475 q 133 282 133 347 q 134 159 133 217 q 136 69 135 101 q 123 12 139 29 q 88 -4 107 -6 q 51 14 68 -3 q 36 58 35 31 q 39 155 38 94 q 42 281 40 215 q 44 412 43 347 q 44 521 44 476 l 138 521 m 46 621 q 48 750 47 696 q 51 851 49 804 q 56 945 53 899 q 63 1051 58 992 q 79 1086 64 1075 q 112 1096 94 1097 q 144 1080 129 1094 q 158 1038 158 1065 q 156 933 158 979 q 151 842 154 888 q 146 744 149 796 q 140 621 143 692 l 46 621 z "},"":{"ha":754,"x_min":33,"x_max":728,"o":"m 413 358 q 333 348 375 354 q 250 339 292 342 q 171 341 208 336 q 105 363 133 346 q 60 414 76 381 q 44 503 43 447 q 65 578 46 543 q 117 640 83 613 q 55 705 76 664 q 36 807 33 746 q 83 921 39 871 q 206 999 128 971 q 389 1028 283 1026 q 618 999 494 1031 q 659 972 647 992 q 667 933 671 953 q 647 902 664 914 q 601 897 629 890 q 511 915 561 908 q 410 921 461 921 q 310 914 358 921 q 225 890 263 907 q 165 847 188 874 q 143 779 143 819 q 176 728 143 742 q 252 712 208 714 q 339 715 296 710 q 404 722 382 721 q 506 724 449 726 q 611 702 563 721 q 690 644 660 683 q 707 535 719 604 q 676 472 700 500 q 615 422 653 444 q 697 348 667 394 q 715 231 728 301 q 657 145 706 178 q 535 94 608 113 q 371 69 461 75 q 189 61 281 63 q 106 78 131 60 q 84 119 82 97 q 108 158 86 140 q 165 175 131 176 q 326 173 247 171 q 469 184 406 175 q 572 211 533 193 q 611 257 611 229 q 590 297 611 278 q 539 331 569 317 q 474 353 508 346 q 413 358 439 361 m 151 475 q 167 454 151 461 q 206 445 182 447 q 260 445 231 443 q 317 451 290 447 q 367 458 344 454 q 399 463 389 461 q 545 500 488 474 q 603 563 603 526 q 594 587 603 575 q 569 601 585 599 q 430 616 494 619 q 292 604 365 613 q 190 563 229 597 q 151 475 150 528 z "},"":{"ha":478,"x_min":35,"x_max":443,"o":"m 257 1207 q 280 1288 253 1257 q 342 1323 307 1318 q 408 1304 378 1328 q 442 1224 439 1281 q 416 1156 443 1181 q 355 1127 389 1131 q 291 1143 321 1124 q 257 1207 261 1163 m 35 1217 q 63 1287 35 1261 q 126 1316 92 1313 q 190 1296 160 1319 q 224 1215 219 1272 q 197 1147 226 1169 q 132 1125 168 1125 q 65 1148 96 1125 q 35 1217 35 1171 z "},"":{"ha":1769,"x_min":29,"x_max":1735,"o":"m 567 -122 q 350 -87 443 -121 q 192 6 257 -53 q 91 141 128 64 q 42 305 54 218 q 40 484 29 392 q 83 664 51 576 q 193 869 122 772 q 365 1040 264 967 q 597 1155 467 1113 q 885 1197 726 1197 q 1089 1184 986 1197 q 1286 1140 1192 1171 q 1463 1060 1381 1110 q 1605 940 1544 1011 q 1700 772 1665 868 q 1735 553 1735 676 q 1685 333 1735 431 q 1549 159 1635 235 q 1349 29 1464 83 q 1103 -59 1233 -25 q 836 -108 974 -93 q 567 -122 699 -124 m 188 639 q 142 390 142 506 q 192 188 143 275 q 337 47 240 100 q 576 -14 433 -7 q 786 -10 672 -19 q 1015 26 900 0 q 1238 97 1129 53 q 1431 207 1346 142 q 1571 360 1517 272 q 1632 560 1625 447 q 1608 736 1638 658 q 1523 874 1578 814 q 1393 976 1468 933 q 1234 1047 1318 1019 q 1062 1086 1150 1074 q 892 1099 974 1099 q 669 1066 779 1099 q 464 974 558 1033 q 297 829 369 914 q 188 639 225 744 m 690 63 q 592 69 635 58 q 518 99 549 79 q 469 148 488 119 q 444 208 451 176 q 444 369 429 282 q 497 546 460 457 q 591 718 535 635 q 715 865 647 801 q 858 968 783 929 q 1008 1006 933 1007 q 1059 987 1035 1006 q 1101 941 1083 968 q 1130 883 1119 914 q 1140 828 1140 853 q 1128 782 1140 797 q 1100 766 1115 767 q 1069 779 1085 765 q 1049 822 1054 793 q 1044 849 1046 835 q 1036 874 1042 863 q 1021 892 1031 885 q 993 899 1011 899 q 881 865 939 899 q 770 778 824 832 q 671 654 717 724 q 593 512 625 585 q 547 368 561 439 q 542 242 532 297 q 587 175 550 196 q 696 165 624 154 q 829 199 756 174 q 976 264 903 224 q 1113 359 1049 304 q 1215 482 1176 414 q 1253 513 1233 514 q 1283 494 1272 513 q 1295 447 1294 475 q 1276 393 1296 418 q 1153 267 1222 325 q 1008 165 1085 208 q 849 94 931 121 q 690 63 768 68 z "},"":{"ha":496,"x_min":0,"x_max":0,"o":""},"":{"ha":828,"x_min":33,"x_max":794,"o":"m 83 228 q 44 260 54 242 q 36 298 33 279 q 52 334 39 317 q 83 361 65 351 q 152 401 126 386 q 194 425 178 415 q 224 442 211 435 q 255 461 238 450 q 299 488 272 472 q 372 531 326 504 q 405 532 389 540 q 430 508 421 524 q 438 474 439 492 q 418 444 436 456 l 169 294 q 278 240 218 271 q 419 179 338 208 q 442 153 440 172 q 435 117 444 135 q 408 89 425 100 q 374 86 392 78 q 293 124 329 107 q 224 159 257 142 q 157 193 190 176 q 83 228 124 210 m 433 228 q 394 260 404 242 q 386 298 383 279 q 402 334 389 317 q 433 361 415 351 q 502 401 476 386 q 544 425 528 415 q 574 442 561 435 q 605 461 588 450 q 649 488 622 472 q 722 531 676 504 q 755 532 739 540 q 780 508 771 524 q 788 474 789 492 q 768 444 786 456 l 519 294 q 628 240 568 271 q 769 179 688 208 q 792 153 790 172 q 785 117 794 135 q 758 89 775 100 q 724 86 742 78 q 643 124 679 107 q 574 159 607 142 q 507 193 540 176 q 433 228 474 210 z "},"":{"ha":1769,"x_min":29,"x_max":1735,"o":"m 567 -122 q 350 -87 443 -121 q 192 6 257 -53 q 91 141 128 64 q 42 305 54 218 q 40 484 29 392 q 83 664 51 576 q 193 869 122 772 q 365 1040 264 967 q 597 1155 467 1113 q 885 1197 726 1197 q 1089 1184 986 1197 q 1286 1140 1192 1171 q 1463 1060 1381 1110 q 1605 940 1544 1011 q 1700 772 1665 868 q 1735 553 1735 676 q 1685 333 1735 431 q 1549 159 1635 235 q 1349 29 1464 83 q 1103 -59 1233 -25 q 836 -108 974 -93 q 567 -122 699 -124 m 188 639 q 142 390 142 506 q 192 188 143 275 q 337 47 240 100 q 576 -14 433 -7 q 786 -10 672 -19 q 1015 26 900 0 q 1238 97 1129 53 q 1431 207 1346 142 q 1571 360 1517 272 q 1632 560 1625 447 q 1608 736 1638 658 q 1523 874 1578 814 q 1393 976 1468 933 q 1234 1047 1318 1019 q 1062 1086 1150 1074 q 892 1099 974 1099 q 669 1066 779 1099 q 464 974 558 1033 q 297 829 369 914 q 188 639 225 744 m 403 68 q 419 417 411 272 q 435 660 426 561 q 453 817 444 758 q 474 906 463 875 q 497 949 485 938 q 522 963 508 960 q 662 987 582 975 q 827 1006 742 999 q 997 1011 913 1013 q 1149 994 1082 1010 q 1260 944 1217 978 q 1306 854 1303 911 q 1299 790 1307 829 q 1263 703 1290 750 q 1184 606 1235 656 q 1051 513 1133 556 q 851 435 969 469 q 571 388 733 401 q 669 235 601 283 q 826 174 738 186 q 1017 181 915 163 q 1219 229 1119 199 q 1266 226 1244 236 q 1297 199 1288 217 q 1297 164 1306 182 q 1251 136 1289 146 q 1001 85 1107 99 q 817 78 894 72 q 689 103 740 83 q 603 154 638 124 q 549 222 569 185 q 515 296 529 258 q 504 182 507 243 q 500 68 501 121 q 484 31 500 47 q 449 11 468 15 q 416 19 431 7 q 403 68 401 32 m 1186 826 q 1166 878 1188 858 q 1107 907 1144 897 q 1020 918 1069 917 q 917 916 971 919 q 808 905 863 913 q 705 890 753 897 q 619 874 657 882 q 561 863 581 867 q 542 761 549 813 q 532 660 535 710 q 529 565 529 610 q 531 482 529 519 q 798 530 689 501 q 980 592 907 558 q 1094 663 1053 626 q 1155 731 1135 699 q 1181 788 1175 763 q 1186 826 1186 813 z "},"":{"ha":549,"x_min":33,"x_max":513,"o":"m 108 1131 q 50 1145 67 1129 q 35 1181 33 1161 q 55 1218 38 1201 q 96 1236 72 1235 q 185 1238 139 1239 q 275 1238 231 1238 q 360 1238 319 1238 q 432 1239 400 1238 q 492 1226 472 1242 q 513 1192 513 1211 q 492 1154 513 1172 q 432 1133 472 1136 q 269 1131 356 1128 q 108 1131 183 1133 z "},"":{"ha":353,"x_min":35,"x_max":318,"o":"m 179 765 q 97 788 129 765 q 49 844 64 811 q 36 917 35 878 q 53 991 38 957 q 101 1047 69 1025 q 176 1068 132 1068 q 256 1044 225 1067 q 303 988 288 1021 q 317 915 318 954 q 301 843 317 876 q 256 788 286 810 q 179 765 225 765 m 176 853 q 219 873 206 853 q 231 917 232 893 q 215 960 229 940 q 176 982 201 981 q 135 963 151 983 q 117 919 119 943 q 128 874 114 894 q 176 853 142 853 z "},"":{"ha":621,"x_min":33,"x_max":585,"o":"m 108 501 q 50 516 67 500 q 35 552 33 532 q 55 589 38 572 q 96 607 72 606 q 167 608 128 608 q 247 608 206 608 q 248 692 247 653 q 246 756 249 731 q 258 816 243 796 q 293 836 274 836 q 331 816 313 836 q 351 756 349 796 q 354 688 354 726 q 354 608 354 650 q 439 608 400 608 q 504 610 478 607 q 565 597 544 613 q 585 563 585 582 q 565 525 585 543 q 504 504 544 507 q 435 501 474 501 q 354 501 397 501 q 353 424 354 461 q 354 360 353 388 q 340 301 356 318 q 303 287 324 285 q 267 306 283 289 q 249 347 250 324 q 247 419 247 379 q 247 501 247 458 q 172 502 207 501 q 108 501 136 503 m 143 136 q 85 151 101 135 q 70 187 68 167 q 90 224 72 207 q 131 242 107 240 q 219 244 174 244 q 310 243 265 243 q 394 243 354 243 q 467 244 435 243 q 527 232 507 247 q 547 197 547 217 q 527 160 547 178 q 467 139 507 142 q 304 136 390 133 q 143 136 218 139 z "},"":{"ha":519,"x_min":29,"x_max":485,"o":"m 319 767 q 371 842 353 801 q 390 920 389 883 q 371 986 390 957 q 308 1026 351 1015 q 245 1031 274 1036 q 193 1010 217 1026 q 149 969 169 994 q 108 913 128 944 q 90 900 101 901 q 70 905 79 899 q 58 923 61 911 q 63 950 54 935 q 106 1010 82 982 q 160 1059 129 1039 q 228 1088 190 1079 q 310 1089 265 1097 q 412 1036 378 1076 q 451 943 446 996 q 437 833 457 890 q 376 732 417 776 q 315 677 354 707 q 235 617 275 647 q 163 558 194 586 q 122 510 131 531 q 193 521 146 515 q 294 527 240 526 q 397 522 347 528 q 476 499 447 515 q 483 486 481 496 q 483 466 485 476 q 475 449 481 456 q 458 444 469 442 q 364 463 410 458 q 272 465 318 467 q 179 457 226 464 q 81 440 132 450 q 38 456 47 433 q 47 515 29 479 q 100 583 64 549 q 177 649 136 617 q 258 712 218 682 q 319 767 297 742 z "},"":{"ha":443,"x_min":35,"x_max":408,"o":"m 46 472 q 36 488 38 476 q 39 511 35 500 q 51 529 43 522 q 71 529 60 536 q 156 494 108 507 q 247 487 204 482 q 317 517 289 492 q 344 597 346 543 q 316 674 343 650 q 251 706 289 699 q 171 707 213 713 q 97 694 129 701 q 76 699 83 692 q 66 718 68 707 q 67 740 64 729 q 78 751 71 750 q 153 783 110 758 q 238 840 197 807 q 308 909 279 872 q 336 975 336 946 q 320 1017 336 1004 q 279 1031 304 1029 q 224 1027 254 1033 q 164 1012 193 1021 q 111 994 135 1003 q 75 981 88 985 q 51 981 61 976 q 38 995 40 986 q 40 1016 35 1004 q 64 1038 46 1028 q 183 1081 122 1067 q 292 1090 243 1096 q 371 1054 342 1083 q 394 967 400 1025 q 372 896 392 928 q 328 839 353 864 q 283 797 304 814 q 253 772 261 779 q 374 706 340 753 q 408 596 408 660 q 378 498 408 538 q 299 440 349 458 q 183 430 249 422 q 46 472 117 438 z "},"":{"ha":435,"x_min":35,"x_max":403,"o":"m 357 1324 q 243 1231 304 1283 q 124 1136 182 1178 q 81 1124 103 1121 q 47 1140 60 1126 q 36 1175 35 1154 q 64 1217 38 1196 q 133 1272 101 1247 q 193 1319 164 1296 q 252 1366 222 1342 q 317 1421 282 1390 q 362 1438 340 1440 q 393 1418 383 1435 q 397 1376 403 1401 q 357 1324 390 1350 z "},"":{"ha":936,"x_min":31,"x_max":901,"o":"m 693 981 q 689 517 693 747 q 699 53 685 286 q 685 -5 701 13 q 648 -21 668 -22 q 610 -3 628 -19 q 594 42 593 14 q 594 277 600 149 q 586 540 589 406 q 452 557 521 549 q 317 582 383 565 q 190 633 246 600 q 99 706 135 665 q 47 792 63 746 q 39 883 31 839 q 69 953 46 919 q 137 1014 93 986 q 244 1061 181 1042 q 393 1089 307 1081 q 504 1096 449 1094 q 610 1096 560 1097 q 701 1090 660 1094 q 769 1082 743 1086 q 819 1071 796 1078 q 861 1052 843 1064 q 890 1023 879 1040 q 900 981 900 1006 q 899 756 900 864 q 897 536 897 647 q 896 305 896 425 q 900 43 896 185 q 885 -14 901 -1 q 850 -22 869 -26 q 814 -2 831 -18 q 797 28 797 14 l 783 971 q 745 978 768 979 q 693 981 722 976 z "},"":{"ha":257,"x_min":33,"x_max":224,"o":"m 38 556 q 60 636 33 606 q 123 672 88 667 q 189 653 158 676 q 222 572 219 629 q 197 504 224 529 q 135 476 169 479 q 72 492 101 472 q 38 556 42 511 z "},"":{"ha":357,"x_min":35,"x_max":321,"o":"m 217 -186 q 203 -165 217 -168 q 169 -162 189 -161 q 127 -165 150 -164 q 85 -159 104 -167 q 52 -129 65 -151 q 38 -62 39 -107 l 36 18 q 51 61 36 47 q 83 75 65 75 q 117 63 101 75 q 133 26 132 50 l 136 -56 q 193 -65 161 -62 q 253 -78 225 -67 q 301 -117 282 -89 q 321 -204 321 -146 q 307 -243 321 -222 q 265 -282 293 -264 q 193 -313 236 -300 q 90 -328 150 -326 q 55 -313 69 -328 q 38 -281 40 -299 q 46 -249 35 -264 q 85 -233 57 -233 q 188 -216 158 -233 q 217 -186 217 -199 z "},"":{"ha":292,"x_min":33,"x_max":257,"o":"m 174 469 q 183 742 176 607 q 189 1014 189 876 q 131 956 151 975 q 92 915 111 938 q 67 901 79 903 q 45 908 54 900 q 35 928 36 915 q 44 954 33 940 q 65 977 50 961 q 101 1013 81 993 q 144 1051 121 1032 q 189 1082 168 1069 q 242 1092 226 1106 q 256 1049 257 1079 q 244 763 249 904 q 233 469 240 621 q 224 451 233 458 q 203 442 214 443 q 183 447 192 442 q 174 469 174 453 z "},"":{"ha":522,"x_min":0,"x_max":0,"o":""},"":{"ha":828,"x_min":33,"x_max":794,"o":"m 744 228 q 672 193 706 210 q 604 159 638 176 q 535 124 571 142 q 454 86 499 107 q 419 89 436 78 q 393 117 403 100 q 385 153 383 135 q 408 179 388 172 q 550 240 490 208 q 658 294 610 271 l 410 444 q 390 474 392 456 q 398 508 389 492 q 423 532 407 524 q 456 531 439 540 q 528 488 501 504 q 573 461 556 472 q 603 442 590 450 q 633 425 617 435 q 676 401 650 415 q 744 361 701 386 q 776 334 763 351 q 792 298 789 317 q 784 260 794 279 q 744 228 774 242 m 394 228 q 322 193 356 210 q 254 159 288 176 q 185 124 221 142 q 104 86 149 107 q 69 89 86 78 q 43 117 53 100 q 35 153 33 135 q 58 179 38 172 q 200 240 140 208 q 308 294 260 271 l 60 444 q 40 474 42 456 q 48 508 39 492 q 73 532 57 524 q 106 531 89 540 q 178 488 151 504 q 223 461 206 472 q 253 442 240 450 q 283 425 267 435 q 326 401 300 415 q 394 361 351 386 q 426 334 413 351 q 442 298 439 317 q 434 260 444 279 q 394 228 424 242 z "},"":{"ha":804,"x_min":35,"x_max":772,"o":"m 497 718 q 499 628 497 676 q 497 539 501 579 q 478 478 493 501 q 435 449 463 454 q 376 431 408 444 q 309 397 343 417 q 244 353 275 378 q 188 301 213 329 q 133 178 131 240 q 158 107 135 136 q 215 58 181 78 q 288 26 249 38 q 361 11 328 15 q 454 11 408 4 q 539 39 500 18 q 624 110 588 67 q 689 211 661 154 q 709 224 694 224 q 738 217 724 224 q 763 200 753 211 q 768 178 772 189 q 687 33 736 86 q 579 -50 638 -21 q 476 -84 532 -74 q 361 -90 421 -94 q 248 -67 306 -86 q 144 -15 190 -49 q 69 66 99 18 q 36 178 39 114 q 56 281 35 229 q 119 379 76 333 q 244 478 172 438 q 390 543 315 518 q 394 588 393 563 q 396 638 396 613 q 396 688 396 664 q 396 726 396 711 q 413 758 397 744 q 448 774 429 771 q 482 764 467 776 q 497 718 497 751 m 508 943 q 490 880 511 904 q 440 851 468 856 q 388 865 413 847 q 361 929 364 883 q 381 985 360 965 q 430 1008 403 1006 q 481 995 457 1011 q 508 943 506 979 z "},"":{"ha":1108,"x_min":18,"x_max":1078,"o":"m 806 1071 q 827 1091 813 1082 q 856 1099 842 1100 q 883 1083 871 1097 q 897 1031 894 1068 q 919 779 906 897 q 952 548 932 661 q 1001 319 972 435 q 1068 75 1029 204 q 1068 26 1078 44 q 1041 4 1058 8 q 1004 10 1024 0 q 975 46 985 19 q 947 126 961 82 q 918 217 932 169 q 892 310 904 264 q 871 397 879 357 q 733 349 806 369 q 593 312 660 328 q 473 285 526 296 q 390 267 419 275 q 308 169 347 218 q 234 76 268 121 q 172 -6 200 32 q 124 -69 144 -43 q 78 -99 101 -99 q 39 -85 54 -100 q 21 -47 24 -71 q 39 0 18 -22 q 319 331 201 176 q 526 620 438 486 q 680 867 614 754 q 806 1071 746 979 m 806 879 q 721 750 758 813 q 647 628 683 688 q 573 510 611 568 q 488 393 535 451 q 560 408 515 399 q 655 433 604 418 q 755 466 706 447 q 842 508 804 485 l 806 879 m 633 1324 q 594 1376 600 1350 q 597 1418 588 1401 q 629 1438 607 1435 q 674 1421 651 1440 q 739 1366 710 1390 q 797 1319 768 1342 q 858 1272 826 1296 q 926 1217 889 1247 q 954 1175 953 1196 q 943 1140 956 1154 q 909 1124 931 1126 q 867 1136 888 1121 q 747 1231 808 1178 q 633 1324 686 1283 z "},"":{"ha":1108,"x_min":18,"x_max":1078,"o":"m 806 1071 q 827 1091 813 1082 q 856 1099 842 1100 q 883 1083 871 1097 q 897 1031 894 1068 q 919 779 906 897 q 952 548 932 661 q 1001 319 972 435 q 1068 75 1029 204 q 1068 26 1078 44 q 1041 4 1058 8 q 1004 10 1024 0 q 975 46 985 19 q 947 126 961 82 q 918 217 932 169 q 892 310 904 264 q 871 397 879 357 q 733 349 806 369 q 593 312 660 328 q 473 285 526 296 q 390 267 419 275 q 308 169 347 218 q 234 76 268 121 q 172 -6 200 32 q 124 -69 144 -43 q 78 -99 101 -99 q 39 -85 54 -100 q 21 -47 24 -71 q 39 0 18 -22 q 319 331 201 176 q 526 620 438 486 q 680 867 614 754 q 806 1071 746 979 m 806 879 q 721 750 758 813 q 647 628 683 688 q 573 510 611 568 q 488 393 535 451 q 560 408 515 399 q 655 433 604 418 q 755 466 706 447 q 842 508 804 485 l 806 879 m 890 1324 q 776 1231 838 1283 q 657 1136 715 1178 q 615 1124 636 1121 q 581 1140 593 1126 q 569 1175 568 1154 q 597 1217 571 1196 q 666 1272 635 1247 q 726 1319 697 1296 q 785 1366 756 1342 q 850 1421 815 1390 q 895 1438 874 1440 q 926 1418 917 1435 q 930 1376 936 1401 q 890 1324 924 1350 z "},"":{"ha":1108,"x_min":18,"x_max":1078,"o":"m 806 1071 q 827 1091 813 1082 q 856 1099 842 1100 q 883 1083 871 1097 q 897 1031 894 1068 q 919 779 906 897 q 952 548 932 661 q 1001 319 972 435 q 1068 75 1029 204 q 1068 26 1078 44 q 1041 4 1058 8 q 1004 10 1024 0 q 975 46 985 19 q 947 126 961 82 q 918 217 932 169 q 892 310 904 264 q 871 397 879 357 q 733 349 806 369 q 593 312 660 328 q 473 285 526 296 q 390 267 419 275 q 308 169 347 218 q 234 76 268 121 q 172 -6 200 32 q 124 -69 144 -43 q 78 -99 101 -99 q 39 -85 54 -100 q 21 -47 24 -71 q 39 0 18 -22 q 319 331 201 176 q 526 620 438 486 q 680 867 614 754 q 806 1071 746 979 m 806 879 q 721 750 758 813 q 647 628 683 688 q 573 510 611 568 q 488 393 535 451 q 560 408 515 399 q 655 433 604 418 q 755 466 706 447 q 842 508 804 485 l 806 879 m 756 1335 q 785 1362 767 1354 q 821 1368 803 1369 q 855 1358 839 1367 q 878 1338 871 1350 q 917 1269 903 1293 q 941 1230 932 1244 q 956 1206 950 1215 q 969 1183 963 1196 q 967 1158 976 1172 q 941 1133 957 1143 q 908 1120 925 1122 q 885 1131 892 1118 l 817 1254 q 786 1190 797 1213 q 769 1157 775 1168 q 760 1142 763 1146 q 756 1131 758 1138 q 733 1115 750 1117 q 700 1119 717 1113 q 672 1136 683 1125 q 665 1160 661 1147 q 673 1180 668 1168 q 687 1212 678 1192 q 713 1261 696 1232 q 756 1335 729 1290 z "},"":{"ha":1108,"x_min":18,"x_max":1232,"o":"m 806 1071 q 827 1091 813 1082 q 856 1099 842 1100 q 883 1083 871 1097 q 897 1031 894 1068 q 919 779 906 897 q 952 548 932 661 q 1001 319 972 435 q 1068 75 1029 204 q 1068 26 1078 44 q 1041 4 1058 8 q 1004 10 1024 0 q 975 46 985 19 q 947 126 961 82 q 918 217 932 169 q 892 310 904 264 q 871 397 879 357 q 733 349 806 369 q 593 312 660 328 q 473 285 526 296 q 390 267 419 275 q 308 169 347 218 q 234 76 268 121 q 172 -6 200 32 q 124 -69 144 -43 q 78 -99 101 -99 q 39 -85 54 -100 q 21 -47 24 -71 q 39 0 18 -22 q 319 331 201 176 q 526 620 438 486 q 680 867 614 754 q 806 1071 746 979 m 806 879 q 721 750 758 813 q 647 628 683 688 q 573 510 611 568 q 488 393 535 451 q 560 408 515 399 q 655 433 604 418 q 755 466 706 447 q 842 508 804 485 l 806 879 m 753 1313 q 661 1274 704 1308 q 575 1182 618 1240 q 538 1158 557 1158 q 505 1170 518 1157 q 489 1206 492 1183 q 503 1254 486 1229 q 566 1325 531 1294 q 638 1376 601 1356 q 707 1408 675 1397 q 757 1418 739 1418 q 837 1387 806 1418 q 891 1317 868 1356 q 932 1248 914 1279 q 971 1217 950 1217 q 1032 1225 1007 1217 q 1078 1249 1057 1233 q 1117 1284 1099 1264 q 1158 1326 1136 1304 q 1185 1334 1171 1339 q 1211 1317 1200 1329 q 1226 1287 1222 1304 q 1221 1256 1231 1269 q 1110 1152 1175 1190 q 975 1114 1044 1114 q 909 1129 936 1114 q 863 1167 882 1144 q 831 1215 843 1189 q 806 1264 818 1242 q 783 1300 794 1286 q 753 1313 771 1314 z "},"":{"ha":1108,"x_min":18,"x_max":1078,"o":"m 806 1071 q 827 1091 813 1082 q 856 1099 842 1100 q 883 1083 871 1097 q 897 1031 894 1068 q 919 779 906 897 q 952 548 932 661 q 1001 319 972 435 q 1068 75 1029 204 q 1068 26 1078 44 q 1041 4 1058 8 q 1004 10 1024 0 q 975 46 985 19 q 947 126 961 82 q 918 217 932 169 q 892 310 904 264 q 871 397 879 357 q 733 349 806 369 q 593 312 660 328 q 473 285 526 296 q 390 267 419 275 q 308 169 347 218 q 234 76 268 121 q 172 -6 200 32 q 124 -69 144 -43 q 78 -99 101 -99 q 39 -85 54 -100 q 21 -47 24 -71 q 39 0 18 -22 q 319 331 201 176 q 526 620 438 486 q 680 867 614 754 q 806 1071 746 979 m 806 879 q 721 750 758 813 q 647 628 683 688 q 573 510 611 568 q 488 393 535 451 q 560 408 515 399 q 655 433 604 418 q 755 466 706 447 q 842 508 804 485 l 806 879 m 854 1207 q 877 1288 850 1257 q 940 1323 904 1318 q 1006 1304 975 1328 q 1039 1224 1036 1281 q 1013 1156 1040 1181 q 952 1127 986 1131 q 888 1143 918 1124 q 854 1207 858 1163 m 632 1217 q 660 1287 632 1261 q 723 1316 689 1313 q 787 1296 757 1319 q 821 1215 817 1272 q 794 1147 824 1169 q 729 1125 765 1125 q 663 1148 693 1125 q 632 1217 632 1171 z "},"":{"ha":1108,"x_min":18,"x_max":1078,"o":"m 39 0 q 319 331 201 176 q 526 620 438 486 q 680 867 614 754 q 806 1071 746 979 q 742 1106 767 1081 q 708 1165 718 1132 q 703 1235 699 1199 q 724 1302 707 1272 q 770 1351 740 1332 q 842 1369 800 1369 q 916 1350 886 1369 q 962 1301 946 1331 q 981 1237 978 1272 q 976 1169 985 1201 q 944 1110 967 1136 q 888 1074 922 1085 q 897 1031 894 1061 q 919 779 906 897 q 952 548 932 661 q 1001 319 972 435 q 1068 75 1029 204 q 1068 26 1078 44 q 1041 4 1058 8 q 1004 10 1024 0 q 975 46 985 19 q 947 126 961 82 q 918 217 932 169 q 892 310 904 264 q 871 397 879 357 q 733 349 806 369 q 593 312 660 328 q 473 285 526 296 q 390 267 419 275 q 308 169 347 218 q 234 76 268 121 q 172 -6 200 32 q 124 -69 144 -43 q 78 -99 101 -99 q 39 -85 54 -100 q 21 -47 24 -71 q 39 0 18 -22 m 806 879 q 721 750 758 813 q 647 628 683 688 q 573 510 611 568 q 488 393 535 451 q 560 408 515 399 q 655 433 604 418 q 755 466 706 447 q 842 508 804 485 l 806 879 m 842 1154 q 884 1174 871 1154 q 896 1218 897 1194 q 881 1262 894 1242 q 842 1283 867 1282 q 801 1265 817 1285 q 782 1220 785 1244 q 793 1175 779 1196 q 842 1154 807 1154 z "},"":{"ha":1801,"x_min":32,"x_max":1771,"o":"m 819 1071 q 841 1091 826 1082 q 870 1099 856 1100 q 897 1083 885 1097 q 911 1031 908 1068 l 908 1006 q 1089 1030 1000 1019 q 1267 1051 1178 1040 q 1447 1076 1357 1063 q 1633 1108 1538 1089 q 1680 1103 1663 1114 q 1701 1073 1697 1092 q 1692 1034 1704 1054 q 1651 1003 1681 1014 q 1610 996 1649 1001 q 1510 981 1571 990 q 1372 961 1449 972 q 1215 939 1294 950 q 1062 917 1136 928 q 931 897 988 906 q 931 828 931 868 q 930 744 931 788 q 928 656 929 700 q 928 572 928 611 q 987 577 949 572 q 1074 590 1025 582 q 1178 609 1122 599 q 1286 630 1233 619 q 1387 650 1339 640 q 1468 668 1435 660 q 1532 668 1508 676 q 1562 644 1556 660 q 1555 610 1568 628 q 1508 581 1542 592 q 1419 556 1472 569 q 1307 530 1367 543 q 1186 504 1247 517 q 1072 481 1125 492 q 980 463 1019 471 q 924 451 940 456 q 917 356 919 400 q 915 270 915 311 q 917 188 915 229 q 925 100 919 146 q 1347 158 1157 119 q 1679 244 1538 196 q 1722 242 1697 251 q 1758 215 1746 232 q 1763 175 1771 197 q 1707 133 1754 153 q 1615 106 1675 121 q 1481 74 1556 90 q 1324 44 1407 58 q 1165 17 1242 29 q 1025 -3 1089 6 q 924 -15 961 -12 q 866 -13 888 -18 q 833 6 844 -8 q 817 45 821 21 q 810 104 813 69 q 808 236 804 167 q 814 379 811 306 q 690 337 751 354 q 574 306 629 319 q 476 283 519 293 q 404 267 432 274 q 322 169 361 218 q 248 76 282 121 q 186 -6 214 32 q 138 -69 158 -43 q 92 -99 115 -99 q 53 -85 68 -100 q 35 -47 38 -71 q 53 0 32 -22 q 333 331 215 176 q 540 620 451 486 q 694 867 628 754 q 819 1071 760 979 m 817 504 q 825 683 824 593 q 824 861 826 772 l 824 865 q 742 742 781 803 q 664 622 703 681 q 585 505 625 563 q 501 393 546 447 q 567 408 529 399 q 649 431 606 417 q 735 463 692 444 q 817 504 779 481 z "},"":{"ha":1086,"x_min":26,"x_max":1051,"o":"m 326 -10 q 210 -6 260 -15 q 127 25 161 4 q 73 77 93 46 q 44 147 53 108 q 43 340 26 236 q 103 550 60 444 q 213 753 147 656 q 359 926 279 851 q 528 1047 439 1001 q 708 1090 618 1092 q 768 1071 740 1090 q 816 1022 796 1051 q 848 958 836 993 q 860 894 860 924 q 847 840 860 858 q 817 822 833 822 q 784 840 800 822 q 761 892 768 857 q 755 924 758 908 q 745 954 751 940 q 726 976 739 968 q 693 985 714 985 q 558 944 628 985 q 424 838 489 904 q 303 688 360 772 q 209 515 247 603 q 153 341 171 426 q 147 188 135 256 q 201 105 157 132 q 332 90 244 78 q 494 132 404 101 q 674 213 585 163 q 840 329 763 263 q 965 476 918 396 q 1008 516 988 515 q 1040 497 1029 517 q 1050 443 1051 476 q 1025 381 1049 410 q 914 264 976 318 q 783 164 851 210 q 642 83 714 118 q 499 26 569 49 l 501 -56 q 558 -65 526 -62 q 619 -78 590 -67 q 667 -117 647 -89 q 686 -204 686 -146 q 672 -243 686 -222 q 630 -282 658 -264 q 558 -313 601 -300 q 456 -328 515 -326 q 420 -313 435 -328 q 403 -281 406 -299 q 411 -249 400 -264 q 450 -233 422 -233 q 553 -216 524 -233 q 582 -186 582 -199 q 568 -165 582 -168 q 535 -162 554 -161 q 492 -165 515 -164 q 450 -159 469 -167 q 417 -129 431 -151 q 403 -62 403 -107 l 401 1 q 363 -6 382 -3 q 326 -10 344 -8 z "},"":{"ha":1028,"x_min":33,"x_max":997,"o":"m 36 104 q 36 281 33 186 q 43 474 39 375 q 50 671 47 572 q 50 861 53 769 q 49 925 49 900 q 59 967 50 950 q 88 992 68 983 q 143 1007 107 1001 q 322 1031 235 1021 q 497 1052 410 1042 q 674 1076 585 1063 q 860 1108 764 1089 q 906 1103 889 1114 q 927 1073 924 1092 q 919 1034 931 1054 q 878 1003 907 1014 q 836 996 875 1001 q 736 981 797 990 q 598 961 675 972 q 442 939 521 950 q 288 917 363 928 q 157 897 214 906 q 157 828 157 868 q 156 744 157 788 q 155 656 156 700 q 154 572 154 611 q 213 577 175 572 q 300 590 251 582 q 404 609 349 599 q 513 630 460 619 q 613 650 565 640 q 694 668 661 660 q 758 668 735 676 q 788 644 782 660 q 781 610 794 628 q 735 581 768 592 q 646 556 699 569 q 533 530 593 543 q 413 504 474 517 q 299 481 351 492 q 206 463 246 471 q 150 451 167 456 q 144 356 146 400 q 142 270 142 311 q 144 188 142 229 q 151 100 146 146 q 574 158 383 119 q 906 244 764 196 q 948 242 924 251 q 985 215 972 232 q 989 175 997 197 q 933 133 981 153 q 842 106 901 121 q 708 74 782 90 q 551 44 633 58 q 392 17 468 29 q 251 -3 315 6 q 150 -15 188 -12 q 93 -13 114 -18 q 61 6 72 -8 q 45 45 50 21 q 36 104 40 69 m 375 1324 q 335 1376 342 1350 q 339 1418 329 1401 q 371 1438 349 1435 q 415 1421 393 1440 q 481 1366 451 1390 q 539 1319 510 1342 q 599 1272 568 1296 q 668 1217 631 1247 q 696 1175 694 1196 q 685 1140 697 1154 q 651 1124 672 1126 q 608 1136 629 1121 q 489 1231 550 1178 q 375 1324 428 1283 z "},"":{"ha":1028,"x_min":33,"x_max":997,"o":"m 36 104 q 36 281 33 186 q 43 474 39 375 q 50 671 47 572 q 50 861 53 769 q 49 925 49 900 q 59 967 50 950 q 88 992 68 983 q 143 1007 107 1001 q 322 1031 235 1021 q 497 1052 410 1042 q 674 1076 585 1063 q 860 1108 764 1089 q 906 1103 889 1114 q 927 1073 924 1092 q 919 1034 931 1054 q 878 1003 907 1014 q 836 996 875 1001 q 736 981 797 990 q 598 961 675 972 q 442 939 521 950 q 288 917 363 928 q 157 897 214 906 q 157 828 157 868 q 156 744 157 788 q 155 656 156 700 q 154 572 154 611 q 213 577 175 572 q 300 590 251 582 q 404 609 349 599 q 513 630 460 619 q 613 650 565 640 q 694 668 661 660 q 758 668 735 676 q 788 644 782 660 q 781 610 794 628 q 735 581 768 592 q 646 556 699 569 q 533 530 593 543 q 413 504 474 517 q 299 481 351 492 q 206 463 246 471 q 150 451 167 456 q 144 356 146 400 q 142 270 142 311 q 144 188 142 229 q 151 100 146 146 q 574 158 383 119 q 906 244 764 196 q 948 242 924 251 q 985 215 972 232 q 989 175 997 197 q 933 133 981 153 q 842 106 901 121 q 708 74 782 90 q 551 44 633 58 q 392 17 468 29 q 251 -3 315 6 q 150 -15 188 -12 q 93 -13 114 -18 q 61 6 72 -8 q 45 45 50 21 q 36 104 40 69 m 653 1324 q 539 1231 600 1283 q 419 1136 478 1178 q 377 1124 399 1121 q 343 1140 356 1126 q 332 1175 331 1154 q 360 1217 333 1196 q 428 1272 397 1247 q 489 1319 460 1296 q 548 1366 518 1342 q 613 1421 578 1390 q 658 1438 636 1440 q 689 1418 679 1435 q 692 1376 699 1401 q 653 1324 686 1350 z "},"":{"ha":1028,"x_min":33,"x_max":997,"o":"m 36 104 q 36 281 33 186 q 43 474 39 375 q 50 671 47 572 q 50 861 53 769 q 49 925 49 900 q 59 967 50 950 q 88 992 68 983 q 143 1007 107 1001 q 322 1031 235 1021 q 497 1052 410 1042 q 674 1076 585 1063 q 860 1108 764 1089 q 906 1103 889 1114 q 927 1073 924 1092 q 919 1034 931 1054 q 878 1003 907 1014 q 836 996 875 1001 q 736 981 797 990 q 598 961 675 972 q 442 939 521 950 q 288 917 363 928 q 157 897 214 906 q 157 828 157 868 q 156 744 157 788 q 155 656 156 700 q 154 572 154 611 q 213 577 175 572 q 300 590 251 582 q 404 609 349 599 q 513 630 460 619 q 613 650 565 640 q 694 668 661 660 q 758 668 735 676 q 788 644 782 660 q 781 610 794 628 q 735 581 768 592 q 646 556 699 569 q 533 530 593 543 q 413 504 474 517 q 299 481 351 492 q 206 463 246 471 q 150 451 167 456 q 144 356 146 400 q 142 270 142 311 q 144 188 142 229 q 151 100 146 146 q 574 158 383 119 q 906 244 764 196 q 948 242 924 251 q 985 215 972 232 q 989 175 997 197 q 933 133 981 153 q 842 106 901 121 q 708 74 782 90 q 551 44 633 58 q 392 17 468 29 q 251 -3 315 6 q 150 -15 188 -12 q 93 -13 114 -18 q 61 6 72 -8 q 45 45 50 21 q 36 104 40 69 m 451 1335 q 481 1362 463 1354 q 517 1368 499 1369 q 551 1358 535 1367 q 574 1338 567 1350 q 613 1269 599 1293 q 637 1230 628 1244 q 652 1206 646 1215 q 665 1183 658 1196 q 663 1158 672 1172 q 637 1133 653 1143 q 604 1120 621 1122 q 581 1131 588 1118 l 513 1254 q 482 1190 493 1213 q 465 1157 471 1168 q 456 1142 458 1146 q 451 1131 454 1138 q 429 1115 446 1117 q 396 1119 413 1113 q 368 1136 379 1125 q 361 1160 357 1147 q 369 1180 364 1168 q 383 1212 374 1192 q 408 1261 392 1232 q 451 1335 425 1290 z "},"":{"ha":1028,"x_min":33,"x_max":997,"o":"m 36 104 q 36 281 33 186 q 43 474 39 375 q 50 671 47 572 q 50 861 53 769 q 49 925 49 900 q 59 967 50 950 q 88 992 68 983 q 143 1007 107 1001 q 322 1031 235 1021 q 497 1052 410 1042 q 674 1076 585 1063 q 860 1108 764 1089 q 906 1103 889 1114 q 927 1073 924 1092 q 919 1034 931 1054 q 878 1003 907 1014 q 836 996 875 1001 q 736 981 797 990 q 598 961 675 972 q 442 939 521 950 q 288 917 363 928 q 157 897 214 906 q 157 828 157 868 q 156 744 157 788 q 155 656 156 700 q 154 572 154 611 q 213 577 175 572 q 300 590 251 582 q 404 609 349 599 q 513 630 460 619 q 613 650 565 640 q 694 668 661 660 q 758 668 735 676 q 788 644 782 660 q 781 610 794 628 q 735 581 768 592 q 646 556 699 569 q 533 530 593 543 q 413 504 474 517 q 299 481 351 492 q 206 463 246 471 q 150 451 167 456 q 144 356 146 400 q 142 270 142 311 q 144 188 142 229 q 151 100 146 146 q 574 158 383 119 q 906 244 764 196 q 948 242 924 251 q 985 215 972 232 q 989 175 997 197 q 933 133 981 153 q 842 106 901 121 q 708 74 782 90 q 551 44 633 58 q 392 17 468 29 q 251 -3 315 6 q 150 -15 188 -12 q 93 -13 114 -18 q 61 6 72 -8 q 45 45 50 21 q 36 104 40 69 m 532 1207 q 555 1288 528 1257 q 617 1323 582 1318 q 683 1304 653 1328 q 717 1224 714 1281 q 691 1156 718 1181 q 630 1127 664 1131 q 566 1143 596 1124 q 532 1207 536 1163 m 310 1217 q 338 1287 310 1261 q 401 1316 367 1313 q 465 1296 435 1319 q 499 1215 494 1272 q 472 1147 501 1169 q 407 1125 443 1125 q 340 1148 371 1125 q 310 1217 310 1171 z "},"":{"ha":235,"x_min":-68,"x_max":301,"o":"m 57 58 q 63 294 61 165 q 67 556 65 422 q 72 817 69 689 q 83 1051 75 946 q 100 1086 85 1075 q 133 1096 115 1097 q 165 1080 150 1094 q 179 1038 179 1065 q 174 799 179 931 q 163 535 168 668 q 156 281 158 403 q 157 69 153 158 q 144 12 160 29 q 108 -4 128 -6 q 72 14 89 -3 q 57 58 56 31 m -22 1324 q -62 1376 -56 1350 q -58 1418 -68 1401 q -26 1438 -49 1435 q 18 1421 -4 1440 q 83 1366 54 1390 q 142 1319 113 1342 q 202 1272 171 1296 q 271 1217 233 1247 q 299 1175 297 1196 q 288 1140 300 1154 q 253 1124 275 1126 q 211 1136 232 1121 q 92 1231 153 1178 q -22 1324 31 1283 z "},"":{"ha":235,"x_min":-67,"x_max":303,"o":"m 57 58 q 63 294 61 165 q 67 556 65 422 q 72 817 69 689 q 83 1051 75 946 q 100 1086 85 1075 q 133 1096 115 1097 q 165 1080 150 1094 q 179 1038 179 1065 q 174 799 179 931 q 163 535 168 668 q 156 281 158 403 q 157 69 153 158 q 144 12 160 29 q 108 -4 128 -6 q 72 14 89 -3 q 57 58 56 31 m 257 1324 q 143 1231 204 1283 q 24 1136 82 1178 q -19 1124 3 1121 q -53 1140 -40 1126 q -64 1175 -65 1154 q -36 1217 -62 1196 q 33 1272 1 1247 q 93 1319 64 1296 q 152 1366 122 1342 q 217 1421 182 1390 q 262 1438 240 1440 q 293 1418 283 1435 q 297 1376 303 1401 q 257 1324 290 1350 z "},"":{"ha":235,"x_min":-40,"x_max":276,"o":"m 57 58 q 63 294 61 165 q 67 556 65 422 q 72 817 69 689 q 83 1051 75 946 q 100 1086 85 1075 q 133 1096 115 1097 q 165 1080 150 1094 q 179 1038 179 1065 q 174 799 179 931 q 163 535 168 668 q 156 281 158 403 q 157 69 153 158 q 144 12 160 29 q 108 -4 128 -6 q 72 14 89 -3 q 57 58 56 31 m 56 1335 q 85 1362 67 1354 q 121 1368 103 1369 q 155 1358 139 1367 q 178 1338 171 1350 q 217 1269 203 1293 q 241 1230 232 1244 q 256 1206 250 1215 q 269 1183 263 1196 q 267 1158 276 1172 q 241 1133 257 1143 q 208 1120 225 1122 q 185 1131 192 1118 l 117 1254 q 86 1190 97 1213 q 69 1157 75 1168 q 60 1142 63 1146 q 56 1131 58 1138 q 33 1115 50 1117 q 0 1119 17 1113 q -28 1136 -17 1125 q -35 1160 -39 1147 q -27 1180 -32 1168 q -13 1212 -22 1192 q 13 1261 -4 1232 q 56 1335 29 1290 z "},"":{"ha":235,"x_min":-87,"x_max":322,"o":"m 57 58 q 63 294 61 165 q 67 556 65 422 q 72 817 69 689 q 83 1051 75 946 q 100 1086 85 1075 q 133 1096 115 1097 q 165 1080 150 1094 q 179 1038 179 1065 q 174 799 179 931 q 163 535 168 668 q 156 281 158 403 q 157 69 153 158 q 144 12 160 29 q 108 -4 128 -6 q 72 14 89 -3 q 57 58 56 31 m 136 1207 q 159 1288 132 1257 q 222 1323 186 1318 q 288 1304 257 1328 q 321 1224 318 1281 q 295 1156 322 1181 q 234 1127 268 1131 q 170 1143 200 1124 q 136 1207 140 1163 m -86 1217 q -58 1287 -86 1261 q 5 1316 -29 1313 q 69 1296 39 1319 q 103 1215 99 1272 q 76 1147 106 1169 q 11 1125 47 1125 q -56 1148 -25 1125 q -86 1217 -86 1171 z "},"":{"ha":1081,"x_min":-36,"x_max":1053,"o":"m 113 -10 q 60 2 74 -11 q 43 56 46 15 q 39 160 40 101 q 37 287 38 219 q 37 426 36 354 q 38 571 38 499 q -20 587 -4 571 q -34 622 -36 603 q -15 658 -32 642 q 26 676 3 675 l 38 676 q 39 815 39 750 q 38 931 39 879 q 35 1001 38 972 q 41 1049 33 1031 q 72 1075 49 1067 q 144 1085 94 1083 q 344 1077 242 1088 q 544 1042 446 1067 q 730 976 642 1017 q 885 878 818 936 q 995 744 953 819 q 1044 571 1038 668 q 988 350 1053 453 q 800 170 924 247 q 501 46 676 93 q 113 -10 326 -1 m 143 96 q 492 153 343 113 q 741 254 642 193 q 889 395 840 315 q 938 569 938 475 q 901 697 938 638 q 801 806 864 757 q 658 893 739 856 q 488 953 576 931 q 309 983 399 976 q 140 979 219 990 q 140 848 140 926 q 139 678 139 769 q 260 677 201 678 q 363 679 318 676 q 423 667 403 682 q 443 632 443 651 q 423 594 443 613 q 363 574 403 576 q 253 571 310 571 q 138 571 196 571 q 138 432 138 501 q 138 300 138 363 q 140 185 139 238 q 143 96 142 132 z "},"":{"ha":1103,"x_min":35,"x_max":1046,"o":"m 153 57 q 139 1 156 19 q 101 -18 122 -18 q 63 1 81 -18 q 43 57 44 19 q 42 260 40 151 q 46 485 44 368 q 46 728 47 603 q 36 982 44 853 q 51 1037 35 1014 q 89 1065 67 1060 q 134 1051 111 1069 q 167 982 157 1032 q 243 764 190 869 q 365 564 296 658 q 515 390 435 469 q 672 249 594 310 q 819 151 750 189 q 933 104 888 114 q 919 399 924 253 q 915 694 914 544 q 922 1001 915 844 q 940 1329 928 1158 q 960 1372 943 1357 q 995 1387 976 1386 q 1029 1375 1014 1388 q 1043 1336 1044 1363 q 1027 1015 1033 1168 q 1020 715 1021 861 q 1025 422 1019 568 q 1042 124 1031 276 q 1038 48 1046 76 q 1011 7 1031 19 q 960 -5 992 -6 q 885 8 929 -4 q 719 83 803 31 q 558 203 636 136 q 411 348 481 271 q 288 496 342 425 q 198 626 233 567 q 153 717 163 685 q 148 628 150 683 q 145 509 146 574 q 145 376 144 444 q 147 245 146 307 q 150 133 149 183 q 153 57 151 83 m 367 1313 q 275 1274 318 1308 q 189 1182 232 1240 q 151 1158 171 1158 q 119 1170 132 1157 q 103 1206 106 1183 q 117 1254 100 1229 q 180 1325 144 1294 q 252 1376 215 1356 q 321 1408 289 1397 q 371 1418 353 1418 q 451 1387 419 1418 q 505 1317 482 1356 q 546 1248 528 1279 q 585 1217 564 1217 q 646 1225 621 1217 q 692 1249 671 1233 q 731 1284 713 1264 q 772 1326 750 1304 q 799 1334 785 1339 q 825 1317 814 1329 q 840 1287 836 1304 q 835 1256 844 1269 q 724 1152 789 1190 q 589 1114 658 1114 q 523 1129 550 1114 q 476 1167 496 1144 q 444 1215 457 1189 q 420 1264 432 1242 q 397 1300 408 1286 q 367 1313 385 1314 z "},"":{"ha":1086,"x_min":31,"x_max":1056,"o":"m 1043 656 q 973 441 1025 540 q 849 263 921 342 q 693 126 778 183 q 525 36 608 68 q 434 9 481 19 q 342 -4 388 -1 q 253 -1 296 -7 q 172 21 210 6 q 80 93 111 46 q 40 201 49 140 q 40 331 31 261 q 70 469 50 400 q 118 601 90 538 q 174 715 146 665 q 276 868 218 796 q 404 993 333 940 q 560 1073 475 1046 q 744 1092 646 1100 q 907 1044 843 1083 q 1005 946 971 1006 q 1047 811 1039 886 q 1043 656 1056 736 m 275 689 q 231 605 254 654 q 187 500 207 556 q 153 387 167 444 q 141 277 140 329 q 160 184 142 225 q 219 121 178 143 q 276 103 244 108 q 342 99 307 97 q 413 109 376 101 q 486 131 450 117 q 638 210 564 160 q 774 329 713 260 q 878 486 835 399 q 939 678 922 574 q 944 796 949 740 q 915 894 939 851 q 844 963 890 938 q 728 988 799 988 q 619 978 674 988 q 507 938 564 969 q 392 848 450 907 q 275 689 333 789 m 404 1324 q 365 1376 371 1350 q 368 1418 358 1401 q 400 1438 378 1435 q 444 1421 422 1440 q 510 1366 481 1390 q 568 1319 539 1342 q 628 1272 597 1296 q 697 1217 660 1247 q 725 1175 724 1196 q 714 1140 726 1154 q 680 1124 701 1126 q 638 1136 658 1121 q 518 1231 579 1178 q 404 1324 457 1283 z "},"":{"ha":1086,"x_min":31,"x_max":1056,"o":"m 1043 656 q 973 441 1025 540 q 849 263 921 342 q 693 126 778 183 q 525 36 608 68 q 434 9 481 19 q 342 -4 388 -1 q 253 -1 296 -7 q 172 21 210 6 q 80 93 111 46 q 40 201 49 140 q 40 331 31 261 q 70 469 50 400 q 118 601 90 538 q 174 715 146 665 q 276 868 218 796 q 404 993 333 940 q 560 1073 475 1046 q 744 1092 646 1100 q 907 1044 843 1083 q 1005 946 971 1006 q 1047 811 1039 886 q 1043 656 1056 736 m 275 689 q 231 605 254 654 q 187 500 207 556 q 153 387 167 444 q 141 277 140 329 q 160 184 142 225 q 219 121 178 143 q 276 103 244 108 q 342 99 307 97 q 413 109 376 101 q 486 131 450 117 q 638 210 564 160 q 774 329 713 260 q 878 486 835 399 q 939 678 922 574 q 944 796 949 740 q 915 894 939 851 q 844 963 890 938 q 728 988 799 988 q 619 978 674 988 q 507 938 564 969 q 392 848 450 907 q 275 689 333 789 m 682 1324 q 568 1231 629 1283 q 449 1136 507 1178 q 406 1124 428 1121 q 372 1140 385 1126 q 361 1175 360 1154 q 389 1217 363 1196 q 458 1272 426 1247 q 518 1319 489 1296 q 577 1366 547 1342 q 642 1421 607 1390 q 687 1438 665 1440 q 718 1418 708 1435 q 722 1376 728 1401 q 682 1324 715 1350 z "},"":{"ha":1086,"x_min":31,"x_max":1056,"o":"m 1043 656 q 973 441 1025 540 q 849 263 921 342 q 693 126 778 183 q 525 36 608 68 q 434 9 481 19 q 342 -4 388 -1 q 253 -1 296 -7 q 172 21 210 6 q 80 93 111 46 q 40 201 49 140 q 40 331 31 261 q 70 469 50 400 q 118 601 90 538 q 174 715 146 665 q 276 868 218 796 q 404 993 333 940 q 560 1073 475 1046 q 744 1092 646 1100 q 907 1044 843 1083 q 1005 946 971 1006 q 1047 811 1039 886 q 1043 656 1056 736 m 275 689 q 231 605 254 654 q 187 500 207 556 q 153 387 167 444 q 141 277 140 329 q 160 184 142 225 q 219 121 178 143 q 276 103 244 108 q 342 99 307 97 q 413 109 376 101 q 486 131 450 117 q 638 210 564 160 q 774 329 713 260 q 878 486 835 399 q 939 678 922 574 q 944 796 949 740 q 915 894 939 851 q 844 963 890 938 q 728 988 799 988 q 619 978 674 988 q 507 938 564 969 q 392 848 450 907 q 275 689 333 789 m 481 1335 q 510 1362 492 1354 q 546 1368 528 1369 q 580 1358 564 1367 q 603 1338 596 1350 q 642 1269 628 1293 q 666 1230 657 1244 q 681 1206 675 1215 q 694 1183 688 1196 q 692 1158 701 1172 q 666 1133 682 1143 q 633 1120 650 1122 q 610 1131 617 1118 l 542 1254 q 511 1190 522 1213 q 494 1157 500 1168 q 485 1142 488 1146 q 481 1131 483 1138 q 458 1115 475 1117 q 425 1119 442 1113 q 397 1136 408 1125 q 390 1160 386 1147 q 398 1180 393 1168 q 412 1212 403 1192 q 438 1261 421 1232 q 481 1335 454 1290 z "},"":{"ha":1086,"x_min":31,"x_max":1114,"o":"m 1043 656 q 973 441 1025 540 q 849 263 921 342 q 693 126 778 183 q 525 36 608 68 q 434 9 481 19 q 342 -4 388 -1 q 253 -1 296 -7 q 172 21 210 6 q 80 93 111 46 q 40 201 49 140 q 40 331 31 261 q 70 469 50 400 q 118 601 90 538 q 174 715 146 665 q 276 868 218 796 q 404 993 333 940 q 560 1073 475 1046 q 744 1092 646 1100 q 907 1044 843 1083 q 1005 946 971 1006 q 1047 811 1039 886 q 1043 656 1056 736 m 275 689 q 231 605 254 654 q 187 500 207 556 q 153 387 167 444 q 141 277 140 329 q 160 184 142 225 q 219 121 178 143 q 276 103 244 108 q 342 99 307 97 q 413 109 376 101 q 486 131 450 117 q 638 210 564 160 q 774 329 713 260 q 878 486 835 399 q 939 678 922 574 q 944 796 949 740 q 915 894 939 851 q 844 963 890 938 q 728 988 799 988 q 619 978 674 988 q 507 938 564 969 q 392 848 450 907 q 275 689 333 789 m 635 1313 q 543 1274 586 1308 q 457 1182 500 1240 q 419 1158 439 1158 q 387 1170 400 1157 q 371 1206 374 1183 q 385 1254 368 1229 q 448 1325 413 1294 q 520 1376 483 1356 q 589 1408 557 1397 q 639 1418 621 1418 q 719 1387 688 1418 q 773 1317 750 1356 q 814 1248 796 1279 q 853 1217 832 1217 q 914 1225 889 1217 q 960 1249 939 1233 q 999 1284 981 1264 q 1040 1326 1018 1304 q 1067 1334 1053 1339 q 1093 1317 1082 1329 q 1108 1287 1104 1304 q 1103 1256 1113 1269 q 992 1152 1057 1190 q 857 1114 926 1114 q 791 1129 818 1114 q 744 1167 764 1144 q 713 1215 725 1189 q 688 1264 700 1242 q 665 1300 676 1286 q 635 1313 653 1314 z "},"":{"ha":1086,"x_min":31,"x_max":1056,"o":"m 1043 656 q 973 441 1025 540 q 849 263 921 342 q 693 126 778 183 q 525 36 608 68 q 434 9 481 19 q 342 -4 388 -1 q 253 -1 296 -7 q 172 21 210 6 q 80 93 111 46 q 40 201 49 140 q 40 331 31 261 q 70 469 50 400 q 118 601 90 538 q 174 715 146 665 q 276 868 218 796 q 404 993 333 940 q 560 1073 475 1046 q 744 1092 646 1100 q 907 1044 843 1083 q 1005 946 971 1006 q 1047 811 1039 886 q 1043 656 1056 736 m 275 689 q 231 605 254 654 q 187 500 207 556 q 153 387 167 444 q 141 277 140 329 q 160 184 142 225 q 219 121 178 143 q 276 103 244 108 q 342 99 307 97 q 413 109 376 101 q 486 131 450 117 q 638 210 564 160 q 774 329 713 260 q 878 486 835 399 q 939 678 922 574 q 944 796 949 740 q 915 894 939 851 q 844 963 890 938 q 728 988 799 988 q 619 978 674 988 q 507 938 564 969 q 392 848 450 907 q 275 689 333 789 m 715 1207 q 738 1288 711 1257 q 801 1323 765 1318 q 867 1304 836 1328 q 900 1224 897 1281 q 874 1156 901 1181 q 813 1127 847 1131 q 749 1143 779 1124 q 715 1207 719 1163 m 493 1217 q 522 1287 493 1261 q 584 1316 550 1313 q 648 1296 618 1319 q 682 1215 678 1272 q 656 1147 685 1169 q 590 1125 626 1125 q 524 1148 554 1125 q 493 1217 493 1171 z "},"":{"ha":621,"x_min":57,"x_max":485,"o":"m 178 404 q 126 373 149 374 q 90 388 103 372 q 78 428 78 404 q 94 469 78 451 q 143 521 115 493 q 200 578 171 549 q 141 637 168 610 q 94 681 114 664 q 60 732 64 707 q 71 771 57 757 q 112 783 85 785 q 169 756 139 782 q 219 710 192 736 q 276 653 246 683 q 335 714 308 686 q 381 761 363 742 q 432 795 407 792 q 471 785 457 799 q 483 744 485 771 q 456 686 482 717 q 409 635 436 663 q 351 578 382 608 q 406 523 381 549 q 451 478 431 497 q 483 426 482 449 q 467 390 483 403 q 428 378 451 378 q 386 394 404 378 q 335 444 363 415 q 276 503 307 472 q 223 449 249 475 q 178 404 197 424 z "},"":{"ha":1086,"x_min":31,"x_max":1054,"o":"m 204 6 q 205 8 204 7 q 206 10 206 8 q 189 15 197 13 q 172 21 181 18 q 80 93 111 46 q 40 201 49 140 q 40 331 31 261 q 70 469 50 400 q 118 601 90 538 q 174 715 146 665 q 269 860 215 792 q 388 980 322 928 q 531 1063 453 1032 q 697 1093 608 1093 q 708 1117 703 1106 q 718 1140 713 1129 q 736 1163 725 1156 q 760 1169 747 1169 q 799 1150 782 1169 q 804 1096 815 1131 l 800 1083 q 934 1026 882 1067 q 1015 928 986 986 q 1049 801 1043 871 q 1043 656 1054 731 q 973 441 1025 540 q 849 263 921 342 q 693 126 778 183 q 525 36 608 68 q 416 4 472 15 q 306 -6 360 -7 q 301 -17 304 -8 q 273 -58 290 -46 q 240 -71 256 -71 q 203 -49 217 -71 q 204 6 189 -26 m 275 689 q 231 605 254 654 q 187 500 207 556 q 153 387 167 444 q 141 277 140 329 q 160 184 142 225 q 219 121 178 143 q 253 107 231 114 q 347 309 296 197 q 451 539 399 421 q 556 772 504 657 q 650 983 607 888 q 558 962 604 978 q 466 913 513 946 q 372 825 419 879 q 275 689 324 771 m 939 678 q 944 790 949 736 q 920 885 940 843 q 861 953 900 926 q 761 986 822 981 q 669 775 722 892 q 558 538 615 658 q 447 304 501 418 q 351 100 392 190 q 419 110 385 103 q 486 131 453 118 q 638 210 564 160 q 774 329 713 260 q 878 486 835 399 q 939 678 922 574 z "},"":{"ha":1014,"x_min":35,"x_max":983,"o":"m 464 0 q 286 31 360 0 q 163 117 213 63 q 87 244 114 171 q 47 400 60 317 q 35 572 35 483 q 40 747 35 661 q 52 911 44 832 q 63 1054 60 990 q 81 1088 64 1078 q 117 1093 97 1097 q 152 1073 138 1089 q 164 1028 167 1057 q 148 858 157 956 q 139 657 139 761 q 152 452 139 553 q 202 272 165 351 q 304 144 239 193 q 472 97 369 96 q 705 140 619 99 q 831 252 790 182 q 875 415 871 322 q 863 612 879 508 q 817 824 846 715 q 765 1033 789 932 q 774 1069 761 1054 q 807 1088 788 1085 q 847 1078 826 1090 q 875 1032 867 1067 q 933 794 904 915 q 972 558 961 672 q 969 342 983 443 q 900 165 956 240 q 740 44 844 89 q 464 0 635 0 m 368 1324 q 328 1376 335 1350 q 332 1418 322 1401 q 364 1438 342 1435 q 408 1421 386 1440 q 474 1366 444 1390 q 532 1319 503 1342 q 592 1272 561 1296 q 661 1217 624 1247 q 689 1175 688 1196 q 678 1140 690 1154 q 644 1124 665 1126 q 601 1136 622 1121 q 482 1231 543 1178 q 368 1324 421 1283 z "},"":{"ha":1014,"x_min":35,"x_max":983,"o":"m 464 0 q 286 31 360 0 q 163 117 213 63 q 87 244 114 171 q 47 400 60 317 q 35 572 35 483 q 40 747 35 661 q 52 911 44 832 q 63 1054 60 990 q 81 1088 64 1078 q 117 1093 97 1097 q 152 1073 138 1089 q 164 1028 167 1057 q 148 858 157 956 q 139 657 139 761 q 152 452 139 553 q 202 272 165 351 q 304 144 239 193 q 472 97 369 96 q 705 140 619 99 q 831 252 790 182 q 875 415 871 322 q 863 612 879 508 q 817 824 846 715 q 765 1033 789 932 q 774 1069 761 1054 q 807 1088 788 1085 q 847 1078 826 1090 q 875 1032 867 1067 q 933 794 904 915 q 972 558 961 672 q 969 342 983 443 q 900 165 956 240 q 740 44 844 89 q 464 0 635 0 m 646 1324 q 532 1231 593 1283 q 413 1136 471 1178 q 370 1124 392 1121 q 336 1140 349 1126 q 325 1175 324 1154 q 353 1217 326 1196 q 422 1272 390 1247 q 482 1319 453 1296 q 541 1366 511 1342 q 606 1421 571 1390 q 651 1438 629 1440 q 682 1418 672 1435 q 685 1376 692 1401 q 646 1324 679 1350 z "},"":{"ha":1014,"x_min":35,"x_max":983,"o":"m 464 0 q 286 31 360 0 q 163 117 213 63 q 87 244 114 171 q 47 400 60 317 q 35 572 35 483 q 40 747 35 661 q 52 911 44 832 q 63 1054 60 990 q 81 1088 64 1078 q 117 1093 97 1097 q 152 1073 138 1089 q 164 1028 167 1057 q 148 858 157 956 q 139 657 139 761 q 152 452 139 553 q 202 272 165 351 q 304 144 239 193 q 472 97 369 96 q 705 140 619 99 q 831 252 790 182 q 875 415 871 322 q 863 612 879 508 q 817 824 846 715 q 765 1033 789 932 q 774 1069 761 1054 q 807 1088 788 1085 q 847 1078 826 1090 q 875 1032 867 1067 q 933 794 904 915 q 972 558 961 672 q 969 342 983 443 q 900 165 956 240 q 740 44 844 89 q 464 0 635 0 m 444 1335 q 474 1362 456 1354 q 510 1368 492 1369 q 544 1358 528 1367 q 567 1338 560 1350 q 606 1269 592 1293 q 630 1230 621 1244 q 645 1206 639 1215 q 658 1183 651 1196 q 656 1158 665 1172 q 630 1133 646 1143 q 597 1120 614 1122 q 574 1131 581 1118 l 506 1254 q 475 1190 486 1213 q 458 1157 464 1168 q 449 1142 451 1146 q 444 1131 447 1138 q 422 1115 439 1117 q 389 1119 406 1113 q 361 1136 372 1125 q 354 1160 350 1147 q 362 1180 357 1168 q 376 1212 367 1192 q 401 1261 385 1232 q 444 1335 418 1290 z "},"":{"ha":1014,"x_min":35,"x_max":983,"o":"m 464 0 q 286 31 360 0 q 163 117 213 63 q 87 244 114 171 q 47 400 60 317 q 35 572 35 483 q 40 747 35 661 q 52 911 44 832 q 63 1054 60 990 q 81 1088 64 1078 q 117 1093 97 1097 q 152 1073 138 1089 q 164 1028 167 1057 q 148 858 157 956 q 139 657 139 761 q 152 452 139 553 q 202 272 165 351 q 304 144 239 193 q 472 97 369 96 q 705 140 619 99 q 831 252 790 182 q 875 415 871 322 q 863 612 879 508 q 817 824 846 715 q 765 1033 789 932 q 774 1069 761 1054 q 807 1088 788 1085 q 847 1078 826 1090 q 875 1032 867 1067 q 933 794 904 915 q 972 558 961 672 q 969 342 983 443 q 900 165 956 240 q 740 44 844 89 q 464 0 635 0 m 525 1207 q 548 1288 521 1257 q 610 1323 575 1318 q 676 1304 646 1328 q 710 1224 707 1281 q 684 1156 711 1181 q 623 1127 657 1131 q 559 1143 589 1124 q 525 1207 529 1163 m 303 1217 q 331 1287 303 1261 q 394 1316 360 1313 q 458 1296 428 1319 q 492 1215 488 1272 q 465 1147 494 1169 q 400 1125 436 1125 q 333 1148 364 1125 q 303 1217 303 1171 z "},"":{"ha":1040,"x_min":33,"x_max":1008,"o":"m 540 343 q 481 502 529 421 q 364 662 432 583 q 217 813 296 740 q 64 943 138 885 q 36 987 39 964 q 44 1026 33 1010 q 72 1050 54 1043 q 107 1044 90 1057 q 204 967 151 1011 q 310 872 257 922 q 416 768 364 821 q 510 665 468 715 q 581 569 551 614 q 619 492 611 525 q 700 624 660 547 q 778 781 740 700 q 853 938 817 861 q 919 1074 889 1015 q 955 1108 936 1104 q 987 1101 974 1113 q 1004 1065 1000 1089 q 997 1017 1008 1042 q 871 746 933 874 q 744 485 808 618 q 612 206 681 353 q 465 -119 543 60 q 432 -155 453 -149 q 393 -153 411 -161 q 365 -127 375 -144 q 361 -92 354 -110 q 454 127 406 21 q 540 343 503 233 m 660 1324 q 546 1231 607 1283 q 426 1136 485 1178 q 384 1124 406 1121 q 350 1140 363 1126 q 339 1175 338 1154 q 367 1217 340 1196 q 435 1272 404 1247 q 496 1319 467 1296 q 555 1366 525 1342 q 619 1421 585 1390 q 665 1438 643 1440 q 696 1418 686 1435 q 699 1376 706 1401 q 660 1324 693 1350 z "},"":{"ha":929,"x_min":35,"x_max":896,"o":"m 36 58 q 42 294 40 165 q 47 556 44 422 q 51 817 49 689 q 63 1051 54 946 q 79 1086 64 1075 q 112 1096 94 1097 q 144 1080 129 1094 q 158 1038 158 1065 q 154 850 158 950 q 253 861 200 857 q 365 867 307 865 q 481 868 422 869 q 593 860 539 867 q 767 813 700 847 q 865 734 833 779 q 894 636 896 689 q 864 533 893 583 q 781 438 835 482 q 656 368 728 394 q 531 333 597 347 q 396 310 464 319 q 261 296 328 301 q 135 286 194 290 q 133 169 133 224 q 136 69 133 115 q 123 12 139 29 q 88 -4 107 -6 q 51 14 68 -3 q 36 58 35 31 m 138 399 q 238 401 179 399 q 363 410 297 403 q 496 432 429 418 q 619 469 563 446 q 735 544 694 501 q 778 628 776 586 q 737 703 779 669 q 600 749 694 736 q 472 758 540 757 q 341 754 404 758 q 226 742 278 750 q 150 724 175 733 q 144 560 147 642 q 138 399 140 478 z "},"":{"ha":969,"x_min":33,"x_max":935,"o":"m 238 628 q 362 688 296 656 q 486 755 428 719 q 588 829 544 790 q 647 907 632 868 q 634 967 663 947 q 553 994 606 988 q 435 995 501 1000 q 310 981 369 990 q 208 958 251 971 q 160 938 165 946 q 157 766 158 864 q 154 562 156 668 q 151 348 153 456 q 149 146 150 240 q 147 -23 147 51 q 144 -136 146 -97 q 127 -179 144 -164 q 90 -194 110 -194 q 52 -176 69 -194 q 35 -119 35 -158 q 34 39 33 -50 q 37 226 35 128 q 41 428 39 325 q 45 626 43 531 q 49 807 47 722 q 53 956 51 892 q 79 1014 53 992 q 147 1053 106 1036 q 268 1085 194 1072 q 422 1101 342 1099 q 577 1094 501 1104 q 703 1056 653 1083 q 769 980 754 1028 q 744 860 785 932 q 691 791 726 826 q 610 721 656 756 q 514 656 565 686 q 411 603 463 625 q 519 620 461 614 q 636 624 578 626 q 749 608 694 621 q 844 568 803 596 q 910 497 885 540 q 935 389 935 453 q 892 255 935 315 q 769 147 850 194 q 575 63 689 99 q 317 4 461 28 q 274 15 290 0 q 253 49 257 29 q 260 86 250 68 q 297 108 271 104 q 419 129 354 117 q 546 160 483 142 q 664 201 608 178 q 760 256 719 225 q 819 326 800 288 q 831 413 839 365 q 793 469 824 450 q 716 497 763 489 q 611 504 669 506 q 492 499 553 503 q 371 489 431 494 q 260 483 311 483 q 226 501 242 483 q 203 543 210 519 q 204 591 197 567 q 238 628 211 615 z "},"":{"ha":1108,"x_min":18,"x_max":1078,"o":"m 806 1071 q 827 1091 813 1082 q 856 1099 842 1100 q 883 1083 871 1097 q 897 1031 894 1068 q 919 779 906 897 q 952 548 932 661 q 1001 319 972 435 q 1068 75 1029 204 q 1068 26 1078 44 q 1041 4 1058 8 q 1004 10 1024 0 q 975 46 985 19 q 947 126 961 82 q 918 217 932 169 q 892 310 904 264 q 871 397 879 357 q 733 349 806 369 q 593 312 660 328 q 473 285 526 296 q 390 267 419 275 q 308 169 347 218 q 234 76 268 121 q 172 -6 200 32 q 124 -69 144 -43 q 78 -99 101 -99 q 39 -85 54 -100 q 21 -47 24 -71 q 39 0 18 -22 q 319 331 201 176 q 526 620 438 486 q 680 867 614 754 q 806 1071 746 979 m 806 879 q 721 750 758 813 q 647 628 683 688 q 573 510 611 568 q 488 393 535 451 q 560 408 515 399 q 655 433 604 418 q 755 466 706 447 q 842 508 804 485 l 806 879 m 633 1324 q 594 1376 600 1350 q 597 1418 588 1401 q 629 1438 607 1435 q 674 1421 651 1440 q 739 1366 710 1390 q 797 1319 768 1342 q 858 1272 826 1296 q 926 1217 889 1247 q 954 1175 953 1196 q 943 1140 956 1154 q 909 1124 931 1126 q 867 1136 888 1121 q 747 1231 808 1178 q 633 1324 686 1283 z "},"":{"ha":1108,"x_min":18,"x_max":1078,"o":"m 806 1071 q 827 1091 813 1082 q 856 1099 842 1100 q 883 1083 871 1097 q 897 1031 894 1068 q 919 779 906 897 q 952 548 932 661 q 1001 319 972 435 q 1068 75 1029 204 q 1068 26 1078 44 q 1041 4 1058 8 q 1004 10 1024 0 q 975 46 985 19 q 947 126 961 82 q 918 217 932 169 q 892 310 904 264 q 871 397 879 357 q 733 349 806 369 q 593 312 660 328 q 473 285 526 296 q 390 267 419 275 q 308 169 347 218 q 234 76 268 121 q 172 -6 200 32 q 124 -69 144 -43 q 78 -99 101 -99 q 39 -85 54 -100 q 21 -47 24 -71 q 39 0 18 -22 q 319 331 201 176 q 526 620 438 486 q 680 867 614 754 q 806 1071 746 979 m 806 879 q 721 750 758 813 q 647 628 683 688 q 573 510 611 568 q 488 393 535 451 q 560 408 515 399 q 655 433 604 418 q 755 466 706 447 q 842 508 804 485 l 806 879 m 890 1324 q 776 1231 838 1283 q 657 1136 715 1178 q 615 1124 636 1121 q 581 1140 593 1126 q 569 1175 568 1154 q 597 1217 571 1196 q 666 1272 635 1247 q 726 1319 697 1296 q 785 1366 756 1342 q 850 1421 815 1390 q 895 1438 874 1440 q 926 1418 917 1435 q 930 1376 936 1401 q 890 1324 924 1350 z "},"":{"ha":1108,"x_min":18,"x_max":1078,"o":"m 806 1071 q 827 1091 813 1082 q 856 1099 842 1100 q 883 1083 871 1097 q 897 1031 894 1068 q 919 779 906 897 q 952 548 932 661 q 1001 319 972 435 q 1068 75 1029 204 q 1068 26 1078 44 q 1041 4 1058 8 q 1004 10 1024 0 q 975 46 985 19 q 947 126 961 82 q 918 217 932 169 q 892 310 904 264 q 871 397 879 357 q 733 349 806 369 q 593 312 660 328 q 473 285 526 296 q 390 267 419 275 q 308 169 347 218 q 234 76 268 121 q 172 -6 200 32 q 124 -69 144 -43 q 78 -99 101 -99 q 39 -85 54 -100 q 21 -47 24 -71 q 39 0 18 -22 q 319 331 201 176 q 526 620 438 486 q 680 867 614 754 q 806 1071 746 979 m 806 879 q 721 750 758 813 q 647 628 683 688 q 573 510 611 568 q 488 393 535 451 q 560 408 515 399 q 655 433 604 418 q 755 466 706 447 q 842 508 804 485 l 806 879 m 756 1335 q 785 1362 767 1354 q 821 1368 803 1369 q 855 1358 839 1367 q 878 1338 871 1350 q 917 1269 903 1293 q 941 1230 932 1244 q 956 1206 950 1215 q 969 1183 963 1196 q 967 1158 976 1172 q 941 1133 957 1143 q 908 1120 925 1122 q 885 1131 892 1118 l 817 1254 q 786 1190 797 1213 q 769 1157 775 1168 q 760 1142 763 1146 q 756 1131 758 1138 q 733 1115 750 1117 q 700 1119 717 1113 q 672 1136 683 1125 q 665 1160 661 1147 q 673 1180 668 1168 q 687 1212 678 1192 q 713 1261 696 1232 q 756 1335 729 1290 z "},"":{"ha":1108,"x_min":18,"x_max":1232,"o":"m 806 1071 q 827 1091 813 1082 q 856 1099 842 1100 q 883 1083 871 1097 q 897 1031 894 1068 q 919 779 906 897 q 952 548 932 661 q 1001 319 972 435 q 1068 75 1029 204 q 1068 26 1078 44 q 1041 4 1058 8 q 1004 10 1024 0 q 975 46 985 19 q 947 126 961 82 q 918 217 932 169 q 892 310 904 264 q 871 397 879 357 q 733 349 806 369 q 593 312 660 328 q 473 285 526 296 q 390 267 419 275 q 308 169 347 218 q 234 76 268 121 q 172 -6 200 32 q 124 -69 144 -43 q 78 -99 101 -99 q 39 -85 54 -100 q 21 -47 24 -71 q 39 0 18 -22 q 319 331 201 176 q 526 620 438 486 q 680 867 614 754 q 806 1071 746 979 m 806 879 q 721 750 758 813 q 647 628 683 688 q 573 510 611 568 q 488 393 535 451 q 560 408 515 399 q 655 433 604 418 q 755 466 706 447 q 842 508 804 485 l 806 879 m 753 1313 q 661 1274 704 1308 q 575 1182 618 1240 q 538 1158 557 1158 q 505 1170 518 1157 q 489 1206 492 1183 q 503 1254 486 1229 q 566 1325 531 1294 q 638 1376 601 1356 q 707 1408 675 1397 q 757 1418 739 1418 q 837 1387 806 1418 q 891 1317 868 1356 q 932 1248 914 1279 q 971 1217 950 1217 q 1032 1225 1007 1217 q 1078 1249 1057 1233 q 1117 1284 1099 1264 q 1158 1326 1136 1304 q 1185 1334 1171 1339 q 1211 1317 1200 1329 q 1226 1287 1222 1304 q 1221 1256 1231 1269 q 1110 1152 1175 1190 q 975 1114 1044 1114 q 909 1129 936 1114 q 863 1167 882 1144 q 831 1215 843 1189 q 806 1264 818 1242 q 783 1300 794 1286 q 753 1313 771 1314 z "},"":{"ha":1108,"x_min":18,"x_max":1078,"o":"m 806 1071 q 827 1091 813 1082 q 856 1099 842 1100 q 883 1083 871 1097 q 897 1031 894 1068 q 919 779 906 897 q 952 548 932 661 q 1001 319 972 435 q 1068 75 1029 204 q 1068 26 1078 44 q 1041 4 1058 8 q 1004 10 1024 0 q 975 46 985 19 q 947 126 961 82 q 918 217 932 169 q 892 310 904 264 q 871 397 879 357 q 733 349 806 369 q 593 312 660 328 q 473 285 526 296 q 390 267 419 275 q 308 169 347 218 q 234 76 268 121 q 172 -6 200 32 q 124 -69 144 -43 q 78 -99 101 -99 q 39 -85 54 -100 q 21 -47 24 -71 q 39 0 18 -22 q 319 331 201 176 q 526 620 438 486 q 680 867 614 754 q 806 1071 746 979 m 806 879 q 721 750 758 813 q 647 628 683 688 q 573 510 611 568 q 488 393 535 451 q 560 408 515 399 q 655 433 604 418 q 755 466 706 447 q 842 508 804 485 l 806 879 m 854 1207 q 877 1288 850 1257 q 940 1323 904 1318 q 1006 1304 975 1328 q 1039 1224 1036 1281 q 1013 1156 1040 1181 q 952 1127 986 1131 q 888 1143 918 1124 q 854 1207 858 1163 m 632 1217 q 660 1287 632 1261 q 723 1316 689 1313 q 787 1296 757 1319 q 821 1215 817 1272 q 794 1147 824 1169 q 729 1125 765 1125 q 663 1148 693 1125 q 632 1217 632 1171 z "},"":{"ha":1108,"x_min":18,"x_max":1078,"o":"m 39 0 q 319 331 201 176 q 526 620 438 486 q 680 867 614 754 q 806 1071 746 979 q 742 1106 767 1081 q 708 1165 718 1132 q 703 1235 699 1199 q 724 1302 707 1272 q 770 1351 740 1332 q 842 1369 800 1369 q 916 1350 886 1369 q 962 1301 946 1331 q 981 1237 978 1272 q 976 1169 985 1201 q 944 1110 967 1136 q 888 1074 922 1085 q 897 1031 894 1061 q 919 779 906 897 q 952 548 932 661 q 1001 319 972 435 q 1068 75 1029 204 q 1068 26 1078 44 q 1041 4 1058 8 q 1004 10 1024 0 q 975 46 985 19 q 947 126 961 82 q 918 217 932 169 q 892 310 904 264 q 871 397 879 357 q 733 349 806 369 q 593 312 660 328 q 473 285 526 296 q 390 267 419 275 q 308 169 347 218 q 234 76 268 121 q 172 -6 200 32 q 124 -69 144 -43 q 78 -99 101 -99 q 39 -85 54 -100 q 21 -47 24 -71 q 39 0 18 -22 m 806 879 q 721 750 758 813 q 647 628 683 688 q 573 510 611 568 q 488 393 535 451 q 560 408 515 399 q 655 433 604 418 q 755 466 706 447 q 842 508 804 485 l 806 879 m 842 1154 q 884 1174 871 1154 q 896 1218 897 1194 q 881 1262 894 1242 q 842 1283 867 1282 q 801 1265 817 1285 q 782 1220 785 1244 q 793 1175 779 1196 q 842 1154 807 1154 z "},"":{"ha":1801,"x_min":32,"x_max":1771,"o":"m 819 1071 q 841 1091 826 1082 q 870 1099 856 1100 q 897 1083 885 1097 q 911 1031 908 1068 l 908 1006 q 1089 1030 1000 1019 q 1267 1051 1178 1040 q 1447 1076 1357 1063 q 1633 1108 1538 1089 q 1680 1103 1663 1114 q 1701 1073 1697 1092 q 1692 1034 1704 1054 q 1651 1003 1681 1014 q 1610 996 1649 1001 q 1510 981 1571 990 q 1372 961 1449 972 q 1215 939 1294 950 q 1062 917 1136 928 q 931 897 988 906 q 931 828 931 868 q 930 744 931 788 q 928 656 929 700 q 928 572 928 611 q 987 577 949 572 q 1074 590 1025 582 q 1178 609 1122 599 q 1286 630 1233 619 q 1387 650 1339 640 q 1468 668 1435 660 q 1532 668 1508 676 q 1562 644 1556 660 q 1555 610 1568 628 q 1508 581 1542 592 q 1419 556 1472 569 q 1307 530 1367 543 q 1186 504 1247 517 q 1072 481 1125 492 q 980 463 1019 471 q 924 451 940 456 q 917 356 919 400 q 915 270 915 311 q 917 188 915 229 q 925 100 919 146 q 1347 158 1157 119 q 1679 244 1538 196 q 1722 242 1697 251 q 1758 215 1746 232 q 1763 175 1771 197 q 1707 133 1754 153 q 1615 106 1675 121 q 1481 74 1556 90 q 1324 44 1407 58 q 1165 17 1242 29 q 1025 -3 1089 6 q 924 -15 961 -12 q 866 -13 888 -18 q 833 6 844 -8 q 817 45 821 21 q 810 104 813 69 q 808 236 804 167 q 814 379 811 306 q 690 337 751 354 q 574 306 629 319 q 476 283 519 293 q 404 267 432 274 q 322 169 361 218 q 248 76 282 121 q 186 -6 214 32 q 138 -69 158 -43 q 92 -99 115 -99 q 53 -85 68 -100 q 35 -47 38 -71 q 53 0 32 -22 q 333 331 215 176 q 540 620 451 486 q 694 867 628 754 q 819 1071 760 979 m 817 504 q 825 683 824 593 q 824 861 826 772 l 824 865 q 742 742 781 803 q 664 622 703 681 q 585 505 625 563 q 501 393 546 447 q 567 408 529 399 q 649 431 606 417 q 735 463 692 444 q 817 504 779 481 z "},"":{"ha":1086,"x_min":26,"x_max":1051,"o":"m 326 -10 q 210 -6 260 -15 q 127 25 161 4 q 73 77 93 46 q 44 147 53 108 q 43 340 26 236 q 103 550 60 444 q 213 753 147 656 q 359 926 279 851 q 528 1047 439 1001 q 708 1090 618 1092 q 768 1071 740 1090 q 816 1022 796 1051 q 848 958 836 993 q 860 894 860 924 q 847 840 860 858 q 817 822 833 822 q 784 840 800 822 q 761 892 768 857 q 755 924 758 908 q 745 954 751 940 q 726 976 739 968 q 693 985 714 985 q 558 944 628 985 q 424 838 489 904 q 303 688 360 772 q 209 515 247 603 q 153 341 171 426 q 147 188 135 256 q 201 105 157 132 q 332 90 244 78 q 494 132 404 101 q 674 213 585 163 q 840 329 763 263 q 965 476 918 396 q 1008 516 988 515 q 1040 497 1029 517 q 1050 443 1051 476 q 1025 381 1049 410 q 914 264 976 318 q 783 164 851 210 q 642 83 714 118 q 499 26 569 49 l 501 -56 q 558 -65 526 -62 q 619 -78 590 -67 q 667 -117 647 -89 q 686 -204 686 -146 q 672 -243 686 -222 q 630 -282 658 -264 q 558 -313 601 -300 q 456 -328 515 -326 q 420 -313 435 -328 q 403 -281 406 -299 q 411 -249 400 -264 q 450 -233 422 -233 q 553 -216 524 -233 q 582 -186 582 -199 q 568 -165 582 -168 q 535 -162 554 -161 q 492 -165 515 -164 q 450 -159 469 -167 q 417 -129 431 -151 q 403 -62 403 -107 l 401 1 q 363 -6 382 -3 q 326 -10 344 -8 z "},"":{"ha":1028,"x_min":33,"x_max":997,"o":"m 36 104 q 36 281 33 186 q 43 474 39 375 q 50 671 47 572 q 50 861 53 769 q 49 925 49 900 q 59 967 50 950 q 88 992 68 983 q 143 1007 107 1001 q 322 1031 235 1021 q 497 1052 410 1042 q 674 1076 585 1063 q 860 1108 764 1089 q 906 1103 889 1114 q 927 1073 924 1092 q 919 1034 931 1054 q 878 1003 907 1014 q 836 996 875 1001 q 736 981 797 990 q 598 961 675 972 q 442 939 521 950 q 288 917 363 928 q 157 897 214 906 q 157 828 157 868 q 156 744 157 788 q 155 656 156 700 q 154 572 154 611 q 213 577 175 572 q 300 590 251 582 q 404 609 349 599 q 513 630 460 619 q 613 650 565 640 q 694 668 661 660 q 758 668 735 676 q 788 644 782 660 q 781 610 794 628 q 735 581 768 592 q 646 556 699 569 q 533 530 593 543 q 413 504 474 517 q 299 481 351 492 q 206 463 246 471 q 150 451 167 456 q 144 356 146 400 q 142 270 142 311 q 144 188 142 229 q 151 100 146 146 q 574 158 383 119 q 906 244 764 196 q 948 242 924 251 q 985 215 972 232 q 989 175 997 197 q 933 133 981 153 q 842 106 901 121 q 708 74 782 90 q 551 44 633 58 q 392 17 468 29 q 251 -3 315 6 q 150 -15 188 -12 q 93 -13 114 -18 q 61 6 72 -8 q 45 45 50 21 q 36 104 40 69 m 375 1324 q 335 1376 342 1350 q 339 1418 329 1401 q 371 1438 349 1435 q 415 1421 393 1440 q 481 1366 451 1390 q 539 1319 510 1342 q 599 1272 568 1296 q 668 1217 631 1247 q 696 1175 694 1196 q 685 1140 697 1154 q 651 1124 672 1126 q 608 1136 629 1121 q 489 1231 550 1178 q 375 1324 428 1283 z "},"":{"ha":1028,"x_min":33,"x_max":997,"o":"m 36 104 q 36 281 33 186 q 43 474 39 375 q 50 671 47 572 q 50 861 53 769 q 49 925 49 900 q 59 967 50 950 q 88 992 68 983 q 143 1007 107 1001 q 322 1031 235 1021 q 497 1052 410 1042 q 674 1076 585 1063 q 860 1108 764 1089 q 906 1103 889 1114 q 927 1073 924 1092 q 919 1034 931 1054 q 878 1003 907 1014 q 836 996 875 1001 q 736 981 797 990 q 598 961 675 972 q 442 939 521 950 q 288 917 363 928 q 157 897 214 906 q 157 828 157 868 q 156 744 157 788 q 155 656 156 700 q 154 572 154 611 q 213 577 175 572 q 300 590 251 582 q 404 609 349 599 q 513 630 460 619 q 613 650 565 640 q 694 668 661 660 q 758 668 735 676 q 788 644 782 660 q 781 610 794 628 q 735 581 768 592 q 646 556 699 569 q 533 530 593 543 q 413 504 474 517 q 299 481 351 492 q 206 463 246 471 q 150 451 167 456 q 144 356 146 400 q 142 270 142 311 q 144 188 142 229 q 151 100 146 146 q 574 158 383 119 q 906 244 764 196 q 948 242 924 251 q 985 215 972 232 q 989 175 997 197 q 933 133 981 153 q 842 106 901 121 q 708 74 782 90 q 551 44 633 58 q 392 17 468 29 q 251 -3 315 6 q 150 -15 188 -12 q 93 -13 114 -18 q 61 6 72 -8 q 45 45 50 21 q 36 104 40 69 m 653 1324 q 539 1231 600 1283 q 419 1136 478 1178 q 377 1124 399 1121 q 343 1140 356 1126 q 332 1175 331 1154 q 360 1217 333 1196 q 428 1272 397 1247 q 489 1319 460 1296 q 548 1366 518 1342 q 613 1421 578 1390 q 658 1438 636 1440 q 689 1418 679 1435 q 692 1376 699 1401 q 653 1324 686 1350 z "},"":{"ha":1028,"x_min":33,"x_max":997,"o":"m 36 104 q 36 281 33 186 q 43 474 39 375 q 50 671 47 572 q 50 861 53 769 q 49 925 49 900 q 59 967 50 950 q 88 992 68 983 q 143 1007 107 1001 q 322 1031 235 1021 q 497 1052 410 1042 q 674 1076 585 1063 q 860 1108 764 1089 q 906 1103 889 1114 q 927 1073 924 1092 q 919 1034 931 1054 q 878 1003 907 1014 q 836 996 875 1001 q 736 981 797 990 q 598 961 675 972 q 442 939 521 950 q 288 917 363 928 q 157 897 214 906 q 157 828 157 868 q 156 744 157 788 q 155 656 156 700 q 154 572 154 611 q 213 577 175 572 q 300 590 251 582 q 404 609 349 599 q 513 630 460 619 q 613 650 565 640 q 694 668 661 660 q 758 668 735 676 q 788 644 782 660 q 781 610 794 628 q 735 581 768 592 q 646 556 699 569 q 533 530 593 543 q 413 504 474 517 q 299 481 351 492 q 206 463 246 471 q 150 451 167 456 q 144 356 146 400 q 142 270 142 311 q 144 188 142 229 q 151 100 146 146 q 574 158 383 119 q 906 244 764 196 q 948 242 924 251 q 985 215 972 232 q 989 175 997 197 q 933 133 981 153 q 842 106 901 121 q 708 74 782 90 q 551 44 633 58 q 392 17 468 29 q 251 -3 315 6 q 150 -15 188 -12 q 93 -13 114 -18 q 61 6 72 -8 q 45 45 50 21 q 36 104 40 69 m 451 1335 q 481 1362 463 1354 q 517 1368 499 1369 q 551 1358 535 1367 q 574 1338 567 1350 q 613 1269 599 1293 q 637 1230 628 1244 q 652 1206 646 1215 q 665 1183 658 1196 q 663 1158 672 1172 q 637 1133 653 1143 q 604 1120 621 1122 q 581 1131 588 1118 l 513 1254 q 482 1190 493 1213 q 465 1157 471 1168 q 456 1142 458 1146 q 451 1131 454 1138 q 429 1115 446 1117 q 396 1119 413 1113 q 368 1136 379 1125 q 361 1160 357 1147 q 369 1180 364 1168 q 383 1212 374 1192 q 408 1261 392 1232 q 451 1335 425 1290 z "},"":{"ha":1028,"x_min":33,"x_max":997,"o":"m 36 104 q 36 281 33 186 q 43 474 39 375 q 50 671 47 572 q 50 861 53 769 q 49 925 49 900 q 59 967 50 950 q 88 992 68 983 q 143 1007 107 1001 q 322 1031 235 1021 q 497 1052 410 1042 q 674 1076 585 1063 q 860 1108 764 1089 q 906 1103 889 1114 q 927 1073 924 1092 q 919 1034 931 1054 q 878 1003 907 1014 q 836 996 875 1001 q 736 981 797 990 q 598 961 675 972 q 442 939 521 950 q 288 917 363 928 q 157 897 214 906 q 157 828 157 868 q 156 744 157 788 q 155 656 156 700 q 154 572 154 611 q 213 577 175 572 q 300 590 251 582 q 404 609 349 599 q 513 630 460 619 q 613 650 565 640 q 694 668 661 660 q 758 668 735 676 q 788 644 782 660 q 781 610 794 628 q 735 581 768 592 q 646 556 699 569 q 533 530 593 543 q 413 504 474 517 q 299 481 351 492 q 206 463 246 471 q 150 451 167 456 q 144 356 146 400 q 142 270 142 311 q 144 188 142 229 q 151 100 146 146 q 574 158 383 119 q 906 244 764 196 q 948 242 924 251 q 985 215 972 232 q 989 175 997 197 q 933 133 981 153 q 842 106 901 121 q 708 74 782 90 q 551 44 633 58 q 392 17 468 29 q 251 -3 315 6 q 150 -15 188 -12 q 93 -13 114 -18 q 61 6 72 -8 q 45 45 50 21 q 36 104 40 69 m 532 1207 q 555 1288 528 1257 q 617 1323 582 1318 q 683 1304 653 1328 q 717 1224 714 1281 q 691 1156 718 1181 q 630 1127 664 1131 q 566 1143 596 1124 q 532 1207 536 1163 m 310 1217 q 338 1287 310 1261 q 401 1316 367 1313 q 465 1296 435 1319 q 499 1215 494 1272 q 472 1147 501 1169 q 407 1125 443 1125 q 340 1148 371 1125 q 310 1217 310 1171 z "},"":{"ha":235,"x_min":-68,"x_max":301,"o":"m 57 58 q 63 294 61 165 q 67 556 65 422 q 72 817 69 689 q 83 1051 75 946 q 100 1086 85 1075 q 133 1096 115 1097 q 165 1080 150 1094 q 179 1038 179 1065 q 174 799 179 931 q 163 535 168 668 q 156 281 158 403 q 157 69 153 158 q 144 12 160 29 q 108 -4 128 -6 q 72 14 89 -3 q 57 58 56 31 m -22 1324 q -62 1376 -56 1350 q -58 1418 -68 1401 q -26 1438 -49 1435 q 18 1421 -4 1440 q 83 1366 54 1390 q 142 1319 113 1342 q 202 1272 171 1296 q 271 1217 233 1247 q 299 1175 297 1196 q 288 1140 300 1154 q 253 1124 275 1126 q 211 1136 232 1121 q 92 1231 153 1178 q -22 1324 31 1283 z "},"":{"ha":235,"x_min":-67,"x_max":303,"o":"m 57 58 q 63 294 61 165 q 67 556 65 422 q 72 817 69 689 q 83 1051 75 946 q 100 1086 85 1075 q 133 1096 115 1097 q 165 1080 150 1094 q 179 1038 179 1065 q 174 799 179 931 q 163 535 168 668 q 156 281 158 403 q 157 69 153 158 q 144 12 160 29 q 108 -4 128 -6 q 72 14 89 -3 q 57 58 56 31 m 257 1324 q 143 1231 204 1283 q 24 1136 82 1178 q -19 1124 3 1121 q -53 1140 -40 1126 q -64 1175 -65 1154 q -36 1217 -62 1196 q 33 1272 1 1247 q 93 1319 64 1296 q 152 1366 122 1342 q 217 1421 182 1390 q 262 1438 240 1440 q 293 1418 283 1435 q 297 1376 303 1401 q 257 1324 290 1350 z "},"":{"ha":235,"x_min":-40,"x_max":276,"o":"m 57 58 q 63 294 61 165 q 67 556 65 422 q 72 817 69 689 q 83 1051 75 946 q 100 1086 85 1075 q 133 1096 115 1097 q 165 1080 150 1094 q 179 1038 179 1065 q 174 799 179 931 q 163 535 168 668 q 156 281 158 403 q 157 69 153 158 q 144 12 160 29 q 108 -4 128 -6 q 72 14 89 -3 q 57 58 56 31 m 56 1335 q 85 1362 67 1354 q 121 1368 103 1369 q 155 1358 139 1367 q 178 1338 171 1350 q 217 1269 203 1293 q 241 1230 232 1244 q 256 1206 250 1215 q 269 1183 263 1196 q 267 1158 276 1172 q 241 1133 257 1143 q 208 1120 225 1122 q 185 1131 192 1118 l 117 1254 q 86 1190 97 1213 q 69 1157 75 1168 q 60 1142 63 1146 q 56 1131 58 1138 q 33 1115 50 1117 q 0 1119 17 1113 q -28 1136 -17 1125 q -35 1160 -39 1147 q -27 1180 -32 1168 q -13 1212 -22 1192 q 13 1261 -4 1232 q 56 1335 29 1290 z "},"":{"ha":235,"x_min":-87,"x_max":322,"o":"m 57 58 q 63 294 61 165 q 67 556 65 422 q 72 817 69 689 q 83 1051 75 946 q 100 1086 85 1075 q 133 1096 115 1097 q 165 1080 150 1094 q 179 1038 179 1065 q 174 799 179 931 q 163 535 168 668 q 156 281 158 403 q 157 69 153 158 q 144 12 160 29 q 108 -4 128 -6 q 72 14 89 -3 q 57 58 56 31 m 136 1207 q 159 1288 132 1257 q 222 1323 186 1318 q 288 1304 257 1328 q 321 1224 318 1281 q 295 1156 322 1181 q 234 1127 268 1131 q 170 1143 200 1124 q 136 1207 140 1163 m -86 1217 q -58 1287 -86 1261 q 5 1316 -29 1313 q 69 1296 39 1319 q 103 1215 99 1272 q 76 1147 106 1169 q 11 1125 47 1125 q -56 1148 -25 1125 q -86 1217 -86 1171 z "},"":{"ha":999,"x_min":31,"x_max":969,"o":"m 958 543 q 956 334 969 433 q 892 158 942 235 q 752 33 843 82 q 519 -24 661 -15 q 383 -10 463 -28 q 230 49 304 8 q 101 153 156 89 q 38 306 46 217 q 51 440 31 376 q 114 548 71 503 q 222 617 157 593 q 371 633 288 640 q 515 593 447 628 q 638 500 583 558 q 730 362 692 442 q 785 183 768 282 q 824 251 807 215 q 849 331 840 286 q 859 431 858 375 q 851 558 860 486 q 739 772 836 672 q 673 735 706 753 q 611 697 640 717 q 553 681 575 675 q 523 704 531 686 q 521 746 515 722 q 547 782 526 769 q 654 847 600 817 q 472 942 574 906 q 253 983 369 979 q 207 1001 226 985 q 183 1038 188 1018 q 195 1075 179 1058 q 256 1092 211 1092 q 527 1047 393 1093 q 765 911 661 1001 q 803 933 785 922 q 836 954 821 944 q 894 974 869 976 q 928 954 918 971 q 931 913 939 938 q 889 864 922 888 q 865 848 878 856 q 840 832 853 840 q 919 700 889 772 q 958 543 950 628 m 690 122 q 667 249 690 179 q 600 381 643 319 q 498 485 557 442 q 368 531 439 528 q 249 515 297 533 q 173 465 201 496 q 135 397 144 435 q 132 322 126 358 q 165 239 139 279 q 234 166 192 199 q 335 111 276 133 q 464 82 393 89 q 690 122 582 69 z "},"":{"ha":1103,"x_min":35,"x_max":1046,"o":"m 153 57 q 139 1 156 19 q 101 -18 122 -18 q 63 1 81 -18 q 43 57 44 19 q 42 260 40 151 q 46 485 44 368 q 46 728 47 603 q 36 982 44 853 q 51 1037 35 1014 q 89 1065 67 1060 q 134 1051 111 1069 q 167 982 157 1032 q 243 764 190 869 q 365 564 296 658 q 515 390 435 469 q 672 249 594 310 q 819 151 750 189 q 933 104 888 114 q 919 399 924 253 q 915 694 914 544 q 922 1001 915 844 q 940 1329 928 1158 q 960 1372 943 1357 q 995 1387 976 1386 q 1029 1375 1014 1388 q 1043 1336 1044 1363 q 1027 1015 1033 1168 q 1020 715 1021 861 q 1025 422 1019 568 q 1042 124 1031 276 q 1038 48 1046 76 q 1011 7 1031 19 q 960 -5 992 -6 q 885 8 929 -4 q 719 83 803 31 q 558 203 636 136 q 411 348 481 271 q 288 496 342 425 q 198 626 233 567 q 153 717 163 685 q 148 628 150 683 q 145 509 146 574 q 145 376 144 444 q 147 245 146 307 q 150 133 149 183 q 153 57 151 83 m 367 1313 q 275 1274 318 1308 q 189 1182 232 1240 q 151 1158 171 1158 q 119 1170 132 1157 q 103 1206 106 1183 q 117 1254 100 1229 q 180 1325 144 1294 q 252 1376 215 1356 q 321 1408 289 1397 q 371 1418 353 1418 q 451 1387 419 1418 q 505 1317 482 1356 q 546 1248 528 1279 q 585 1217 564 1217 q 646 1225 621 1217 q 692 1249 671 1233 q 731 1284 713 1264 q 772 1326 750 1304 q 799 1334 785 1339 q 825 1317 814 1329 q 840 1287 836 1304 q 835 1256 844 1269 q 724 1152 789 1190 q 589 1114 658 1114 q 523 1129 550 1114 q 476 1167 496 1144 q 444 1215 457 1189 q 420 1264 432 1242 q 397 1300 408 1286 q 367 1313 385 1314 z "},"":{"ha":1086,"x_min":31,"x_max":1056,"o":"m 1043 656 q 973 441 1025 540 q 849 263 921 342 q 693 126 778 183 q 525 36 608 68 q 434 9 481 19 q 342 -4 388 -1 q 253 -1 296 -7 q 172 21 210 6 q 80 93 111 46 q 40 201 49 140 q 40 331 31 261 q 70 469 50 400 q 118 601 90 538 q 174 715 146 665 q 276 868 218 796 q 404 993 333 940 q 560 1073 475 1046 q 744 1092 646 1100 q 907 1044 843 1083 q 1005 946 971 1006 q 1047 811 1039 886 q 1043 656 1056 736 m 275 689 q 231 605 254 654 q 187 500 207 556 q 153 387 167 444 q 141 277 140 329 q 160 184 142 225 q 219 121 178 143 q 276 103 244 108 q 342 99 307 97 q 413 109 376 101 q 486 131 450 117 q 638 210 564 160 q 774 329 713 260 q 878 486 835 399 q 939 678 922 574 q 944 796 949 740 q 915 894 939 851 q 844 963 890 938 q 728 988 799 988 q 619 978 674 988 q 507 938 564 969 q 392 848 450 907 q 275 689 333 789 m 404 1324 q 365 1376 371 1350 q 368 1418 358 1401 q 400 1438 378 1435 q 444 1421 422 1440 q 510 1366 481 1390 q 568 1319 539 1342 q 628 1272 597 1296 q 697 1217 660 1247 q 725 1175 724 1196 q 714 1140 726 1154 q 680 1124 701 1126 q 638 1136 658 1121 q 518 1231 579 1178 q 404 1324 457 1283 z "},"":{"ha":1086,"x_min":31,"x_max":1056,"o":"m 1043 656 q 973 441 1025 540 q 849 263 921 342 q 693 126 778 183 q 525 36 608 68 q 434 9 481 19 q 342 -4 388 -1 q 253 -1 296 -7 q 172 21 210 6 q 80 93 111 46 q 40 201 49 140 q 40 331 31 261 q 70 469 50 400 q 118 601 90 538 q 174 715 146 665 q 276 868 218 796 q 404 993 333 940 q 560 1073 475 1046 q 744 1092 646 1100 q 907 1044 843 1083 q 1005 946 971 1006 q 1047 811 1039 886 q 1043 656 1056 736 m 275 689 q 231 605 254 654 q 187 500 207 556 q 153 387 167 444 q 141 277 140 329 q 160 184 142 225 q 219 121 178 143 q 276 103 244 108 q 342 99 307 97 q 413 109 376 101 q 486 131 450 117 q 638 210 564 160 q 774 329 713 260 q 878 486 835 399 q 939 678 922 574 q 944 796 949 740 q 915 894 939 851 q 844 963 890 938 q 728 988 799 988 q 619 978 674 988 q 507 938 564 969 q 392 848 450 907 q 275 689 333 789 m 682 1324 q 568 1231 629 1283 q 449 1136 507 1178 q 406 1124 428 1121 q 372 1140 385 1126 q 361 1175 360 1154 q 389 1217 363 1196 q 458 1272 426 1247 q 518 1319 489 1296 q 577 1366 547 1342 q 642 1421 607 1390 q 687 1438 665 1440 q 718 1418 708 1435 q 722 1376 728 1401 q 682 1324 715 1350 z "},"":{"ha":1086,"x_min":31,"x_max":1056,"o":"m 1043 656 q 973 441 1025 540 q 849 263 921 342 q 693 126 778 183 q 525 36 608 68 q 434 9 481 19 q 342 -4 388 -1 q 253 -1 296 -7 q 172 21 210 6 q 80 93 111 46 q 40 201 49 140 q 40 331 31 261 q 70 469 50 400 q 118 601 90 538 q 174 715 146 665 q 276 868 218 796 q 404 993 333 940 q 560 1073 475 1046 q 744 1092 646 1100 q 907 1044 843 1083 q 1005 946 971 1006 q 1047 811 1039 886 q 1043 656 1056 736 m 275 689 q 231 605 254 654 q 187 500 207 556 q 153 387 167 444 q 141 277 140 329 q 160 184 142 225 q 219 121 178 143 q 276 103 244 108 q 342 99 307 97 q 413 109 376 101 q 486 131 450 117 q 638 210 564 160 q 774 329 713 260 q 878 486 835 399 q 939 678 922 574 q 944 796 949 740 q 915 894 939 851 q 844 963 890 938 q 728 988 799 988 q 619 978 674 988 q 507 938 564 969 q 392 848 450 907 q 275 689 333 789 m 481 1335 q 510 1362 492 1354 q 546 1368 528 1369 q 580 1358 564 1367 q 603 1338 596 1350 q 642 1269 628 1293 q 666 1230 657 1244 q 681 1206 675 1215 q 694 1183 688 1196 q 692 1158 701 1172 q 666 1133 682 1143 q 633 1120 650 1122 q 610 1131 617 1118 l 542 1254 q 511 1190 522 1213 q 494 1157 500 1168 q 485 1142 488 1146 q 481 1131 483 1138 q 458 1115 475 1117 q 425 1119 442 1113 q 397 1136 408 1125 q 390 1160 386 1147 q 398 1180 393 1168 q 412 1212 403 1192 q 438 1261 421 1232 q 481 1335 454 1290 z "},"":{"ha":1086,"x_min":31,"x_max":1114,"o":"m 1043 656 q 973 441 1025 540 q 849 263 921 342 q 693 126 778 183 q 525 36 608 68 q 434 9 481 19 q 342 -4 388 -1 q 253 -1 296 -7 q 172 21 210 6 q 80 93 111 46 q 40 201 49 140 q 40 331 31 261 q 70 469 50 400 q 118 601 90 538 q 174 715 146 665 q 276 868 218 796 q 404 993 333 940 q 560 1073 475 1046 q 744 1092 646 1100 q 907 1044 843 1083 q 1005 946 971 1006 q 1047 811 1039 886 q 1043 656 1056 736 m 275 689 q 231 605 254 654 q 187 500 207 556 q 153 387 167 444 q 141 277 140 329 q 160 184 142 225 q 219 121 178 143 q 276 103 244 108 q 342 99 307 97 q 413 109 376 101 q 486 131 450 117 q 638 210 564 160 q 774 329 713 260 q 878 486 835 399 q 939 678 922 574 q 944 796 949 740 q 915 894 939 851 q 844 963 890 938 q 728 988 799 988 q 619 978 674 988 q 507 938 564 969 q 392 848 450 907 q 275 689 333 789 m 635 1313 q 543 1274 586 1308 q 457 1182 500 1240 q 419 1158 439 1158 q 387 1170 400 1157 q 371 1206 374 1183 q 385 1254 368 1229 q 448 1325 413 1294 q 520 1376 483 1356 q 589 1408 557 1397 q 639 1418 621 1418 q 719 1387 688 1418 q 773 1317 750 1356 q 814 1248 796 1279 q 853 1217 832 1217 q 914 1225 889 1217 q 960 1249 939 1233 q 999 1284 981 1264 q 1040 1326 1018 1304 q 1067 1334 1053 1339 q 1093 1317 1082 1329 q 1108 1287 1104 1304 q 1103 1256 1113 1269 q 992 1152 1057 1190 q 857 1114 926 1114 q 791 1129 818 1114 q 744 1167 764 1144 q 713 1215 725 1189 q 688 1264 700 1242 q 665 1300 676 1286 q 635 1313 653 1314 z "},"":{"ha":1086,"x_min":31,"x_max":1056,"o":"m 1043 656 q 973 441 1025 540 q 849 263 921 342 q 693 126 778 183 q 525 36 608 68 q 434 9 481 19 q 342 -4 388 -1 q 253 -1 296 -7 q 172 21 210 6 q 80 93 111 46 q 40 201 49 140 q 40 331 31 261 q 70 469 50 400 q 118 601 90 538 q 174 715 146 665 q 276 868 218 796 q 404 993 333 940 q 560 1073 475 1046 q 744 1092 646 1100 q 907 1044 843 1083 q 1005 946 971 1006 q 1047 811 1039 886 q 1043 656 1056 736 m 275 689 q 231 605 254 654 q 187 500 207 556 q 153 387 167 444 q 141 277 140 329 q 160 184 142 225 q 219 121 178 143 q 276 103 244 108 q 342 99 307 97 q 413 109 376 101 q 486 131 450 117 q 638 210 564 160 q 774 329 713 260 q 878 486 835 399 q 939 678 922 574 q 944 796 949 740 q 915 894 939 851 q 844 963 890 938 q 728 988 799 988 q 619 978 674 988 q 507 938 564 969 q 392 848 450 907 q 275 689 333 789 m 715 1207 q 738 1288 711 1257 q 801 1323 765 1318 q 867 1304 836 1328 q 900 1224 897 1281 q 874 1156 901 1181 q 813 1127 847 1131 q 749 1143 779 1124 q 715 1207 719 1163 m 493 1217 q 522 1287 493 1261 q 584 1316 550 1313 q 648 1296 618 1319 q 682 1215 678 1272 q 656 1147 685 1169 q 590 1125 626 1125 q 524 1148 554 1125 q 493 1217 493 1171 z "},"":{"ha":549,"x_min":33,"x_max":513,"o":"m 108 506 q 50 520 67 504 q 35 556 33 536 q 55 592 38 575 q 96 611 72 610 q 185 613 139 613 q 275 612 231 613 q 360 612 319 611 q 432 614 400 613 q 492 601 472 617 q 513 567 513 586 q 492 529 513 547 q 432 508 472 511 q 269 505 356 501 q 108 506 183 508 m 188 322 q 210 403 183 372 q 273 438 238 433 q 339 419 308 443 q 372 339 369 396 q 347 271 374 296 q 285 242 319 246 q 222 258 251 239 q 188 322 192 278 m 174 781 q 201 851 174 825 q 263 880 229 876 q 328 860 297 883 q 363 779 358 836 q 338 703 367 729 q 272 678 308 678 q 205 703 236 678 q 174 781 174 728 z "},"":{"ha":1086,"x_min":31,"x_max":1054,"o":"m 204 6 q 205 8 204 7 q 206 10 206 8 q 189 15 197 13 q 172 21 181 18 q 80 93 111 46 q 40 201 49 140 q 40 331 31 261 q 70 469 50 400 q 118 601 90 538 q 174 715 146 665 q 269 860 215 792 q 388 980 322 928 q 531 1063 453 1032 q 697 1093 608 1093 q 708 1117 703 1106 q 718 1140 713 1129 q 736 1163 725 1156 q 760 1169 747 1169 q 799 1150 782 1169 q 804 1096 815 1131 l 800 1083 q 934 1026 882 1067 q 1015 928 986 986 q 1049 801 1043 871 q 1043 656 1054 731 q 973 441 1025 540 q 849 263 921 342 q 693 126 778 183 q 525 36 608 68 q 416 4 472 15 q 306 -6 360 -7 q 301 -17 304 -8 q 273 -58 290 -46 q 240 -71 256 -71 q 203 -49 217 -71 q 204 6 189 -26 m 275 689 q 231 605 254 654 q 187 500 207 556 q 153 387 167 444 q 141 277 140 329 q 160 184 142 225 q 219 121 178 143 q 253 107 231 114 q 347 309 296 197 q 451 539 399 421 q 556 772 504 657 q 650 983 607 888 q 558 962 604 978 q 466 913 513 946 q 372 825 419 879 q 275 689 324 771 m 939 678 q 944 790 949 736 q 920 885 940 843 q 861 953 900 926 q 761 986 822 981 q 669 775 722 892 q 558 538 615 658 q 447 304 501 418 q 351 100 392 190 q 419 110 385 103 q 486 131 453 118 q 638 210 564 160 q 774 329 713 260 q 878 486 835 399 q 939 678 922 574 z "},"":{"ha":1014,"x_min":35,"x_max":983,"o":"m 464 0 q 286 31 360 0 q 163 117 213 63 q 87 244 114 171 q 47 400 60 317 q 35 572 35 483 q 40 747 35 661 q 52 911 44 832 q 63 1054 60 990 q 81 1088 64 1078 q 117 1093 97 1097 q 152 1073 138 1089 q 164 1028 167 1057 q 148 858 157 956 q 139 657 139 761 q 152 452 139 553 q 202 272 165 351 q 304 144 239 193 q 472 97 369 96 q 705 140 619 99 q 831 252 790 182 q 875 415 871 322 q 863 612 879 508 q 817 824 846 715 q 765 1033 789 932 q 774 1069 761 1054 q 807 1088 788 1085 q 847 1078 826 1090 q 875 1032 867 1067 q 933 794 904 915 q 972 558 961 672 q 969 342 983 443 q 900 165 956 240 q 740 44 844 89 q 464 0 635 0 m 368 1324 q 328 1376 335 1350 q 332 1418 322 1401 q 364 1438 342 1435 q 408 1421 386 1440 q 474 1366 444 1390 q 532 1319 503 1342 q 592 1272 561 1296 q 661 1217 624 1247 q 689 1175 688 1196 q 678 1140 690 1154 q 644 1124 665 1126 q 601 1136 622 1121 q 482 1231 543 1178 q 368 1324 421 1283 z "},"":{"ha":1014,"x_min":35,"x_max":983,"o":"m 464 0 q 286 31 360 0 q 163 117 213 63 q 87 244 114 171 q 47 400 60 317 q 35 572 35 483 q 40 747 35 661 q 52 911 44 832 q 63 1054 60 990 q 81 1088 64 1078 q 117 1093 97 1097 q 152 1073 138 1089 q 164 1028 167 1057 q 148 858 157 956 q 139 657 139 761 q 152 452 139 553 q 202 272 165 351 q 304 144 239 193 q 472 97 369 96 q 705 140 619 99 q 831 252 790 182 q 875 415 871 322 q 863 612 879 508 q 817 824 846 715 q 765 1033 789 932 q 774 1069 761 1054 q 807 1088 788 1085 q 847 1078 826 1090 q 875 1032 867 1067 q 933 794 904 915 q 972 558 961 672 q 969 342 983 443 q 900 165 956 240 q 740 44 844 89 q 464 0 635 0 m 646 1324 q 532 1231 593 1283 q 413 1136 471 1178 q 370 1124 392 1121 q 336 1140 349 1126 q 325 1175 324 1154 q 353 1217 326 1196 q 422 1272 390 1247 q 482 1319 453 1296 q 541 1366 511 1342 q 606 1421 571 1390 q 651 1438 629 1440 q 682 1418 672 1435 q 685 1376 692 1401 q 646 1324 679 1350 z "},"":{"ha":1014,"x_min":35,"x_max":983,"o":"m 464 0 q 286 31 360 0 q 163 117 213 63 q 87 244 114 171 q 47 400 60 317 q 35 572 35 483 q 40 747 35 661 q 52 911 44 832 q 63 1054 60 990 q 81 1088 64 1078 q 117 1093 97 1097 q 152 1073 138 1089 q 164 1028 167 1057 q 148 858 157 956 q 139 657 139 761 q 152 452 139 553 q 202 272 165 351 q 304 144 239 193 q 472 97 369 96 q 705 140 619 99 q 831 252 790 182 q 875 415 871 322 q 863 612 879 508 q 817 824 846 715 q 765 1033 789 932 q 774 1069 761 1054 q 807 1088 788 1085 q 847 1078 826 1090 q 875 1032 867 1067 q 933 794 904 915 q 972 558 961 672 q 969 342 983 443 q 900 165 956 240 q 740 44 844 89 q 464 0 635 0 m 444 1335 q 474 1362 456 1354 q 510 1368 492 1369 q 544 1358 528 1367 q 567 1338 560 1350 q 606 1269 592 1293 q 630 1230 621 1244 q 645 1206 639 1215 q 658 1183 651 1196 q 656 1158 665 1172 q 630 1133 646 1143 q 597 1120 614 1122 q 574 1131 581 1118 l 506 1254 q 475 1190 486 1213 q 458 1157 464 1168 q 449 1142 451 1146 q 444 1131 447 1138 q 422 1115 439 1117 q 389 1119 406 1113 q 361 1136 372 1125 q 354 1160 350 1147 q 362 1180 357 1168 q 376 1212 367 1192 q 401 1261 385 1232 q 444 1335 418 1290 z "},"":{"ha":1014,"x_min":35,"x_max":983,"o":"m 464 0 q 286 31 360 0 q 163 117 213 63 q 87 244 114 171 q 47 400 60 317 q 35 572 35 483 q 40 747 35 661 q 52 911 44 832 q 63 1054 60 990 q 81 1088 64 1078 q 117 1093 97 1097 q 152 1073 138 1089 q 164 1028 167 1057 q 148 858 157 956 q 139 657 139 761 q 152 452 139 553 q 202 272 165 351 q 304 144 239 193 q 472 97 369 96 q 705 140 619 99 q 831 252 790 182 q 875 415 871 322 q 863 612 879 508 q 817 824 846 715 q 765 1033 789 932 q 774 1069 761 1054 q 807 1088 788 1085 q 847 1078 826 1090 q 875 1032 867 1067 q 933 794 904 915 q 972 558 961 672 q 969 342 983 443 q 900 165 956 240 q 740 44 844 89 q 464 0 635 0 m 525 1207 q 548 1288 521 1257 q 610 1323 575 1318 q 676 1304 646 1328 q 710 1224 707 1281 q 684 1156 711 1181 q 623 1127 657 1131 q 559 1143 589 1124 q 525 1207 529 1163 m 303 1217 q 331 1287 303 1261 q 394 1316 360 1313 q 458 1296 428 1319 q 492 1215 488 1272 q 465 1147 494 1169 q 400 1125 436 1125 q 333 1148 364 1125 q 303 1217 303 1171 z "},"":{"ha":1040,"x_min":33,"x_max":1008,"o":"m 540 343 q 481 502 529 421 q 364 662 432 583 q 217 813 296 740 q 64 943 138 885 q 36 987 39 964 q 44 1026 33 1010 q 72 1050 54 1043 q 107 1044 90 1057 q 204 967 151 1011 q 310 872 257 922 q 416 768 364 821 q 510 665 468 715 q 581 569 551 614 q 619 492 611 525 q 700 624 660 547 q 778 781 740 700 q 853 938 817 861 q 919 1074 889 1015 q 955 1108 936 1104 q 987 1101 974 1113 q 1004 1065 1000 1089 q 997 1017 1008 1042 q 871 746 933 874 q 744 485 808 618 q 612 206 681 353 q 465 -119 543 60 q 432 -155 453 -149 q 393 -153 411 -161 q 365 -127 375 -144 q 361 -92 354 -110 q 454 127 406 21 q 540 343 503 233 m 660 1324 q 546 1231 607 1283 q 426 1136 485 1178 q 384 1124 406 1121 q 350 1140 363 1126 q 339 1175 338 1154 q 367 1217 340 1196 q 435 1272 404 1247 q 496 1319 467 1296 q 555 1366 525 1342 q 619 1421 585 1390 q 665 1438 643 1440 q 696 1418 686 1435 q 699 1376 706 1401 q 660 1324 693 1350 z "},"":{"ha":929,"x_min":35,"x_max":896,"o":"m 36 58 q 42 294 40 165 q 47 556 44 422 q 51 817 49 689 q 63 1051 54 946 q 79 1086 64 1075 q 112 1096 94 1097 q 144 1080 129 1094 q 158 1038 158 1065 q 154 850 158 950 q 253 861 200 857 q 365 867 307 865 q 481 868 422 869 q 593 860 539 867 q 767 813 700 847 q 865 734 833 779 q 894 636 896 689 q 864 533 893 583 q 781 438 835 482 q 656 368 728 394 q 531 333 597 347 q 396 310 464 319 q 261 296 328 301 q 135 286 194 290 q 133 169 133 224 q 136 69 133 115 q 123 12 139 29 q 88 -4 107 -6 q 51 14 68 -3 q 36 58 35 31 m 138 399 q 238 401 179 399 q 363 410 297 403 q 496 432 429 418 q 619 469 563 446 q 735 544 694 501 q 778 628 776 586 q 737 703 779 669 q 600 749 694 736 q 472 758 540 757 q 341 754 404 758 q 226 742 278 750 q 150 724 175 733 q 144 560 147 642 q 138 399 140 478 z "},"":{"ha":1040,"x_min":33,"x_max":1008,"o":"m 540 343 q 481 502 529 421 q 364 662 432 583 q 217 813 296 740 q 64 943 138 885 q 36 987 39 964 q 44 1026 33 1010 q 72 1050 54 1043 q 107 1044 90 1057 q 204 967 151 1011 q 310 872 257 922 q 416 768 364 821 q 510 665 468 715 q 581 569 551 614 q 619 492 611 525 q 700 624 660 547 q 778 781 740 700 q 853 938 817 861 q 919 1074 889 1015 q 955 1108 936 1104 q 987 1101 974 1113 q 1004 1065 1000 1089 q 997 1017 1008 1042 q 871 746 933 874 q 744 485 808 618 q 612 206 681 353 q 465 -119 543 60 q 432 -155 453 -149 q 393 -153 411 -161 q 365 -127 375 -144 q 361 -92 354 -110 q 454 127 406 21 q 540 343 503 233 m 539 1207 q 562 1288 535 1257 q 624 1323 589 1318 q 690 1304 660 1328 q 724 1224 721 1281 q 698 1156 725 1181 q 637 1127 671 1131 q 573 1143 603 1124 q 539 1207 543 1163 m 317 1217 q 345 1287 317 1261 q 408 1316 374 1313 q 472 1296 442 1319 q 506 1215 501 1272 q 479 1147 508 1169 q 414 1125 450 1125 q 347 1148 378 1125 q 317 1217 317 1171 z "},"":{"ha":1108,"x_min":18,"x_max":1088,"o":"m 806 1071 q 827 1091 813 1082 q 856 1099 842 1100 q 883 1083 871 1097 q 897 1031 894 1068 q 919 779 906 897 q 952 548 932 661 q 1001 319 972 435 q 1068 75 1029 204 q 1068 26 1078 44 q 1041 4 1058 8 q 1004 10 1024 0 q 975 46 985 19 q 947 126 961 82 q 918 217 932 169 q 892 310 904 264 q 871 397 879 357 q 733 349 806 369 q 593 312 660 328 q 473 285 526 296 q 390 267 419 275 q 308 169 347 218 q 234 76 268 121 q 172 -6 200 32 q 124 -69 144 -43 q 78 -99 101 -99 q 39 -85 54 -100 q 21 -47 24 -71 q 39 0 18 -22 q 319 331 201 176 q 526 620 438 486 q 680 867 614 754 q 806 1071 746 979 m 806 879 q 721 750 758 813 q 647 628 683 688 q 573 510 611 568 q 488 393 535 451 q 560 408 515 399 q 655 433 604 418 q 755 466 706 447 q 842 508 804 485 l 806 879 m 683 1131 q 625 1145 642 1129 q 610 1181 608 1161 q 630 1218 613 1201 q 671 1236 647 1235 q 760 1238 714 1239 q 850 1238 806 1238 q 935 1238 894 1238 q 1007 1239 975 1238 q 1067 1226 1047 1242 q 1088 1192 1088 1211 q 1067 1154 1088 1172 q 1007 1133 1047 1136 q 844 1131 931 1128 q 683 1131 758 1133 z "},"":{"ha":1108,"x_min":18,"x_max":1088,"o":"m 806 1071 q 827 1091 813 1082 q 856 1099 842 1100 q 883 1083 871 1097 q 897 1031 894 1068 q 919 779 906 897 q 952 548 932 661 q 1001 319 972 435 q 1068 75 1029 204 q 1068 26 1078 44 q 1041 4 1058 8 q 1004 10 1024 0 q 975 46 985 19 q 947 126 961 82 q 918 217 932 169 q 892 310 904 264 q 871 397 879 357 q 733 349 806 369 q 593 312 660 328 q 473 285 526 296 q 390 267 419 275 q 308 169 347 218 q 234 76 268 121 q 172 -6 200 32 q 124 -69 144 -43 q 78 -99 101 -99 q 39 -85 54 -100 q 21 -47 24 -71 q 39 0 18 -22 q 319 331 201 176 q 526 620 438 486 q 680 867 614 754 q 806 1071 746 979 m 806 879 q 721 750 758 813 q 647 628 683 688 q 573 510 611 568 q 488 393 535 451 q 560 408 515 399 q 655 433 604 418 q 755 466 706 447 q 842 508 804 485 l 806 879 m 683 1131 q 625 1145 642 1129 q 610 1181 608 1161 q 630 1218 613 1201 q 671 1236 647 1235 q 760 1238 714 1239 q 850 1238 806 1238 q 935 1238 894 1238 q 1007 1239 975 1238 q 1067 1226 1047 1242 q 1088 1192 1088 1211 q 1067 1154 1088 1172 q 1007 1133 1047 1136 q 844 1131 931 1128 q 683 1131 758 1133 z "},"":{"ha":1108,"x_min":18,"x_max":1078,"o":"m 806 1071 q 827 1091 813 1082 q 856 1099 842 1100 q 883 1083 871 1097 q 897 1031 894 1068 q 919 779 906 897 q 952 548 932 661 q 1001 319 972 435 q 1068 75 1029 204 q 1068 26 1078 44 q 1041 4 1058 8 q 1004 10 1024 0 q 975 46 985 19 q 947 126 961 82 q 918 217 932 169 q 892 310 904 264 q 871 397 879 357 q 733 349 806 369 q 593 312 660 328 q 473 285 526 296 q 390 267 419 275 q 308 169 347 218 q 234 76 268 121 q 172 -6 200 32 q 124 -69 144 -43 q 78 -99 101 -99 q 39 -85 54 -100 q 21 -47 24 -71 q 39 0 18 -22 q 319 331 201 176 q 526 620 438 486 q 680 867 614 754 q 806 1071 746 979 m 806 879 q 721 750 758 813 q 647 628 683 688 q 573 510 611 568 q 488 393 535 451 q 560 408 515 399 q 655 433 604 418 q 755 466 706 447 q 842 508 804 485 l 806 879 m 982 1315 q 967 1233 982 1268 q 930 1174 953 1197 q 879 1138 907 1150 q 822 1126 851 1126 q 728 1174 769 1126 q 675 1310 686 1221 q 685 1334 674 1322 q 711 1351 696 1346 q 740 1353 726 1357 q 758 1329 754 1349 q 784 1241 769 1272 q 831 1210 799 1210 q 859 1223 847 1210 q 878 1255 871 1236 q 891 1294 886 1274 q 897 1326 896 1314 q 913 1347 900 1342 q 942 1349 926 1351 q 969 1338 957 1347 q 982 1315 982 1329 z "},"":{"ha":1108,"x_min":18,"x_max":1078,"o":"m 806 1071 q 827 1091 813 1082 q 856 1099 842 1100 q 883 1083 871 1097 q 897 1031 894 1068 q 919 779 906 897 q 952 548 932 661 q 1001 319 972 435 q 1068 75 1029 204 q 1068 26 1078 44 q 1041 4 1058 8 q 1004 10 1024 0 q 975 46 985 19 q 947 126 961 82 q 918 217 932 169 q 892 310 904 264 q 871 397 879 357 q 733 349 806 369 q 593 312 660 328 q 473 285 526 296 q 390 267 419 275 q 308 169 347 218 q 234 76 268 121 q 172 -6 200 32 q 124 -69 144 -43 q 78 -99 101 -99 q 39 -85 54 -100 q 21 -47 24 -71 q 39 0 18 -22 q 319 331 201 176 q 526 620 438 486 q 680 867 614 754 q 806 1071 746 979 m 806 879 q 721 750 758 813 q 647 628 683 688 q 573 510 611 568 q 488 393 535 451 q 560 408 515 399 q 655 433 604 418 q 755 466 706 447 q 842 508 804 485 l 806 879 m 982 1315 q 967 1233 982 1268 q 930 1174 953 1197 q 879 1138 907 1150 q 822 1126 851 1126 q 728 1174 769 1126 q 675 1310 686 1221 q 685 1334 674 1322 q 711 1351 696 1346 q 740 1353 726 1357 q 758 1329 754 1349 q 784 1241 769 1272 q 831 1210 799 1210 q 859 1223 847 1210 q 878 1255 871 1236 q 891 1294 886 1274 q 897 1326 896 1314 q 913 1347 900 1342 q 942 1349 926 1351 q 969 1338 957 1347 q 982 1315 982 1329 z "},"":{"ha":1108,"x_min":18,"x_max":1111,"o":"m 806 1071 q 827 1091 813 1082 q 856 1099 842 1100 q 883 1083 871 1097 q 897 1031 894 1068 q 919 779 906 897 q 952 548 932 661 q 1001 319 972 435 q 1068 75 1029 204 q 1068 26 1078 44 q 1041 4 1058 8 q 1004 10 1024 0 q 975 46 985 19 q 947 126 961 82 q 918 217 932 169 q 892 310 904 264 q 871 397 879 357 q 733 349 806 369 q 593 312 660 328 q 473 285 526 296 q 390 267 419 275 q 308 169 347 218 q 234 76 268 121 q 172 -6 200 32 q 124 -69 144 -43 q 78 -99 101 -99 q 39 -85 54 -100 q 21 -47 24 -71 q 39 0 18 -22 q 319 331 201 176 q 526 620 438 486 q 680 867 614 754 q 806 1071 746 979 m 806 879 q 721 750 758 813 q 647 628 683 688 q 573 510 611 568 q 488 393 535 451 q 560 408 515 399 q 655 433 604 418 q 755 466 706 447 q 842 508 804 485 l 806 879 m 1022 -278 q 951 -215 974 -257 q 927 -124 929 -172 q 939 -28 925 -75 q 976 51 953 19 q 1002 67 986 64 q 1031 64 1018 69 q 1050 45 1044 58 q 1044 15 1056 32 q 1017 -40 1028 -10 q 1008 -98 1007 -69 q 1027 -152 1010 -126 q 1085 -194 1044 -178 q 1108 -222 1107 -204 q 1098 -255 1110 -239 q 1065 -279 1086 -271 q 1022 -278 1044 -287 z "},"":{"ha":1108,"x_min":18,"x_max":1111,"o":"m 806 1071 q 827 1091 813 1082 q 856 1099 842 1100 q 883 1083 871 1097 q 897 1031 894 1068 q 919 779 906 897 q 952 548 932 661 q 1001 319 972 435 q 1068 75 1029 204 q 1068 26 1078 44 q 1041 4 1058 8 q 1004 10 1024 0 q 975 46 985 19 q 947 126 961 82 q 918 217 932 169 q 892 310 904 264 q 871 397 879 357 q 733 349 806 369 q 593 312 660 328 q 473 285 526 296 q 390 267 419 275 q 308 169 347 218 q 234 76 268 121 q 172 -6 200 32 q 124 -69 144 -43 q 78 -99 101 -99 q 39 -85 54 -100 q 21 -47 24 -71 q 39 0 18 -22 q 319 331 201 176 q 526 620 438 486 q 680 867 614 754 q 806 1071 746 979 m 806 879 q 721 750 758 813 q 647 628 683 688 q 573 510 611 568 q 488 393 535 451 q 560 408 515 399 q 655 433 604 418 q 755 466 706 447 q 842 508 804 485 l 806 879 m 1022 -278 q 951 -215 974 -257 q 927 -124 929 -172 q 939 -28 925 -75 q 976 51 953 19 q 1002 67 986 64 q 1031 64 1018 69 q 1050 45 1044 58 q 1044 15 1056 32 q 1017 -40 1028 -10 q 1008 -98 1007 -69 q 1027 -152 1010 -126 q 1085 -194 1044 -178 q 1108 -222 1107 -204 q 1098 -255 1110 -239 q 1065 -279 1086 -271 q 1022 -278 1044 -287 z "},"":{"ha":1086,"x_min":26,"x_max":1051,"o":"m 326 -10 q 210 -6 260 -15 q 127 25 161 4 q 73 77 93 46 q 44 147 53 108 q 43 340 26 236 q 103 550 60 444 q 213 753 147 656 q 359 926 279 851 q 528 1047 439 1001 q 708 1090 618 1092 q 768 1071 740 1090 q 816 1022 796 1051 q 848 958 836 993 q 860 894 860 924 q 847 840 860 858 q 817 822 833 822 q 784 840 800 822 q 761 892 768 857 q 755 924 758 908 q 745 954 751 940 q 726 976 739 968 q 693 985 714 985 q 558 944 628 985 q 424 838 489 904 q 303 688 360 772 q 209 515 247 603 q 153 341 171 426 q 147 188 135 256 q 201 105 157 132 q 332 90 244 78 q 494 132 404 101 q 674 213 585 163 q 840 329 763 263 q 965 476 918 396 q 1008 516 988 515 q 1040 497 1029 517 q 1050 443 1051 476 q 1025 381 1049 410 q 874 230 961 299 q 692 110 786 161 q 502 27 597 58 q 326 -10 407 -4 m 682 1324 q 568 1231 629 1283 q 449 1136 507 1178 q 406 1124 428 1121 q 372 1140 385 1126 q 361 1175 360 1154 q 389 1217 363 1196 q 458 1272 426 1247 q 518 1319 489 1296 q 577 1366 547 1342 q 642 1421 607 1390 q 687 1438 665 1440 q 718 1418 708 1435 q 722 1376 728 1401 q 682 1324 715 1350 z "},"":{"ha":1086,"x_min":26,"x_max":1051,"o":"m 326 -10 q 210 -6 260 -15 q 127 25 161 4 q 73 77 93 46 q 44 147 53 108 q 43 340 26 236 q 103 550 60 444 q 213 753 147 656 q 359 926 279 851 q 528 1047 439 1001 q 708 1090 618 1092 q 768 1071 740 1090 q 816 1022 796 1051 q 848 958 836 993 q 860 894 860 924 q 847 840 860 858 q 817 822 833 822 q 784 840 800 822 q 761 892 768 857 q 755 924 758 908 q 745 954 751 940 q 726 976 739 968 q 693 985 714 985 q 558 944 628 985 q 424 838 489 904 q 303 688 360 772 q 209 515 247 603 q 153 341 171 426 q 147 188 135 256 q 201 105 157 132 q 332 90 244 78 q 494 132 404 101 q 674 213 585 163 q 840 329 763 263 q 965 476 918 396 q 1008 516 988 515 q 1040 497 1029 517 q 1050 443 1051 476 q 1025 381 1049 410 q 874 230 961 299 q 692 110 786 161 q 502 27 597 58 q 326 -10 407 -4 m 682 1324 q 568 1231 629 1283 q 449 1136 507 1178 q 406 1124 428 1121 q 372 1140 385 1126 q 361 1175 360 1154 q 389 1217 363 1196 q 458 1272 426 1247 q 518 1319 489 1296 q 577 1366 547 1342 q 642 1421 607 1390 q 687 1438 665 1440 q 718 1418 708 1435 q 722 1376 728 1401 q 682 1324 715 1350 z "},"":{"ha":1086,"x_min":26,"x_max":1051,"o":"m 326 -10 q 210 -6 260 -15 q 127 25 161 4 q 73 77 93 46 q 44 147 53 108 q 43 340 26 236 q 103 550 60 444 q 213 753 147 656 q 359 926 279 851 q 528 1047 439 1001 q 708 1090 618 1092 q 768 1071 740 1090 q 816 1022 796 1051 q 848 958 836 993 q 860 894 860 924 q 847 840 860 858 q 817 822 833 822 q 784 840 800 822 q 761 892 768 857 q 755 924 758 908 q 745 954 751 940 q 726 976 739 968 q 693 985 714 985 q 558 944 628 985 q 424 838 489 904 q 303 688 360 772 q 209 515 247 603 q 153 341 171 426 q 147 188 135 256 q 201 105 157 132 q 332 90 244 78 q 494 132 404 101 q 674 213 585 163 q 840 329 763 263 q 965 476 918 396 q 1008 516 988 515 q 1040 497 1029 517 q 1050 443 1051 476 q 1025 381 1049 410 q 874 230 961 299 q 692 110 786 161 q 502 27 597 58 q 326 -10 407 -4 m 481 1335 q 510 1362 492 1354 q 546 1368 528 1369 q 580 1358 564 1367 q 603 1338 596 1350 q 642 1269 628 1293 q 666 1230 657 1244 q 681 1206 675 1215 q 694 1183 688 1196 q 692 1158 701 1172 q 666 1133 682 1143 q 633 1120 650 1122 q 610 1131 617 1118 l 542 1254 q 511 1190 522 1213 q 494 1157 500 1168 q 485 1142 488 1146 q 481 1131 483 1138 q 458 1115 475 1117 q 425 1119 442 1113 q 397 1136 408 1125 q 390 1160 386 1147 q 398 1180 393 1168 q 412 1212 403 1192 q 438 1261 421 1232 q 481 1335 454 1290 z "},"":{"ha":1086,"x_min":26,"x_max":1051,"o":"m 326 -10 q 210 -6 260 -15 q 127 25 161 4 q 73 77 93 46 q 44 147 53 108 q 43 340 26 236 q 103 550 60 444 q 213 753 147 656 q 359 926 279 851 q 528 1047 439 1001 q 708 1090 618 1092 q 768 1071 740 1090 q 816 1022 796 1051 q 848 958 836 993 q 860 894 860 924 q 847 840 860 858 q 817 822 833 822 q 784 840 800 822 q 761 892 768 857 q 755 924 758 908 q 745 954 751 940 q 726 976 739 968 q 693 985 714 985 q 558 944 628 985 q 424 838 489 904 q 303 688 360 772 q 209 515 247 603 q 153 341 171 426 q 147 188 135 256 q 201 105 157 132 q 332 90 244 78 q 494 132 404 101 q 674 213 585 163 q 840 329 763 263 q 965 476 918 396 q 1008 516 988 515 q 1040 497 1029 517 q 1050 443 1051 476 q 1025 381 1049 410 q 874 230 961 299 q 692 110 786 161 q 502 27 597 58 q 326 -10 407 -4 m 481 1335 q 510 1362 492 1354 q 546 1368 528 1369 q 580 1358 564 1367 q 603 1338 596 1350 q 642 1269 628 1293 q 666 1230 657 1244 q 681 1206 675 1215 q 694 1183 688 1196 q 692 1158 701 1172 q 666 1133 682 1143 q 633 1120 650 1122 q 610 1131 617 1118 l 542 1254 q 511 1190 522 1213 q 494 1157 500 1168 q 485 1142 488 1146 q 481 1131 483 1138 q 458 1115 475 1117 q 425 1119 442 1113 q 397 1136 408 1125 q 390 1160 386 1147 q 398 1180 393 1168 q 412 1212 403 1192 q 438 1261 421 1232 q 481 1335 454 1290 z "},"":{"ha":1086,"x_min":26,"x_max":1051,"o":"m 326 -10 q 210 -6 260 -15 q 127 25 161 4 q 73 77 93 46 q 44 147 53 108 q 43 340 26 236 q 103 550 60 444 q 213 753 147 656 q 359 926 279 851 q 528 1047 439 1001 q 708 1090 618 1092 q 768 1071 740 1090 q 816 1022 796 1051 q 848 958 836 993 q 860 894 860 924 q 847 840 860 858 q 817 822 833 822 q 784 840 800 822 q 761 892 768 857 q 755 924 758 908 q 745 954 751 940 q 726 976 739 968 q 693 985 714 985 q 558 944 628 985 q 424 838 489 904 q 303 688 360 772 q 209 515 247 603 q 153 341 171 426 q 147 188 135 256 q 201 105 157 132 q 332 90 244 78 q 494 132 404 101 q 674 213 585 163 q 840 329 763 263 q 965 476 918 396 q 1008 516 988 515 q 1040 497 1029 517 q 1050 443 1051 476 q 1025 381 1049 410 q 874 230 961 299 q 692 110 786 161 q 502 27 597 58 q 326 -10 407 -4 m 451 1208 q 474 1289 447 1258 q 537 1324 501 1319 q 603 1306 572 1329 q 636 1225 633 1282 q 610 1157 638 1182 q 549 1128 583 1132 q 485 1144 515 1125 q 451 1208 456 1164 z "},"":{"ha":1086,"x_min":26,"x_max":1051,"o":"m 326 -10 q 210 -6 260 -15 q 127 25 161 4 q 73 77 93 46 q 44 147 53 108 q 43 340 26 236 q 103 550 60 444 q 213 753 147 656 q 359 926 279 851 q 528 1047 439 1001 q 708 1090 618 1092 q 768 1071 740 1090 q 816 1022 796 1051 q 848 958 836 993 q 860 894 860 924 q 847 840 860 858 q 817 822 833 822 q 784 840 800 822 q 761 892 768 857 q 755 924 758 908 q 745 954 751 940 q 726 976 739 968 q 693 985 714 985 q 558 944 628 985 q 424 838 489 904 q 303 688 360 772 q 209 515 247 603 q 153 341 171 426 q 147 188 135 256 q 201 105 157 132 q 332 90 244 78 q 494 132 404 101 q 674 213 585 163 q 840 329 763 263 q 965 476 918 396 q 1008 516 988 515 q 1040 497 1029 517 q 1050 443 1051 476 q 1025 381 1049 410 q 874 230 961 299 q 692 110 786 161 q 502 27 597 58 q 326 -10 407 -4 m 451 1208 q 474 1289 447 1258 q 537 1324 501 1319 q 603 1306 572 1329 q 636 1225 633 1282 q 610 1157 638 1182 q 549 1128 583 1132 q 485 1144 515 1125 q 451 1208 456 1164 z "},"":{"ha":1086,"x_min":26,"x_max":1051,"o":"m 326 -10 q 210 -6 260 -15 q 127 25 161 4 q 73 77 93 46 q 44 147 53 108 q 43 340 26 236 q 103 550 60 444 q 213 753 147 656 q 359 926 279 851 q 528 1047 439 1001 q 708 1090 618 1092 q 768 1071 740 1090 q 816 1022 796 1051 q 848 958 836 993 q 860 894 860 924 q 847 840 860 858 q 817 822 833 822 q 784 840 800 822 q 761 892 768 857 q 755 924 758 908 q 745 954 751 940 q 726 976 739 968 q 693 985 714 985 q 558 944 628 985 q 424 838 489 904 q 303 688 360 772 q 209 515 247 603 q 153 341 171 426 q 147 188 135 256 q 201 105 157 132 q 332 90 244 78 q 494 132 404 101 q 674 213 585 163 q 840 329 763 263 q 965 476 918 396 q 1008 516 988 515 q 1040 497 1029 517 q 1050 443 1051 476 q 1025 381 1049 410 q 874 230 961 299 q 692 110 786 161 q 502 27 597 58 q 326 -10 407 -4 m 606 1144 q 576 1117 594 1125 q 540 1111 558 1110 q 506 1121 522 1113 q 483 1142 490 1129 q 444 1211 458 1186 q 420 1251 429 1236 q 405 1274 411 1265 q 392 1296 399 1283 q 394 1322 385 1307 q 420 1347 404 1336 q 453 1359 436 1357 q 476 1349 469 1361 l 544 1225 q 575 1289 564 1267 q 592 1322 586 1311 q 601 1338 599 1333 q 606 1349 604 1343 q 628 1365 611 1363 q 661 1360 644 1367 q 689 1343 678 1354 q 696 1319 700 1332 q 689 1299 693 1311 q 675 1267 685 1288 q 649 1218 665 1247 q 606 1144 633 1189 z "},"":{"ha":1086,"x_min":26,"x_max":1051,"o":"m 326 -10 q 210 -6 260 -15 q 127 25 161 4 q 73 77 93 46 q 44 147 53 108 q 43 340 26 236 q 103 550 60 444 q 213 753 147 656 q 359 926 279 851 q 528 1047 439 1001 q 708 1090 618 1092 q 768 1071 740 1090 q 816 1022 796 1051 q 848 958 836 993 q 860 894 860 924 q 847 840 860 858 q 817 822 833 822 q 784 840 800 822 q 761 892 768 857 q 755 924 758 908 q 745 954 751 940 q 726 976 739 968 q 693 985 714 985 q 558 944 628 985 q 424 838 489 904 q 303 688 360 772 q 209 515 247 603 q 153 341 171 426 q 147 188 135 256 q 201 105 157 132 q 332 90 244 78 q 494 132 404 101 q 674 213 585 163 q 840 329 763 263 q 965 476 918 396 q 1008 516 988 515 q 1040 497 1029 517 q 1050 443 1051 476 q 1025 381 1049 410 q 874 230 961 299 q 692 110 786 161 q 502 27 597 58 q 326 -10 407 -4 m 606 1144 q 576 1117 594 1125 q 540 1111 558 1110 q 506 1121 522 1113 q 483 1142 490 1129 q 444 1211 458 1186 q 420 1251 429 1236 q 405 1274 411 1265 q 392 1296 399 1283 q 394 1322 385 1307 q 420 1347 404 1336 q 453 1359 436 1357 q 476 1349 469 1361 l 544 1225 q 575 1289 564 1267 q 592 1322 586 1311 q 601 1338 599 1333 q 606 1349 604 1343 q 628 1365 611 1363 q 661 1360 644 1367 q 689 1343 678 1354 q 696 1319 700 1332 q 689 1299 693 1311 q 675 1267 685 1288 q 649 1218 665 1247 q 606 1144 633 1189 z "},"":{"ha":1081,"x_min":33,"x_max":1053,"o":"m 113 -10 q 60 2 74 -11 q 43 56 46 15 q 38 178 40 108 q 36 326 36 247 q 37 488 36 404 q 38 652 38 572 q 39 803 39 732 q 38 931 39 875 q 35 1001 38 972 q 41 1049 33 1031 q 72 1075 49 1067 q 144 1085 94 1083 q 344 1077 242 1088 q 544 1042 446 1067 q 730 976 642 1017 q 885 878 818 936 q 995 744 953 819 q 1044 571 1038 668 q 988 350 1053 453 q 800 170 924 247 q 501 46 676 93 q 113 -10 326 -1 m 143 96 q 492 153 343 113 q 741 254 642 193 q 889 395 840 315 q 938 569 938 475 q 901 697 938 638 q 801 806 864 757 q 658 893 739 856 q 488 953 576 931 q 309 983 399 976 q 140 979 219 990 q 140 857 140 929 q 139 701 139 785 q 138 530 139 618 q 138 360 138 442 q 140 210 139 279 q 143 96 140 140 m 603 1144 q 574 1117 592 1125 q 538 1111 556 1110 q 503 1121 519 1113 q 481 1142 488 1129 q 441 1211 456 1186 q 417 1251 426 1236 q 402 1274 408 1265 q 389 1296 396 1283 q 392 1322 382 1307 q 417 1347 401 1336 q 450 1359 433 1357 q 474 1349 467 1361 l 542 1225 q 572 1289 561 1267 q 590 1322 583 1311 q 599 1338 596 1333 q 603 1349 601 1343 q 625 1365 608 1363 q 658 1360 642 1367 q 686 1343 675 1354 q 693 1319 697 1332 q 686 1299 690 1311 q 672 1267 682 1288 q 647 1218 663 1247 q 603 1144 631 1189 z "},"":{"ha":1208,"x_min":33,"x_max":1201,"o":"m 113 -10 q 60 2 74 -11 q 43 56 46 15 q 38 178 40 108 q 36 326 36 247 q 37 488 36 404 q 38 652 38 572 q 39 803 39 732 q 38 931 39 875 q 35 1001 38 972 q 41 1049 33 1031 q 72 1075 49 1067 q 144 1085 94 1083 q 344 1077 242 1088 q 544 1042 446 1067 q 730 976 642 1017 q 885 878 818 936 q 995 744 953 819 q 1044 571 1038 668 q 988 350 1053 453 q 800 170 924 247 q 501 46 676 93 q 113 -10 326 -1 m 143 96 q 492 153 343 113 q 741 254 642 193 q 889 395 840 315 q 938 569 938 475 q 901 697 938 638 q 801 806 864 757 q 658 893 739 856 q 488 953 576 931 q 309 983 399 976 q 140 979 219 990 q 140 857 140 929 q 139 701 139 785 q 138 530 139 618 q 138 360 138 442 q 140 210 139 279 q 143 96 140 140 m 1132 744 q 1097 722 1118 724 q 1060 728 1076 719 q 1038 756 1044 738 q 1046 793 1032 774 q 1083 871 1074 832 q 1086 947 1092 910 q 1063 1022 1081 985 q 1018 1093 1044 1058 q 1003 1139 1000 1117 q 1024 1173 1007 1161 q 1066 1178 1040 1185 q 1117 1136 1092 1172 q 1194 943 1186 1039 q 1132 744 1201 847 z "},"":{"ha":1081,"x_min":-36,"x_max":1053,"o":"m 113 -10 q 60 2 74 -11 q 43 56 46 15 q 39 160 40 101 q 37 287 38 219 q 37 426 36 354 q 38 571 38 499 q -20 587 -4 571 q -34 622 -36 603 q -15 658 -32 642 q 26 676 3 675 l 38 676 q 39 815 39 750 q 38 931 39 879 q 35 1001 38 972 q 41 1049 33 1031 q 72 1075 49 1067 q 144 1085 94 1083 q 344 1077 242 1088 q 544 1042 446 1067 q 730 976 642 1017 q 885 878 818 936 q 995 744 953 819 q 1044 571 1038 668 q 988 350 1053 453 q 800 170 924 247 q 501 46 676 93 q 113 -10 326 -1 m 143 96 q 492 153 343 113 q 741 254 642 193 q 889 395 840 315 q 938 569 938 475 q 901 697 938 638 q 801 806 864 757 q 658 893 739 856 q 488 953 576 931 q 309 983 399 976 q 140 979 219 990 q 140 848 140 926 q 139 678 139 769 q 260 677 201 678 q 363 679 318 676 q 423 667 403 682 q 443 632 443 651 q 423 594 443 613 q 363 574 403 576 q 253 571 310 571 q 138 571 196 571 q 138 432 138 501 q 138 300 138 363 q 140 185 139 238 q 143 96 142 132 z "},"":{"ha":1081,"x_min":-36,"x_max":1053,"o":"m 113 -10 q 60 2 74 -11 q 43 56 46 15 q 39 160 40 101 q 37 287 38 219 q 37 426 36 354 q 38 571 38 499 q -20 587 -4 571 q -34 622 -36 603 q -15 658 -32 642 q 26 676 3 675 l 38 676 q 39 815 39 750 q 38 931 39 879 q 35 1001 38 972 q 41 1049 33 1031 q 72 1075 49 1067 q 144 1085 94 1083 q 344 1077 242 1088 q 544 1042 446 1067 q 730 976 642 1017 q 885 878 818 936 q 995 744 953 819 q 1044 571 1038 668 q 988 350 1053 453 q 800 170 924 247 q 501 46 676 93 q 113 -10 326 -1 m 143 96 q 492 153 343 113 q 741 254 642 193 q 889 395 840 315 q 938 569 938 475 q 901 697 938 638 q 801 806 864 757 q 658 893 739 856 q 488 953 576 931 q 309 983 399 976 q 140 979 219 990 q 140 848 140 926 q 139 678 139 769 q 260 677 201 678 q 363 679 318 676 q 423 667 403 682 q 443 632 443 651 q 423 594 443 613 q 363 574 403 576 q 253 571 310 571 q 138 571 196 571 q 138 432 138 501 q 138 300 138 363 q 140 185 139 238 q 143 96 142 132 z "},"":{"ha":1028,"x_min":33,"x_max":997,"o":"m 36 104 q 36 281 33 186 q 43 474 39 375 q 50 671 47 572 q 50 861 53 769 q 49 925 49 900 q 59 967 50 950 q 88 992 68 983 q 143 1007 107 1001 q 322 1031 235 1021 q 497 1052 410 1042 q 674 1076 585 1063 q 860 1108 764 1089 q 906 1103 889 1114 q 927 1073 924 1092 q 919 1034 931 1054 q 878 1003 907 1014 q 836 996 875 1001 q 736 981 797 990 q 598 961 675 972 q 442 939 521 950 q 288 917 363 928 q 157 897 214 906 q 157 828 157 868 q 156 744 157 788 q 155 656 156 700 q 154 572 154 611 q 213 577 175 572 q 300 590 251 582 q 404 609 349 599 q 513 630 460 619 q 613 650 565 640 q 694 668 661 660 q 758 668 735 676 q 788 644 782 660 q 781 610 794 628 q 735 581 768 592 q 646 556 699 569 q 533 530 593 543 q 413 504 474 517 q 299 481 351 492 q 206 463 246 471 q 150 451 167 456 q 144 356 146 400 q 142 270 142 311 q 144 188 142 229 q 151 100 146 146 q 574 158 383 119 q 906 244 764 196 q 948 242 924 251 q 985 215 972 232 q 989 175 997 197 q 933 133 981 153 q 842 106 901 121 q 708 74 782 90 q 551 44 633 58 q 392 17 468 29 q 251 -3 315 6 q 150 -15 188 -12 q 93 -13 114 -18 q 61 6 72 -8 q 45 45 50 21 q 36 104 40 69 m 349 1131 q 290 1145 307 1129 q 276 1181 274 1161 q 295 1218 278 1201 q 336 1236 313 1235 q 425 1238 379 1239 q 515 1238 471 1238 q 600 1238 560 1238 q 672 1239 640 1238 q 733 1226 713 1242 q 753 1192 753 1211 q 733 1154 753 1172 q 672 1133 713 1136 q 510 1131 596 1128 q 349 1131 424 1133 z "},"":{"ha":1028,"x_min":33,"x_max":997,"o":"m 36 104 q 36 281 33 186 q 43 474 39 375 q 50 671 47 572 q 50 861 53 769 q 49 925 49 900 q 59 967 50 950 q 88 992 68 983 q 143 1007 107 1001 q 322 1031 235 1021 q 497 1052 410 1042 q 674 1076 585 1063 q 860 1108 764 1089 q 906 1103 889 1114 q 927 1073 924 1092 q 919 1034 931 1054 q 878 1003 907 1014 q 836 996 875 1001 q 736 981 797 990 q 598 961 675 972 q 442 939 521 950 q 288 917 363 928 q 157 897 214 906 q 157 828 157 868 q 156 744 157 788 q 155 656 156 700 q 154 572 154 611 q 213 577 175 572 q 300 590 251 582 q 404 609 349 599 q 513 630 460 619 q 613 650 565 640 q 694 668 661 660 q 758 668 735 676 q 788 644 782 660 q 781 610 794 628 q 735 581 768 592 q 646 556 699 569 q 533 530 593 543 q 413 504 474 517 q 299 481 351 492 q 206 463 246 471 q 150 451 167 456 q 144 356 146 400 q 142 270 142 311 q 144 188 142 229 q 151 100 146 146 q 574 158 383 119 q 906 244 764 196 q 948 242 924 251 q 985 215 972 232 q 989 175 997 197 q 933 133 981 153 q 842 106 901 121 q 708 74 782 90 q 551 44 633 58 q 392 17 468 29 q 251 -3 315 6 q 150 -15 188 -12 q 93 -13 114 -18 q 61 6 72 -8 q 45 45 50 21 q 36 104 40 69 m 349 1131 q 290 1145 307 1129 q 276 1181 274 1161 q 295 1218 278 1201 q 336 1236 313 1235 q 425 1238 379 1239 q 515 1238 471 1238 q 600 1238 560 1238 q 672 1239 640 1238 q 733 1226 713 1242 q 753 1192 753 1211 q 733 1154 753 1172 q 672 1133 713 1136 q 510 1131 596 1128 q 349 1131 424 1133 z "},"":{"ha":1028,"x_min":33,"x_max":997,"o":"m 36 104 q 36 281 33 186 q 43 474 39 375 q 50 671 47 572 q 50 861 53 769 q 49 925 49 900 q 59 967 50 950 q 88 992 68 983 q 143 1007 107 1001 q 322 1031 235 1021 q 497 1052 410 1042 q 674 1076 585 1063 q 860 1108 764 1089 q 906 1103 889 1114 q 927 1073 924 1092 q 919 1034 931 1054 q 878 1003 907 1014 q 836 996 875 1001 q 736 981 797 990 q 598 961 675 972 q 442 939 521 950 q 288 917 363 928 q 157 897 214 906 q 157 828 157 868 q 156 744 157 788 q 155 656 156 700 q 154 572 154 611 q 213 577 175 572 q 300 590 251 582 q 404 609 349 599 q 513 630 460 619 q 613 650 565 640 q 694 668 661 660 q 758 668 735 676 q 788 644 782 660 q 781 610 794 628 q 735 581 768 592 q 646 556 699 569 q 533 530 593 543 q 413 504 474 517 q 299 481 351 492 q 206 463 246 471 q 150 451 167 456 q 144 356 146 400 q 142 270 142 311 q 144 188 142 229 q 151 100 146 146 q 574 158 383 119 q 906 244 764 196 q 948 242 924 251 q 985 215 972 232 q 989 175 997 197 q 933 133 981 153 q 842 106 901 121 q 708 74 782 90 q 551 44 633 58 q 392 17 468 29 q 251 -3 315 6 q 150 -15 188 -12 q 93 -13 114 -18 q 61 6 72 -8 q 45 45 50 21 q 36 104 40 69 m 668 1308 q 653 1226 668 1261 q 616 1167 639 1190 q 565 1131 593 1143 q 508 1119 538 1119 q 414 1167 456 1119 q 361 1303 372 1214 q 371 1327 360 1315 q 397 1344 382 1339 q 426 1346 413 1350 q 444 1322 440 1342 q 470 1234 456 1265 q 517 1203 485 1203 q 545 1216 533 1203 q 565 1248 557 1229 q 577 1287 572 1267 q 583 1319 582 1307 q 599 1340 586 1335 q 628 1342 613 1344 q 656 1331 643 1340 q 668 1308 668 1322 z "},"":{"ha":1028,"x_min":33,"x_max":997,"o":"m 36 104 q 36 281 33 186 q 43 474 39 375 q 50 671 47 572 q 50 861 53 769 q 49 925 49 900 q 59 967 50 950 q 88 992 68 983 q 143 1007 107 1001 q 322 1031 235 1021 q 497 1052 410 1042 q 674 1076 585 1063 q 860 1108 764 1089 q 906 1103 889 1114 q 927 1073 924 1092 q 919 1034 931 1054 q 878 1003 907 1014 q 836 996 875 1001 q 736 981 797 990 q 598 961 675 972 q 442 939 521 950 q 288 917 363 928 q 157 897 214 906 q 157 828 157 868 q 156 744 157 788 q 155 656 156 700 q 154 572 154 611 q 213 577 175 572 q 300 590 251 582 q 404 609 349 599 q 513 630 460 619 q 613 650 565 640 q 694 668 661 660 q 758 668 735 676 q 788 644 782 660 q 781 610 794 628 q 735 581 768 592 q 646 556 699 569 q 533 530 593 543 q 413 504 474 517 q 299 481 351 492 q 206 463 246 471 q 150 451 167 456 q 144 356 146 400 q 142 270 142 311 q 144 188 142 229 q 151 100 146 146 q 574 158 383 119 q 906 244 764 196 q 948 242 924 251 q 985 215 972 232 q 989 175 997 197 q 933 133 981 153 q 842 106 901 121 q 708 74 782 90 q 551 44 633 58 q 392 17 468 29 q 251 -3 315 6 q 150 -15 188 -12 q 93 -13 114 -18 q 61 6 72 -8 q 45 45 50 21 q 36 104 40 69 m 668 1308 q 653 1226 668 1261 q 616 1167 639 1190 q 565 1131 593 1143 q 508 1119 538 1119 q 414 1167 456 1119 q 361 1303 372 1214 q 371 1327 360 1315 q 397 1344 382 1339 q 426 1346 413 1350 q 444 1322 440 1342 q 470 1234 456 1265 q 517 1203 485 1203 q 545 1216 533 1203 q 565 1248 557 1229 q 577 1287 572 1267 q 583 1319 582 1307 q 599 1340 586 1335 q 628 1342 613 1344 q 656 1331 643 1340 q 668 1308 668 1322 z "},"":{"ha":1028,"x_min":33,"x_max":997,"o":"m 36 104 q 36 281 33 186 q 43 474 39 375 q 50 671 47 572 q 50 861 53 769 q 49 925 49 900 q 59 967 50 950 q 88 992 68 983 q 143 1007 107 1001 q 322 1031 235 1021 q 497 1052 410 1042 q 674 1076 585 1063 q 860 1108 764 1089 q 906 1103 889 1114 q 927 1073 924 1092 q 919 1034 931 1054 q 878 1003 907 1014 q 836 996 875 1001 q 736 981 797 990 q 598 961 675 972 q 442 939 521 950 q 288 917 363 928 q 157 897 214 906 q 157 828 157 868 q 156 744 157 788 q 155 656 156 700 q 154 572 154 611 q 213 577 175 572 q 300 590 251 582 q 404 609 349 599 q 513 630 460 619 q 613 650 565 640 q 694 668 661 660 q 758 668 735 676 q 788 644 782 660 q 781 610 794 628 q 735 581 768 592 q 646 556 699 569 q 533 530 593 543 q 413 504 474 517 q 299 481 351 492 q 206 463 246 471 q 150 451 167 456 q 144 356 146 400 q 142 270 142 311 q 144 188 142 229 q 151 100 146 146 q 574 158 383 119 q 906 244 764 196 q 948 242 924 251 q 985 215 972 232 q 989 175 997 197 q 933 133 981 153 q 842 106 901 121 q 708 74 782 90 q 551 44 633 58 q 392 17 468 29 q 251 -3 315 6 q 150 -15 188 -12 q 93 -13 114 -18 q 61 6 72 -8 q 45 45 50 21 q 36 104 40 69 m 422 1208 q 445 1289 418 1258 q 508 1324 472 1319 q 574 1306 543 1329 q 607 1225 604 1282 q 581 1157 608 1182 q 520 1128 554 1132 q 456 1144 486 1125 q 422 1208 426 1164 z "},"":{"ha":1028,"x_min":33,"x_max":997,"o":"m 36 104 q 36 281 33 186 q 43 474 39 375 q 50 671 47 572 q 50 861 53 769 q 49 925 49 900 q 59 967 50 950 q 88 992 68 983 q 143 1007 107 1001 q 322 1031 235 1021 q 497 1052 410 1042 q 674 1076 585 1063 q 860 1108 764 1089 q 906 1103 889 1114 q 927 1073 924 1092 q 919 1034 931 1054 q 878 1003 907 1014 q 836 996 875 1001 q 736 981 797 990 q 598 961 675 972 q 442 939 521 950 q 288 917 363 928 q 157 897 214 906 q 157 828 157 868 q 156 744 157 788 q 155 656 156 700 q 154 572 154 611 q 213 577 175 572 q 300 590 251 582 q 404 609 349 599 q 513 630 460 619 q 613 650 565 640 q 694 668 661 660 q 758 668 735 676 q 788 644 782 660 q 781 610 794 628 q 735 581 768 592 q 646 556 699 569 q 533 530 593 543 q 413 504 474 517 q 299 481 351 492 q 206 463 246 471 q 150 451 167 456 q 144 356 146 400 q 142 270 142 311 q 144 188 142 229 q 151 100 146 146 q 574 158 383 119 q 906 244 764 196 q 948 242 924 251 q 985 215 972 232 q 989 175 997 197 q 933 133 981 153 q 842 106 901 121 q 708 74 782 90 q 551 44 633 58 q 392 17 468 29 q 251 -3 315 6 q 150 -15 188 -12 q 93 -13 114 -18 q 61 6 72 -8 q 45 45 50 21 q 36 104 40 69 m 422 1208 q 445 1289 418 1258 q 508 1324 472 1319 q 574 1306 543 1329 q 607 1225 604 1282 q 581 1157 608 1182 q 520 1128 554 1132 q 456 1144 486 1125 q 422 1208 426 1164 z "},"":{"ha":1028,"x_min":33,"x_max":997,"o":"m 36 104 q 36 281 33 186 q 43 474 39 375 q 50 671 47 572 q 50 861 53 769 q 49 925 49 900 q 59 967 50 950 q 88 992 68 983 q 143 1007 107 1001 q 322 1031 235 1021 q 497 1052 410 1042 q 674 1076 585 1063 q 860 1108 764 1089 q 906 1103 889 1114 q 927 1073 924 1092 q 919 1034 931 1054 q 878 1003 907 1014 q 836 996 875 1001 q 736 981 797 990 q 598 961 675 972 q 442 939 521 950 q 288 917 363 928 q 157 897 214 906 q 157 828 157 868 q 156 744 157 788 q 155 656 156 700 q 154 572 154 611 q 213 577 175 572 q 300 590 251 582 q 404 609 349 599 q 513 630 460 619 q 613 650 565 640 q 694 668 661 660 q 758 668 735 676 q 788 644 782 660 q 781 610 794 628 q 735 581 768 592 q 646 556 699 569 q 533 530 593 543 q 413 504 474 517 q 299 481 351 492 q 206 463 246 471 q 150 451 167 456 q 144 356 146 400 q 142 270 142 311 q 144 188 142 229 q 151 100 146 146 q 574 158 383 119 q 906 244 764 196 q 948 242 924 251 q 985 215 972 232 q 989 175 997 197 q 933 133 981 153 q 931 129 931 131 q 928 126 931 128 q 901 72 911 101 q 892 13 890 42 q 910 -41 893 -15 q 968 -83 928 -67 q 992 -110 990 -93 q 981 -144 993 -128 q 949 -168 969 -160 q 906 -167 928 -176 q 845 -119 867 -150 q 816 -51 824 -89 q 813 26 808 -14 q 829 101 817 67 q 658 64 756 83 q 463 28 560 44 q 281 1 365 13 q 150 -15 196 -11 q 93 -13 114 -18 q 61 6 72 -8 q 45 45 50 21 q 36 104 40 69 z "},"":{"ha":1028,"x_min":33,"x_max":997,"o":"m 906 -167 q 845 -119 867 -150 q 816 -51 824 -89 q 813 26 808 -14 q 829 101 817 67 q 658 64 756 83 q 463 28 560 44 q 281 1 365 13 q 150 -15 196 -11 q 93 -13 114 -18 q 61 6 72 -8 q 45 45 50 21 q 36 104 40 69 q 36 281 33 186 q 43 474 39 375 q 50 671 47 572 q 50 861 53 769 q 49 925 49 900 q 59 967 50 950 q 88 992 68 983 q 143 1007 107 1001 q 322 1031 235 1021 q 497 1052 410 1042 q 674 1076 585 1063 q 860 1108 764 1089 q 906 1103 889 1114 q 927 1073 924 1092 q 919 1034 931 1054 q 878 1003 907 1014 q 836 996 875 1001 q 736 981 797 990 q 598 961 675 972 q 442 939 521 950 q 288 917 363 928 q 157 897 214 906 q 157 828 157 868 q 156 744 157 788 q 155 656 156 700 q 154 572 154 611 q 213 577 175 572 q 300 590 251 582 q 404 609 349 599 q 513 630 460 619 q 613 650 565 640 q 694 668 661 660 q 758 668 735 676 q 788 644 782 660 q 781 610 794 628 q 735 581 768 592 q 646 556 699 569 q 533 530 593 543 q 413 504 474 517 q 299 481 351 492 q 206 463 246 471 q 150 451 167 456 q 144 356 146 400 q 142 270 142 311 q 144 188 142 229 q 151 100 146 146 q 574 158 383 119 q 906 244 764 196 q 948 242 924 251 q 985 215 972 232 q 989 175 997 197 q 933 133 981 153 q 931 129 931 131 q 928 126 931 128 q 901 72 911 101 q 892 13 890 42 q 910 -41 893 -15 q 968 -83 928 -67 q 992 -110 990 -93 q 981 -144 993 -128 q 949 -168 969 -160 q 906 -167 928 -176 z "}}}
